<mxfile host="app.diagrams.net" modified="2023-01-12T03:06:57.102Z" agent="5.0 (Windows NT 10.0; Win64; x64) AppleWebKit/537.36 (KHTML, like Gecko) Chrome/108.0.0.0 Safari/537.36" etag="H7ZE9s1t1kCUa7bZ130P" version="20.8.4" type="github" pages="3">
  <diagram id="rgfzptceJlzEGsEFw7x6" name="Page-1">
    <mxGraphModel dx="5032" dy="2027" grid="1" gridSize="10" guides="1" tooltips="1" connect="1" arrows="1" fold="1" page="1" pageScale="1" pageWidth="1169" pageHeight="827" math="0" shadow="0">
      <root>
        <mxCell id="0" />
        <mxCell id="1" parent="0" />
        <mxCell id="QDaaD1NiceXSdYSKnVRp-151" value="&lt;h1 style=&quot;font-size: 15px;&quot;&gt;&lt;span style=&quot;background-color: initial; font-size: 15px;&quot;&gt;&lt;font style=&quot;font-size: 15px;&quot;&gt;CONNECTORS&lt;/font&gt;&lt;/span&gt;&lt;/h1&gt;&lt;h1 style=&quot;font-size: 15px;&quot;&gt;&lt;span style=&quot;font-size: 15px;&quot;&gt;A &lt;/span&gt;&lt;span style=&quot;font-weight: normal; font-size: 15px;&quot;&gt;= THE PROGRAM ENDS&lt;/span&gt;&lt;/h1&gt;&lt;div style=&quot;font-size: 15px;&quot;&gt;&lt;h1 style=&quot;font-size: 15px;&quot;&gt;&lt;span style=&quot;font-size: 15px;&quot;&gt;B &lt;/span&gt;&lt;span style=&quot;font-weight: normal; font-size: 15px;&quot;&gt;= GO BACK TO USER LOGIN&lt;/span&gt;&lt;/h1&gt;&lt;/div&gt;&lt;div style=&quot;font-size: 15px;&quot;&gt;&lt;span style=&quot;font-size: 15px;&quot;&gt;&lt;b style=&quot;font-size: 15px;&quot;&gt;C&lt;/b&gt;&lt;/span&gt;&lt;span style=&quot;font-weight: normal; font-size: 15px;&quot;&gt; = RE-DIRECT TO ADMIN SELECTION&lt;/span&gt;&lt;/div&gt;&lt;h1 style=&quot;font-size: 15px;&quot;&gt;&lt;span style=&quot;font-size: 15px;&quot;&gt;D&lt;/span&gt;&lt;span style=&quot;font-weight: normal; font-size: 15px;&quot;&gt; = RE-DIRECT TO TEACHER SELECTION&lt;/span&gt;&lt;/h1&gt;&lt;h1 style=&quot;font-size: 15px;&quot;&gt;&lt;span style=&quot;font-size: 15px;&quot;&gt;E&lt;/span&gt;&lt;span style=&quot;font-weight: 400; font-size: 15px;&quot;&gt; = GO TO INPUT STUDENT NAME AND LRN&lt;/span&gt;&lt;/h1&gt;&lt;div style=&quot;border-color: var(--border-color); font-size: 15px;&quot;&gt;&lt;h1 style=&quot;border-color: var(--border-color); font-size: 15px;&quot;&gt;&lt;span style=&quot;border-color: var(--border-color); font-size: 15px;&quot;&gt;M&lt;/span&gt;&lt;span style=&quot;border-color: var(--border-color); font-weight: normal; font-size: 15px;&quot;&gt; = GO TO CALL ARRAYLIST&lt;/span&gt;&lt;/h1&gt;&lt;/div&gt;&lt;div style=&quot;border-color: var(--border-color); font-size: 15px;&quot;&gt;&lt;span style=&quot;border-color: var(--border-color); font-size: 15px;&quot;&gt;&lt;b style=&quot;font-size: 15px;&quot;&gt;N&lt;/b&gt; =&amp;nbsp;&lt;/span&gt;&lt;span style=&quot;border-color: var(--border-color); background-color: initial; font-size: 15px;&quot;&gt;RE-DIRECT TO CALL ARRAYLIST&lt;/span&gt;&lt;/div&gt;&lt;div style=&quot;border-color: var(--border-color); font-size: 15px;&quot;&gt;&lt;span style=&quot;border-color: var(--border-color); background-color: initial; font-size: 15px;&quot;&gt;&lt;div style=&quot;border-color: var(--border-color);&quot;&gt;&lt;h1 style=&quot;border-color: var(--border-color); font-size: 15px;&quot;&gt;&lt;span style=&quot;border-color: var(--border-color);&quot;&gt;O&lt;/span&gt;&lt;span style=&quot;border-color: var(--border-color); font-weight: normal;&quot;&gt; = RE-DIRECT TO PRESS ENTER KEY&lt;/span&gt;&lt;/h1&gt;&lt;/div&gt;&lt;div style=&quot;border-color: var(--border-color);&quot;&gt;&lt;span style=&quot;border-color: var(--border-color);&quot;&gt;&lt;b&gt;P&lt;/b&gt; = RE-DIRECT TO INPUT ADMIN CODE&lt;/span&gt;&lt;/div&gt;&lt;/span&gt;&lt;/div&gt;" style="text;html=1;strokeColor=none;fillColor=none;spacing=5;spacingTop=-20;whiteSpace=wrap;overflow=hidden;rounded=1;fontSize=15;labelBorderColor=none;labelBackgroundColor=none;fontColor=#000000;align=left;" parent="1" vertex="1">
          <mxGeometry x="-1813.08" y="-555.97" width="351.69" height="301.48" as="geometry" />
        </mxCell>
        <mxCell id="o5ZDpu6mdRP5lnx8hidz-3" value="" style="edgeStyle=orthogonalEdgeStyle;rounded=1;orthogonalLoop=1;jettySize=auto;html=1;fontSize=15;labelBackgroundColor=none;fontColor=#000000;" parent="1" target="o5ZDpu6mdRP5lnx8hidz-2" edge="1">
          <mxGeometry relative="1" as="geometry">
            <mxPoint x="-2199.2438170326604" y="-749.6548727627428" as="sourcePoint" />
          </mxGeometry>
        </mxCell>
        <mxCell id="o5ZDpu6mdRP5lnx8hidz-5" style="edgeStyle=orthogonalEdgeStyle;rounded=1;orthogonalLoop=1;jettySize=auto;html=1;entryX=0;entryY=0.5;entryDx=0;entryDy=0;fontSize=15;labelBackgroundColor=none;fontColor=#000000;" parent="1" target="o5ZDpu6mdRP5lnx8hidz-4" edge="1">
          <mxGeometry relative="1" as="geometry">
            <mxPoint x="-1462.6311009318895" y="-749.6548727627428" as="targetPoint" />
            <mxPoint x="-1486.7823375253574" y="-749.6548727627428" as="sourcePoint" />
          </mxGeometry>
        </mxCell>
        <mxCell id="o5ZDpu6mdRP5lnx8hidz-2" value="PROGRAM&amp;nbsp; START METHOD" style="rounded=1;whiteSpace=wrap;html=1;fontSize=15;labelBackgroundColor=none;fontColor=#000000;" parent="1" vertex="1">
          <mxGeometry x="-2163.0169621424584" y="-779.803258690896" width="144.90741956080743" height="60.296771856306066" as="geometry" />
        </mxCell>
        <mxCell id="o5ZDpu6mdRP5lnx8hidz-7" value="" style="edgeStyle=orthogonalEdgeStyle;rounded=1;orthogonalLoop=1;jettySize=auto;html=1;fontSize=15;labelBackgroundColor=none;fontColor=#000000;" parent="1" target="o5ZDpu6mdRP5lnx8hidz-6" edge="1">
          <mxGeometry relative="1" as="geometry">
            <mxPoint x="-1299.6102539259812" y="-749.6548727627428" as="sourcePoint" />
          </mxGeometry>
        </mxCell>
        <mxCell id="o5ZDpu6mdRP5lnx8hidz-4" value="INPUT USER/&lt;br style=&quot;font-size: 15px;&quot;&gt;LOGIN" style="shape=parallelogram;perimeter=parallelogramPerimeter;whiteSpace=wrap;html=1;fixedSize=1;shadow=0;fontFamily=Helvetica;fontSize=15;fontColor=#000000;align=center;strokeColor=default;fillColor=default;" parent="1" vertex="1">
          <mxGeometry x="-1438.4798643384215" y="-779.803258690896" width="144.90741956080743" height="60.296771856306066" as="geometry" />
        </mxCell>
        <mxCell id="o5ZDpu6mdRP5lnx8hidz-6" value="ACCOUNT&lt;br style=&quot;font-size: 15px;&quot;&gt;=ADMIN" style="rhombus;whiteSpace=wrap;html=1;fontSize=15;labelBackgroundColor=none;rounded=1;fontColor=#000000;" parent="1" vertex="1">
          <mxGeometry x="-1239.2321624423112" y="-789.8527206669471" width="96.60494637387163" height="80.39569580840808" as="geometry" />
        </mxCell>
        <mxCell id="o5ZDpu6mdRP5lnx8hidz-10" value="ADMIN INPUT METHOD" style="rounded=1;whiteSpace=wrap;html=1;fontSize=15;labelBackgroundColor=none;fontColor=#000000;" parent="1" vertex="1">
          <mxGeometry x="-1251.3077807390455" y="-678.7164515437607" width="120.7561829673395" height="50.24730988025505" as="geometry" />
        </mxCell>
        <mxCell id="QDaaD1NiceXSdYSKnVRp-258" value="YES" style="edgeStyle=orthogonalEdgeStyle;rounded=0;orthogonalLoop=1;jettySize=auto;html=1;fontSize=15;fontColor=#000000;" parent="1" source="o5ZDpu6mdRP5lnx8hidz-6" target="o5ZDpu6mdRP5lnx8hidz-10" edge="1">
          <mxGeometry relative="1" as="geometry" />
        </mxCell>
        <mxCell id="UHbVIYiBqWWw2T04JiPW-1" value="INPUT&lt;br style=&quot;font-size: 15px;&quot;&gt;ADMIN CODE" style="shape=parallelogram;perimeter=parallelogramPerimeter;whiteSpace=wrap;html=1;fixedSize=1;fontFamily=Helvetica;fontSize=15;fontColor=#000000;align=center;strokeColor=default;fillColor=default;" parent="1" vertex="1">
          <mxGeometry x="-1263.3833990357796" y="-597.8584348050817" width="144.90741956080743" height="60.296771856306066" as="geometry" />
        </mxCell>
        <mxCell id="5gSp1KQb_ZRfuneygHe--2" value="" style="edgeStyle=orthogonalEdgeStyle;rounded=0;orthogonalLoop=1;jettySize=auto;html=1;fontSize=15;" parent="1" source="o5ZDpu6mdRP5lnx8hidz-10" target="UHbVIYiBqWWw2T04JiPW-1" edge="1">
          <mxGeometry relative="1" as="geometry" />
        </mxCell>
        <mxCell id="UHbVIYiBqWWw2T04JiPW-3" value="&lt;font style=&quot;font-size: 15px;&quot;&gt;ADMIN&lt;br&gt;CODE&lt;br style=&quot;&quot;&gt;= ?&lt;/font&gt;" style="rhombus;whiteSpace=wrap;html=1;fontSize=15;labelBackgroundColor=none;rounded=1;fontColor=#000000;" parent="1" vertex="1">
          <mxGeometry x="-1245.2699715906783" y="-517.0080008422574" width="108.68056467060556" height="90.44515778445911" as="geometry" />
        </mxCell>
        <mxCell id="5gSp1KQb_ZRfuneygHe--3" value="" style="edgeStyle=orthogonalEdgeStyle;rounded=0;orthogonalLoop=1;jettySize=auto;html=1;fontSize=15;" parent="1" source="UHbVIYiBqWWw2T04JiPW-1" target="UHbVIYiBqWWw2T04JiPW-3" edge="1">
          <mxGeometry relative="1" as="geometry" />
        </mxCell>
        <mxCell id="UHbVIYiBqWWw2T04JiPW-5" value="ADMIN SELECTION METHOD" style="rounded=1;whiteSpace=wrap;html=1;fontSize=15;labelBackgroundColor=none;fontColor=#000000;" parent="1" vertex="1">
          <mxGeometry x="-1263.3880556753272" y="-381.7980692646868" width="144.90741956080743" height="60.296771856306066" as="geometry" />
        </mxCell>
        <mxCell id="5gSp1KQb_ZRfuneygHe--5" value="YES" style="edgeStyle=orthogonalEdgeStyle;rounded=0;orthogonalLoop=1;jettySize=auto;html=1;fontSize=15;" parent="1" source="UHbVIYiBqWWw2T04JiPW-3" target="UHbVIYiBqWWw2T04JiPW-5" edge="1">
          <mxGeometry relative="1" as="geometry" />
        </mxCell>
        <mxCell id="QDaaD1NiceXSdYSKnVRp-75" style="edgeStyle=orthogonalEdgeStyle;rounded=0;orthogonalLoop=1;jettySize=auto;html=1;fontSize=15;fontColor=#000000;startArrow=none;" parent="1" source="sO-kCsoZIU4TxNe5_Syn-5" edge="1">
          <mxGeometry relative="1" as="geometry">
            <mxPoint x="-1200" y="-294.30999999999995" as="targetPoint" />
            <mxPoint x="-1355.4165857669577" y="-419.9868405756515" as="sourcePoint" />
          </mxGeometry>
        </mxCell>
        <mxCell id="QDaaD1NiceXSdYSKnVRp-1" value="START" style="strokeWidth=2;html=1;shape=mxgraph.flowchart.terminator;whiteSpace=wrap;fontColor=#000000;fontSize=15;" parent="1" vertex="1">
          <mxGeometry x="-2320" y="-779.803258690896" width="120.7561829673395" height="60.296771856306066" as="geometry" />
        </mxCell>
        <mxCell id="QDaaD1NiceXSdYSKnVRp-9" value="PRESS &lt;br style=&quot;font-size: 15px;&quot;&gt;ENTER KEY" style="shape=parallelogram;perimeter=parallelogramPerimeter;whiteSpace=wrap;html=1;fixedSize=1;fontFamily=Helvetica;fontSize=15;fontColor=#000000;align=center;strokeColor=default;fillColor=default;" parent="1" vertex="1">
          <mxGeometry x="-1981.8826876914493" y="-779.803258690896" width="144.90741956080743" height="60.296771856306066" as="geometry" />
        </mxCell>
        <mxCell id="QDaaD1NiceXSdYSKnVRp-10" value="" style="edgeStyle=orthogonalEdgeStyle;rounded=0;orthogonalLoop=1;jettySize=auto;html=1;fontColor=#000000;fontSize=15;" parent="1" source="o5ZDpu6mdRP5lnx8hidz-2" target="QDaaD1NiceXSdYSKnVRp-9" edge="1">
          <mxGeometry relative="1" as="geometry" />
        </mxCell>
        <mxCell id="QDaaD1NiceXSdYSKnVRp-11" value="ENTER KEY" style="rhombus;whiteSpace=wrap;html=1;fontSize=15;rounded=1;labelBackgroundColor=none;fontColor=#000000;" parent="1" vertex="1">
          <mxGeometry x="-1800.7484132404402" y="-789.8527206669471" width="96.60494637387163" height="80.39569580840808" as="geometry" />
        </mxCell>
        <mxCell id="QDaaD1NiceXSdYSKnVRp-12" value="" style="edgeStyle=orthogonalEdgeStyle;rounded=0;orthogonalLoop=1;jettySize=auto;html=1;fontColor=#000000;fontSize=15;" parent="1" source="QDaaD1NiceXSdYSKnVRp-9" target="QDaaD1NiceXSdYSKnVRp-11" edge="1">
          <mxGeometry relative="1" as="geometry" />
        </mxCell>
        <mxCell id="raGrLXjCEWhN0ZExTV4A-2" style="edgeStyle=orthogonalEdgeStyle;rounded=0;orthogonalLoop=1;jettySize=auto;html=1;exitX=1;exitY=0.5;exitDx=0;exitDy=0;" parent="1" source="QDaaD1NiceXSdYSKnVRp-13" target="raGrLXjCEWhN0ZExTV4A-1" edge="1">
          <mxGeometry relative="1" as="geometry" />
        </mxCell>
        <mxCell id="QDaaD1NiceXSdYSKnVRp-13" value="ENTER KEY NOT PRESS" style="rounded=1;whiteSpace=wrap;html=1;fontFamily=Helvetica;fontSize=15;fontColor=#000000;align=center;strokeColor=default;fillColor=default;" parent="1" vertex="1">
          <mxGeometry x="-1824.899649833908" y="-659.209714978284" width="144.90741956080743" height="60.296771856306066" as="geometry" />
        </mxCell>
        <mxCell id="QDaaD1NiceXSdYSKnVRp-15" value="NO" style="edgeStyle=orthogonalEdgeStyle;rounded=0;orthogonalLoop=1;jettySize=auto;html=1;exitX=0.5;exitY=1;exitDx=0;exitDy=0;entryX=0.5;entryY=0;entryDx=0;entryDy=0;fontColor=#000000;fontSize=15;" parent="1" source="QDaaD1NiceXSdYSKnVRp-11" target="QDaaD1NiceXSdYSKnVRp-13" edge="1">
          <mxGeometry relative="1" as="geometry" />
        </mxCell>
        <mxCell id="QDaaD1NiceXSdYSKnVRp-19" value="USER LOGIN&lt;br style=&quot;font-size: 15px;&quot;&gt;METHOD" style="rounded=1;whiteSpace=wrap;html=1;fontSize=15;labelBackgroundColor=none;fontColor=#000000;" parent="1" vertex="1">
          <mxGeometry x="-1631.6897570861647" y="-779.803258690896" width="144.90741956080743" height="60.296771856306066" as="geometry" />
        </mxCell>
        <mxCell id="QDaaD1NiceXSdYSKnVRp-20" value="YES" style="edgeStyle=orthogonalEdgeStyle;rounded=0;orthogonalLoop=1;jettySize=auto;html=1;fontColor=#000000;fontSize=15;" parent="1" source="QDaaD1NiceXSdYSKnVRp-11" target="QDaaD1NiceXSdYSKnVRp-19" edge="1">
          <mxGeometry relative="1" as="geometry" />
        </mxCell>
        <mxCell id="raGrLXjCEWhN0ZExTV4A-5" style="edgeStyle=orthogonalEdgeStyle;rounded=0;orthogonalLoop=1;jettySize=auto;html=1;exitX=0.5;exitY=1;exitDx=0;exitDy=0;" parent="1" source="QDaaD1NiceXSdYSKnVRp-65" target="raGrLXjCEWhN0ZExTV4A-6" edge="1">
          <mxGeometry relative="1" as="geometry">
            <mxPoint x="-1015.4210526315787" y="-400" as="targetPoint" />
          </mxGeometry>
        </mxCell>
        <mxCell id="QDaaD1NiceXSdYSKnVRp-65" value="WRONG&lt;br style=&quot;font-size: 15px;&quot;&gt;ADMIN CODE" style="whiteSpace=wrap;html=1;fontSize=15;labelBackgroundColor=none;rounded=1;fontColor=#000000;" parent="1" vertex="1">
          <mxGeometry x="-1087.4737199303647" y="-501.6508241648098" width="144.90741956080743" height="60.296771856306066" as="geometry" />
        </mxCell>
        <mxCell id="QDaaD1NiceXSdYSKnVRp-66" value="&lt;font style=&quot;font-size: 15px;&quot;&gt;NO&lt;/font&gt;" style="edgeStyle=orthogonalEdgeStyle;rounded=0;orthogonalLoop=1;jettySize=auto;html=1;fontColor=#000000;fontSize=15;" parent="1" source="UHbVIYiBqWWw2T04JiPW-3" target="QDaaD1NiceXSdYSKnVRp-65" edge="1">
          <mxGeometry relative="1" as="geometry" />
        </mxCell>
        <mxCell id="5gSp1KQb_ZRfuneygHe--35" style="edgeStyle=orthogonalEdgeStyle;rounded=0;orthogonalLoop=1;jettySize=auto;html=1;exitX=0.5;exitY=1;exitDx=0;exitDy=0;fontSize=15;" parent="1" source="QDaaD1NiceXSdYSKnVRp-68" edge="1">
          <mxGeometry relative="1" as="geometry">
            <mxPoint x="-1456.7233623411685" y="-755.3225409203728" as="targetPoint" />
          </mxGeometry>
        </mxCell>
        <mxCell id="QDaaD1NiceXSdYSKnVRp-68" value="&lt;div style=&quot;font-size: 15px;&quot;&gt;&lt;span style=&quot;font-size: 15px; background-color: initial;&quot;&gt;B&lt;/span&gt;&lt;/div&gt;" style="ellipse;whiteSpace=wrap;html=1;rounded=1;fontSize=15;labelBackgroundColor=none;align=center;fontColor=#000000;fillColor=#FF8000;" parent="1" vertex="1">
          <mxGeometry x="-1474.7067192286236" y="-820.0011065951" width="36.22685489020186" height="30.148385928153033" as="geometry" />
        </mxCell>
        <mxCell id="sO-kCsoZIU4TxNe5_Syn-5" value="&lt;font style=&quot;font-size: 15px;&quot;&gt;C&lt;/font&gt;" style="ellipse;whiteSpace=wrap;html=1;rounded=1;fontSize=15;labelBackgroundColor=none;fontColor=#000000;fillColor=#FFFF00;" parent="1" vertex="1">
          <mxGeometry x="-1330.2454090693282" y="-309.7655428492718" width="36.22685489020186" height="30.148385928153033" as="geometry" />
        </mxCell>
        <mxCell id="UHbVIYiBqWWw2T04JiPW-26" value="&lt;div style=&quot;font-size: 13px;&quot;&gt;&lt;span style=&quot;background-color: initial; font-size: 13px;&quot;&gt;&lt;font style=&quot;font-size: 13px;&quot;&gt;SELECT&lt;/font&gt;&lt;/span&gt;&lt;/div&gt;&lt;font style=&quot;font-size: 13px;&quot;&gt;1. ADD NEW TEACHER&lt;br style=&quot;font-size: 13px;&quot;&gt;2. ADD NEW STUDENT&lt;br style=&quot;font-size: 13px;&quot;&gt;3. LOG-IN&lt;br style=&quot;font-size: 13px;&quot;&gt;4. EXIT&lt;/font&gt;" style="whiteSpace=wrap;html=1;rounded=1;align=center;fontSize=13;labelBackgroundColor=none;fontColor=#000000;" parent="1" vertex="1">
          <mxGeometry x="-1275.460313592854" y="-268.30613244874644" width="169.0586561542753" height="80.39569580840808" as="geometry" />
        </mxCell>
        <mxCell id="5gSp1KQb_ZRfuneygHe--10" value="" style="edgeStyle=orthogonalEdgeStyle;rounded=0;orthogonalLoop=1;jettySize=auto;html=1;fontSize=15;" parent="1" source="UHbVIYiBqWWw2T04JiPW-5" target="UHbVIYiBqWWw2T04JiPW-26" edge="1">
          <mxGeometry relative="1" as="geometry" />
        </mxCell>
        <mxCell id="UHbVIYiBqWWw2T04JiPW-28" value="INPUT&amp;nbsp;&lt;br style=&quot;font-size: 15px;&quot;&gt;SELECT NUM" style="shape=parallelogram;perimeter=parallelogramPerimeter;whiteSpace=wrap;html=1;fixedSize=1;fontFamily=Helvetica;fontSize=15;fontColor=#000000;align=center;strokeColor=default;fillColor=default;" parent="1" vertex="1">
          <mxGeometry x="-1261.6749228843705" y="-153.3081202762478" width="144.90741956080743" height="60.296771856306066" as="geometry" />
        </mxCell>
        <mxCell id="5gSp1KQb_ZRfuneygHe--58" style="edgeStyle=orthogonalEdgeStyle;rounded=0;orthogonalLoop=1;jettySize=auto;html=1;exitX=0.5;exitY=1;exitDx=0;exitDy=0;entryX=0.5;entryY=0;entryDx=0;entryDy=0;fontSize=13;" parent="1" source="UHbVIYiBqWWw2T04JiPW-26" target="UHbVIYiBqWWw2T04JiPW-28" edge="1">
          <mxGeometry relative="1" as="geometry" />
        </mxCell>
        <mxCell id="UHbVIYiBqWWw2T04JiPW-41" value="SELECT = 1" style="rhombus;whiteSpace=wrap;html=1;rounded=1;fontSize=15;labelBackgroundColor=none;fontColor=#000000;" parent="1" vertex="1">
          <mxGeometry x="-1050.6094116025406" y="-44.6967590098609" width="96.60494637387163" height="80.39569580840808" as="geometry" />
        </mxCell>
        <mxCell id="UHbVIYiBqWWw2T04JiPW-43" value="SELECT = 2" style="rhombus;whiteSpace=wrap;html=1;rounded=1;fontSize=15;labelBackgroundColor=none;fontColor=#000000;" parent="1" vertex="1">
          <mxGeometry x="-869.479411602541" y="-44.69482676010068" width="96.60494637387163" height="80.39569580840808" as="geometry" />
        </mxCell>
        <mxCell id="ZpDOq_AkJfc21H6hvF0D-4" value="NO" style="edgeStyle=orthogonalEdgeStyle;rounded=0;orthogonalLoop=1;jettySize=auto;html=1;fontSize=15;" parent="1" source="UHbVIYiBqWWw2T04JiPW-41" target="UHbVIYiBqWWw2T04JiPW-43" edge="1">
          <mxGeometry relative="1" as="geometry" />
        </mxCell>
        <mxCell id="UHbVIYiBqWWw2T04JiPW-45" value="SELECT = 3" style="rhombus;whiteSpace=wrap;html=1;rounded=1;fontSize=15;labelBackgroundColor=none;fontColor=#000000;" parent="1" vertex="1">
          <mxGeometry x="-721.2894116025407" y="-44.69480926138749" width="96.60494637387163" height="80.39569580840808" as="geometry" />
        </mxCell>
        <mxCell id="QDaaD1NiceXSdYSKnVRp-251" value="NO" style="edgeStyle=orthogonalEdgeStyle;rounded=0;orthogonalLoop=1;jettySize=auto;html=1;fontSize=15;fontColor=#000000;" parent="1" source="UHbVIYiBqWWw2T04JiPW-43" target="UHbVIYiBqWWw2T04JiPW-45" edge="1">
          <mxGeometry relative="1" as="geometry" />
        </mxCell>
        <mxCell id="UHbVIYiBqWWw2T04JiPW-47" value="SELECT = 4" style="rhombus;whiteSpace=wrap;html=1;rounded=1;fontSize=15;labelBackgroundColor=none;fontColor=#000000;" parent="1" vertex="1">
          <mxGeometry x="-578.9062788115843" y="-44.69762805816822" width="96.60494637387163" height="80.39569580840808" as="geometry" />
        </mxCell>
        <mxCell id="QDaaD1NiceXSdYSKnVRp-252" value="NO" style="edgeStyle=orthogonalEdgeStyle;rounded=0;orthogonalLoop=1;jettySize=auto;html=1;fontSize=15;fontColor=#000000;" parent="1" source="UHbVIYiBqWWw2T04JiPW-45" target="UHbVIYiBqWWw2T04JiPW-47" edge="1">
          <mxGeometry relative="1" as="geometry" />
        </mxCell>
        <mxCell id="UHbVIYiBqWWw2T04JiPW-50" value="CREATE TEACHER&lt;br style=&quot;font-size: 15px;&quot;&gt;METHOD" style="whiteSpace=wrap;html=1;rounded=1;fontSize=15;labelBackgroundColor=none;fontColor=#000000;" parent="1" vertex="1">
          <mxGeometry x="-1074.954584876928" y="81.24270296619011" width="144.90741956080743" height="60.296771856306066" as="geometry" />
        </mxCell>
        <mxCell id="QDaaD1NiceXSdYSKnVRp-254" value="YES" style="edgeStyle=orthogonalEdgeStyle;rounded=0;orthogonalLoop=1;jettySize=auto;html=1;fontSize=15;fontColor=#000000;" parent="1" source="UHbVIYiBqWWw2T04JiPW-41" target="UHbVIYiBqWWw2T04JiPW-50" edge="1">
          <mxGeometry relative="1" as="geometry" />
        </mxCell>
        <mxCell id="UHbVIYiBqWWw2T04JiPW-52" value="INPUT&lt;br style=&quot;font-size: 15px;&quot;&gt;USER,PASS" style="shape=parallelogram;perimeter=parallelogramPerimeter;whiteSpace=wrap;html=1;fixedSize=1;fontFamily=Helvetica;fontSize=15;fontColor=#000000;align=center;strokeColor=default;fillColor=default;" parent="1" vertex="1">
          <mxGeometry x="-1074.9510781586387" y="161.2427029661901" width="144.90741956080743" height="60.296771856306066" as="geometry" />
        </mxCell>
        <mxCell id="UHbVIYiBqWWw2T04JiPW-53" value="" style="edgeStyle=orthogonalEdgeStyle;rounded=1;orthogonalLoop=1;jettySize=auto;html=1;fontSize=15;labelBackgroundColor=none;fontColor=#000000;" parent="1" source="UHbVIYiBqWWw2T04JiPW-50" target="UHbVIYiBqWWw2T04JiPW-52" edge="1">
          <mxGeometry relative="1" as="geometry" />
        </mxCell>
        <mxCell id="UHbVIYiBqWWw2T04JiPW-54" value="ADD IN ARRAYLIST&lt;br style=&quot;font-size: 15px;&quot;&gt;DISPLAY ACC&amp;nbsp;&lt;br style=&quot;font-size: 15px;&quot;&gt;CREATED" style="whiteSpace=wrap;html=1;rounded=1;fontSize=15;labelBackgroundColor=none;fontColor=#000000;" parent="1" vertex="1">
          <mxGeometry x="-1074.7563681860884" y="241.9927029661901" width="144.90741956080743" height="60.296771856306066" as="geometry" />
        </mxCell>
        <mxCell id="UHbVIYiBqWWw2T04JiPW-55" value="" style="edgeStyle=orthogonalEdgeStyle;rounded=1;orthogonalLoop=1;jettySize=auto;html=1;fontSize=15;labelBackgroundColor=none;fontColor=#000000;" parent="1" source="UHbVIYiBqWWw2T04JiPW-52" target="UHbVIYiBqWWw2T04JiPW-54" edge="1">
          <mxGeometry relative="1" as="geometry" />
        </mxCell>
        <mxCell id="sO-kCsoZIU4TxNe5_Syn-9" value="CREATE STUDENT&lt;br style=&quot;font-size: 15px;&quot;&gt;METHOD" style="whiteSpace=wrap;html=1;rounded=1;fontSize=15;labelBackgroundColor=none;fontColor=#000000;" parent="1" vertex="1">
          <mxGeometry x="-891.954584876928" y="81.24463521595021" width="144.90741956080743" height="60.296771856306066" as="geometry" />
        </mxCell>
        <mxCell id="QDaaD1NiceXSdYSKnVRp-253" value="YES" style="edgeStyle=orthogonalEdgeStyle;rounded=0;orthogonalLoop=1;jettySize=auto;html=1;fontSize=15;fontColor=#000000;" parent="1" source="UHbVIYiBqWWw2T04JiPW-43" target="sO-kCsoZIU4TxNe5_Syn-9" edge="1">
          <mxGeometry relative="1" as="geometry" />
        </mxCell>
        <mxCell id="sO-kCsoZIU4TxNe5_Syn-11" value="INPUT&lt;br style=&quot;font-size: 15px;&quot;&gt;NAME,LRN" style="shape=parallelogram;perimeter=parallelogramPerimeter;whiteSpace=wrap;html=1;fixedSize=1;fontFamily=Helvetica;fontSize=15;fontColor=#000000;align=center;strokeColor=default;fillColor=default;" parent="1" vertex="1">
          <mxGeometry x="-891.9504765315082" y="161.2446352159502" width="144.90741956080743" height="60.296771856306066" as="geometry" />
        </mxCell>
        <mxCell id="ZpDOq_AkJfc21H6hvF0D-15" value="" style="edgeStyle=orthogonalEdgeStyle;rounded=0;orthogonalLoop=1;jettySize=auto;html=1;fontSize=15;" parent="1" source="sO-kCsoZIU4TxNe5_Syn-9" target="sO-kCsoZIU4TxNe5_Syn-11" edge="1">
          <mxGeometry relative="1" as="geometry" />
        </mxCell>
        <mxCell id="sO-kCsoZIU4TxNe5_Syn-13" value="ADD IN ARRAYLIST,&lt;br style=&quot;font-size: 15px;&quot;&gt;DISPLAY STUDENT&amp;nbsp;&lt;br style=&quot;font-size: 15px;&quot;&gt;ADDED" style="whiteSpace=wrap;html=1;rounded=1;fontSize=15;labelBackgroundColor=none;fontColor=#000000;" parent="1" vertex="1">
          <mxGeometry x="-891.9463681860884" y="241.9946352159502" width="144.90741956080743" height="60.296771856306066" as="geometry" />
        </mxCell>
        <mxCell id="sO-kCsoZIU4TxNe5_Syn-10" value="" style="edgeStyle=orthogonalEdgeStyle;rounded=1;orthogonalLoop=1;jettySize=auto;html=1;fontSize=15;labelBackgroundColor=none;fontColor=#000000;" parent="1" source="sO-kCsoZIU4TxNe5_Syn-11" target="sO-kCsoZIU4TxNe5_Syn-13" edge="1">
          <mxGeometry relative="1" as="geometry" />
        </mxCell>
        <mxCell id="sO-kCsoZIU4TxNe5_Syn-17" value="&lt;font style=&quot;font-size: 15px;&quot;&gt;B&lt;/font&gt;" style="ellipse;whiteSpace=wrap;html=1;aspect=fixed;fontFamily=Helvetica;fontSize=15;fontColor=#000000;align=center;strokeColor=default;fillColor=#FF8000;" parent="1" vertex="1">
          <mxGeometry x="-691.1010641112343" y="144.98263706666785" width="36.22685489020186" height="30.148385928153033" as="geometry" />
        </mxCell>
        <mxCell id="5gSp1KQb_ZRfuneygHe--24" value="YES" style="edgeStyle=orthogonalEdgeStyle;rounded=0;orthogonalLoop=1;jettySize=auto;html=1;fontSize=15;" parent="1" source="UHbVIYiBqWWw2T04JiPW-45" target="sO-kCsoZIU4TxNe5_Syn-17" edge="1">
          <mxGeometry relative="1" as="geometry" />
        </mxCell>
        <mxCell id="QDaaD1NiceXSdYSKnVRp-60" value="&lt;font style=&quot;font-size: 15px;&quot;&gt;C&lt;/font&gt;" style="ellipse;whiteSpace=wrap;html=1;fontSize=15;rounded=1;labelBackgroundColor=none;fontColor=#000000;fillColor=#FFFF00;" parent="1" vertex="1">
          <mxGeometry x="-1020.4195430420982" y="411.69310454233914" width="36.22685489020186" height="30.148385928153033" as="geometry" />
        </mxCell>
        <mxCell id="QDaaD1NiceXSdYSKnVRp-81" value="&lt;font style=&quot;font-size: 15px;&quot;&gt;C&lt;/font&gt;" style="ellipse;whiteSpace=wrap;html=1;fontSize=15;rounded=1;labelBackgroundColor=none;fontColor=#000000;fillColor=#FFFF00;" parent="1" vertex="1">
          <mxGeometry x="-837.6095430420983" y="411.6950367920995" width="36.22685489020186" height="30.148385928153033" as="geometry" />
        </mxCell>
        <mxCell id="QDaaD1NiceXSdYSKnVRp-223" value="&lt;font style=&quot;font-size: 15px;&quot;&gt;A&lt;/font&gt;" style="ellipse;whiteSpace=wrap;html=1;aspect=fixed;fontFamily=Helvetica;fontSize=15;fontColor=#000000;align=center;strokeColor=default;fillColor=#FF0000;" parent="1" vertex="1">
          <mxGeometry x="-548.7210641112342" y="144.98513627825935" width="36.22685489020186" height="30.148385928153033" as="geometry" />
        </mxCell>
        <mxCell id="ZpDOq_AkJfc21H6hvF0D-3" value="YES" style="edgeStyle=orthogonalEdgeStyle;rounded=0;orthogonalLoop=1;jettySize=auto;html=1;fontSize=15;" parent="1" source="UHbVIYiBqWWw2T04JiPW-47" target="QDaaD1NiceXSdYSKnVRp-223" edge="1">
          <mxGeometry relative="1" as="geometry" />
        </mxCell>
        <mxCell id="QDaaD1NiceXSdYSKnVRp-229" value="NO" style="edgeStyle=orthogonalEdgeStyle;rounded=0;orthogonalLoop=1;jettySize=auto;html=1;fontSize=15;fontColor=#000000;" parent="1" source="UHbVIYiBqWWw2T04JiPW-47" edge="1">
          <mxGeometry relative="1" as="geometry">
            <mxPoint x="-426.55395698474285" y="-4.499780153964139" as="targetPoint" />
          </mxGeometry>
        </mxCell>
        <mxCell id="QDaaD1NiceXSdYSKnVRp-230" value="DISPLAY INVALID INPUT&amp;nbsp;" style="whiteSpace=wrap;html=1;fontSize=15;rounded=1;labelBackgroundColor=none;fontColor=#000000;" parent="1" vertex="1">
          <mxGeometry x="-426.56371993036475" y="-34.64623383235653" width="144.90741956080743" height="60.296771856306066" as="geometry" />
        </mxCell>
        <mxCell id="QDaaD1NiceXSdYSKnVRp-249" value="NO" style="edgeStyle=orthogonalEdgeStyle;rounded=0;orthogonalLoop=1;jettySize=auto;html=1;fontSize=15;fontColor=#000000;" parent="1" source="QDaaD1NiceXSdYSKnVRp-233" target="UHbVIYiBqWWw2T04JiPW-41" edge="1">
          <mxGeometry relative="1" as="geometry" />
        </mxCell>
        <mxCell id="QDaaD1NiceXSdYSKnVRp-235" value="CATCH &quot;NON NUMERIC VALUE&quot; DISPLAY THE PRINT&amp;nbsp;" style="rounded=1;whiteSpace=wrap;html=1;fontSize=14;fontColor=#000000;" parent="1" vertex="1">
          <mxGeometry x="-1261.674584876928" y="84.69127318952906" width="144.90741956080743" height="60.296771856306066" as="geometry" />
        </mxCell>
        <mxCell id="QDaaD1NiceXSdYSKnVRp-245" value="YES" style="edgeStyle=orthogonalEdgeStyle;rounded=0;orthogonalLoop=1;jettySize=auto;html=1;fontSize=15;fontColor=#000000;" parent="1" source="QDaaD1NiceXSdYSKnVRp-233" target="QDaaD1NiceXSdYSKnVRp-235" edge="1">
          <mxGeometry relative="1" as="geometry" />
        </mxCell>
        <mxCell id="QDaaD1NiceXSdYSKnVRp-241" value="&lt;font style=&quot;font-size: 15px;&quot;&gt;C&lt;/font&gt;" style="ellipse;whiteSpace=wrap;html=1;aspect=fixed;fontFamily=Helvetica;fontSize=15;fontColor=#000000;align=center;strokeColor=default;fillColor=#FFFF00;" parent="1" vertex="1">
          <mxGeometry x="-372.21922630663187" y="69.61175051964683" width="36.22685489020186" height="30.148385928153033" as="geometry" />
        </mxCell>
        <mxCell id="QDaaD1NiceXSdYSKnVRp-242" value="&lt;font style=&quot;font-size: 15px;&quot;&gt;C&lt;/font&gt;" style="ellipse;whiteSpace=wrap;html=1;rounded=1;fontSize=15;labelBackgroundColor=none;fontColor=#000000;fillColor=#FFFF00;" parent="1" vertex="1">
          <mxGeometry x="-1207.3286246795012" y="171.6892575415327" width="36.22685489020186" height="30.148385928153033" as="geometry" />
        </mxCell>
        <mxCell id="o5ZDpu6mdRP5lnx8hidz-8" value="ACCOUNT&lt;br style=&quot;font-size: 15px;&quot;&gt;=USER" style="rhombus;whiteSpace=wrap;html=1;fontSize=15;labelBackgroundColor=none;rounded=1;fontColor=#000000;" parent="1" vertex="1">
          <mxGeometry x="-869.4798551965796" y="-790.0871928865974" width="96.60494637387163" height="80.39569580840808" as="geometry" />
        </mxCell>
        <mxCell id="o5ZDpu6mdRP5lnx8hidz-12" value="TEACHER SELECTION METHOD" style="rounded=1;whiteSpace=wrap;html=1;fontSize=15;labelBackgroundColor=none;fontColor=#000000;" parent="1" vertex="1">
          <mxGeometry x="-881.56" y="-625.9599999999999" width="121.56" height="57.65" as="geometry" />
        </mxCell>
        <mxCell id="5gSp1KQb_ZRfuneygHe--17" value="" style="edgeStyle=orthogonalEdgeStyle;rounded=0;orthogonalLoop=1;jettySize=auto;html=1;fontSize=15;" parent="1" source="QDaaD1NiceXSdYSKnVRp-230" target="QDaaD1NiceXSdYSKnVRp-241" edge="1">
          <mxGeometry relative="1" as="geometry" />
        </mxCell>
        <mxCell id="o5ZDpu6mdRP5lnx8hidz-14" value="WRONG &lt;br style=&quot;font-size: 15px;&quot;&gt;USER/PASS" style="rounded=1;whiteSpace=wrap;html=1;fontFamily=Helvetica;fontSize=15;fontColor=#000000;align=center;strokeColor=default;strokeWidth=2;fillColor=default;" parent="1" vertex="1">
          <mxGeometry x="-542.6680801016578" y="-780.383843516876" width="144.90741956080743" height="60.296771856306066" as="geometry" />
        </mxCell>
        <mxCell id="5gSp1KQb_ZRfuneygHe--20" value="" style="edgeStyle=orthogonalEdgeStyle;rounded=0;orthogonalLoop=1;jettySize=auto;html=1;fontSize=15;" parent="1" source="QDaaD1NiceXSdYSKnVRp-235" target="QDaaD1NiceXSdYSKnVRp-242" edge="1">
          <mxGeometry relative="1" as="geometry" />
        </mxCell>
        <mxCell id="sO-kCsoZIU4TxNe5_Syn-22" value="&lt;div style=&quot;font-size: 13px;&quot;&gt;&lt;span style=&quot;background-color: initial; font-size: 13px;&quot;&gt;SELECT&lt;/span&gt;&lt;/div&gt;1. ADD STUDENT GRADE&lt;br style=&quot;font-size: 13px;&quot;&gt;2. DISPLAY GRADE&lt;br style=&quot;font-size: 13px;&quot;&gt;3. LOG-IN&lt;br style=&quot;font-size: 13px;&quot;&gt;4. EXIT" style="whiteSpace=wrap;html=1;rounded=1;align=center;fontSize=13;labelBackgroundColor=none;fontColor=#000000;" parent="1" vertex="1">
          <mxGeometry x="-914.0300000000002" y="-537.56" width="185.71" height="80.4" as="geometry" />
        </mxCell>
        <mxCell id="5gSp1KQb_ZRfuneygHe--25" value="NO" style="edgeStyle=orthogonalEdgeStyle;rounded=0;orthogonalLoop=1;jettySize=auto;html=1;fontSize=15;" parent="1" source="o5ZDpu6mdRP5lnx8hidz-6" target="o5ZDpu6mdRP5lnx8hidz-8" edge="1">
          <mxGeometry relative="1" as="geometry" />
        </mxCell>
        <mxCell id="sO-kCsoZIU4TxNe5_Syn-24" value="INPUT&amp;nbsp;&lt;br style=&quot;font-size: 15px;&quot;&gt;SELECT NUM" style="shape=parallelogram;perimeter=parallelogramPerimeter;whiteSpace=wrap;html=1;fixedSize=1;align=center;rounded=1;fontSize=15;labelBackgroundColor=none;fontColor=#000000;" parent="1" vertex="1">
          <mxGeometry x="-893.6306288270457" y="-421.8638516759146" width="144.90741956080743" height="60.296771856306066" as="geometry" />
        </mxCell>
        <mxCell id="5gSp1KQb_ZRfuneygHe--40" value="YES" style="edgeStyle=orthogonalEdgeStyle;rounded=0;orthogonalLoop=1;jettySize=auto;html=1;fontSize=15;exitX=0.5;exitY=1;exitDx=0;exitDy=0;" parent="1" source="o5ZDpu6mdRP5lnx8hidz-8" target="o5ZDpu6mdRP5lnx8hidz-12" edge="1">
          <mxGeometry relative="1" as="geometry">
            <mxPoint x="-881.5526386465949" y="-392.0673209037918" as="sourcePoint" />
          </mxGeometry>
        </mxCell>
        <mxCell id="sO-kCsoZIU4TxNe5_Syn-34" value="SELECT = 1" style="rhombus;whiteSpace=wrap;html=1;rounded=1;fontSize=15;labelBackgroundColor=none;fontColor=#000000;" parent="1" vertex="1">
          <mxGeometry x="-721.2881568109367" y="-336.4426940095193" width="96.60494637387163" height="80.39569580840808" as="geometry" />
        </mxCell>
        <mxCell id="sO-kCsoZIU4TxNe5_Syn-36" value="SELECT = 2" style="rhombus;whiteSpace=wrap;html=1;rounded=1;fontSize=15;labelBackgroundColor=none;fontColor=#000000;" parent="1" vertex="1">
          <mxGeometry x="-569.4589581202163" y="-334.8903262104552" width="96.60494637387163" height="80.39569580840808" as="geometry" />
        </mxCell>
        <mxCell id="5gSp1KQb_ZRfuneygHe--41" value="" style="edgeStyle=orthogonalEdgeStyle;rounded=0;orthogonalLoop=1;jettySize=auto;html=1;fontSize=15;" parent="1" source="o5ZDpu6mdRP5lnx8hidz-12" target="sO-kCsoZIU4TxNe5_Syn-22" edge="1">
          <mxGeometry relative="1" as="geometry" />
        </mxCell>
        <mxCell id="5gSp1KQb_ZRfuneygHe--39" value="" style="edgeStyle=orthogonalEdgeStyle;rounded=0;orthogonalLoop=1;jettySize=auto;html=1;fontSize=15;" parent="1" source="sO-kCsoZIU4TxNe5_Syn-22" target="sO-kCsoZIU4TxNe5_Syn-24" edge="1">
          <mxGeometry relative="1" as="geometry" />
        </mxCell>
        <mxCell id="QDaaD1NiceXSdYSKnVRp-269" value="NO" style="edgeStyle=orthogonalEdgeStyle;rounded=0;orthogonalLoop=1;jettySize=auto;html=1;fontSize=15;fontColor=#000000;" parent="1" source="sO-kCsoZIU4TxNe5_Syn-34" target="sO-kCsoZIU4TxNe5_Syn-36" edge="1">
          <mxGeometry relative="1" as="geometry" />
        </mxCell>
        <mxCell id="X5pMktBhtO5OKIrnkQgn-1" value="NO" style="edgeStyle=orthogonalEdgeStyle;rounded=0;orthogonalLoop=1;jettySize=auto;html=1;exitX=1;exitY=0.5;exitDx=0;exitDy=0;" parent="1" source="sO-kCsoZIU4TxNe5_Syn-40" target="QDaaD1NiceXSdYSKnVRp-295" edge="1">
          <mxGeometry relative="1" as="geometry" />
        </mxCell>
        <mxCell id="sO-kCsoZIU4TxNe5_Syn-40" value="SELECT = 4" style="rhombus;whiteSpace=wrap;html=1;rounded=1;fontSize=15;labelBackgroundColor=none;fontColor=#000000;" parent="1" vertex="1">
          <mxGeometry x="-283.6542852299958" y="-334.8903262104551" width="96.60494637387163" height="80.39569580840808" as="geometry" />
        </mxCell>
        <mxCell id="QDaaD1NiceXSdYSKnVRp-271" value="NO" style="edgeStyle=orthogonalEdgeStyle;rounded=0;orthogonalLoop=1;jettySize=auto;html=1;fontSize=15;fontColor=#000000;" parent="1" source="sO-kCsoZIU4TxNe5_Syn-38" target="sO-kCsoZIU4TxNe5_Syn-40" edge="1">
          <mxGeometry relative="1" as="geometry" />
        </mxCell>
        <mxCell id="sO-kCsoZIU4TxNe5_Syn-43" value="METHOD&lt;br style=&quot;font-size: 15px;&quot;&gt;INPUT&lt;br style=&quot;font-size: 15px;&quot;&gt;STUDENT INFO" style="whiteSpace=wrap;html=1;rounded=1;fontSize=15;labelBackgroundColor=none;fontColor=#000000;" parent="1" vertex="1">
          <mxGeometry x="-731.6500000000001" y="-200.54999999999995" width="117.33" height="60.27" as="geometry" />
        </mxCell>
        <mxCell id="QDaaD1NiceXSdYSKnVRp-291" value="YES" style="edgeStyle=orthogonalEdgeStyle;rounded=0;orthogonalLoop=1;jettySize=auto;html=1;fontSize=15;fontColor=#000000;" parent="1" source="sO-kCsoZIU4TxNe5_Syn-34" target="sO-kCsoZIU4TxNe5_Syn-43" edge="1">
          <mxGeometry relative="1" as="geometry" />
        </mxCell>
        <mxCell id="sO-kCsoZIU4TxNe5_Syn-46" value="METHOD&lt;br style=&quot;font-size: 15px;&quot;&gt;DISPLAY GRADE" style="whiteSpace=wrap;html=1;rounded=1;fontSize=15;labelBackgroundColor=none;fontColor=#000000;" parent="1" vertex="1">
          <mxGeometry x="-578.9099999999999" y="-200.54999999999995" width="115.5" height="60.28" as="geometry" />
        </mxCell>
        <mxCell id="5gSp1KQb_ZRfuneygHe--47" value="YES" style="edgeStyle=orthogonalEdgeStyle;rounded=0;orthogonalLoop=1;jettySize=auto;html=1;fontSize=15;" parent="1" source="sO-kCsoZIU4TxNe5_Syn-36" target="sO-kCsoZIU4TxNe5_Syn-46" edge="1">
          <mxGeometry relative="1" as="geometry" />
        </mxCell>
        <mxCell id="QDaaD1NiceXSdYSKnVRp-34" value="NO" style="edgeStyle=orthogonalEdgeStyle;rounded=0;orthogonalLoop=1;jettySize=auto;html=1;fontColor=#000000;fontSize=15;" parent="1" source="QDaaD1NiceXSdYSKnVRp-32" target="o5ZDpu6mdRP5lnx8hidz-14" edge="1">
          <mxGeometry relative="1" as="geometry" />
        </mxCell>
        <mxCell id="QDaaD1NiceXSdYSKnVRp-32" value="TRIALS =&lt;br style=&quot;font-size: 15px;&quot;&gt;3 TIMES" style="rhombus;whiteSpace=wrap;html=1;fontSize=15;labelBackgroundColor=none;rounded=1;fontColor=#000000;" parent="1" vertex="1">
          <mxGeometry x="-702.5901035451984" y="-791.4150922486147" width="95.92246174873033" height="83.04359200097966" as="geometry" />
        </mxCell>
        <mxCell id="5gSp1KQb_ZRfuneygHe--51" value="NO" style="edgeStyle=orthogonalEdgeStyle;rounded=0;orthogonalLoop=1;jettySize=auto;html=1;fontSize=15;" parent="1" source="o5ZDpu6mdRP5lnx8hidz-8" target="QDaaD1NiceXSdYSKnVRp-32" edge="1">
          <mxGeometry relative="1" as="geometry" />
        </mxCell>
        <mxCell id="QDaaD1NiceXSdYSKnVRp-86" value="&lt;font style=&quot;font-size: 15px;&quot;&gt;B&lt;/font&gt;" style="ellipse;whiteSpace=wrap;html=1;rounded=1;fontSize=15;labelBackgroundColor=none;fontColor=#000000;fillColor=#FF8000;" parent="1" vertex="1">
          <mxGeometry x="-396.3720415972266" y="-198.52908529867364" width="36.22685489020186" height="30.148385928153033" as="geometry" />
        </mxCell>
        <mxCell id="QDaaD1NiceXSdYSKnVRp-285" value="YES" style="edgeStyle=orthogonalEdgeStyle;rounded=0;orthogonalLoop=1;jettySize=auto;html=1;fontSize=15;fontColor=#000000;" parent="1" source="sO-kCsoZIU4TxNe5_Syn-38" target="QDaaD1NiceXSdYSKnVRp-86" edge="1">
          <mxGeometry relative="1" as="geometry" />
        </mxCell>
        <mxCell id="QDaaD1NiceXSdYSKnVRp-87" value="&lt;font style=&quot;font-size: 15px;&quot;&gt;E&lt;/font&gt;" style="verticalLabelPosition=bottom;verticalAlign=top;html=1;shape=offPageConnector;rounded=0;size=0.5;fontFamily=Helvetica;fontSize=15;fontColor=#000000;align=center;strokeColor=default;fillColor=#33FFFF;" parent="1" vertex="1">
          <mxGeometry x="-691.0991110691018" y="-107.63865014642852" width="36.22685489020186" height="30.148385928153033" as="geometry" />
        </mxCell>
        <mxCell id="QDaaD1NiceXSdYSKnVRp-158" value="M" style="ellipse;whiteSpace=wrap;html=1;rounded=1;fontSize=15;labelBackgroundColor=none;fontColor=#000000;fillColor=#EDFFD1;" parent="1" vertex="1">
          <mxGeometry x="-539.2699123783816" y="-107.63865014642852" width="36.22685489020186" height="30.148385928153033" as="geometry" />
        </mxCell>
        <mxCell id="QDaaD1NiceXSdYSKnVRp-159" value="" style="edgeStyle=orthogonalEdgeStyle;rounded=0;orthogonalLoop=1;jettySize=auto;html=1;fontSize=15;fontColor=#000000;" parent="1" source="sO-kCsoZIU4TxNe5_Syn-46" target="QDaaD1NiceXSdYSKnVRp-158" edge="1">
          <mxGeometry relative="1" as="geometry" />
        </mxCell>
        <mxCell id="5gSp1KQb_ZRfuneygHe--50" style="edgeStyle=orthogonalEdgeStyle;rounded=0;orthogonalLoop=1;jettySize=auto;html=1;exitX=1;exitY=0.5;exitDx=0;exitDy=0;fontSize=15;" parent="1" source="QDaaD1NiceXSdYSKnVRp-217" edge="1">
          <mxGeometry relative="1" as="geometry">
            <mxPoint x="-658.7730088208714" y="-663.9592277462834" as="targetPoint" />
          </mxGeometry>
        </mxCell>
        <mxCell id="QDaaD1NiceXSdYSKnVRp-217" value="&lt;font style=&quot;font-size: 15px;&quot;&gt;A&lt;/font&gt;" style="ellipse;whiteSpace=wrap;html=1;rounded=1;fontSize=15;labelBackgroundColor=none;fontColor=#000000;fillColor=#FF0000;" parent="1" vertex="1">
          <mxGeometry x="-765.9516057729143" y="-679.3055784124203" width="36.22685489020186" height="30.148385928153033" as="geometry" />
        </mxCell>
        <mxCell id="QDaaD1NiceXSdYSKnVRp-218" value="END" style="strokeWidth=2;html=1;shape=mxgraph.flowchart.terminator;whiteSpace=wrap;fontColor=#000000;fontSize=15;" parent="1" vertex="1">
          <mxGeometry x="-715.0040706357418" y="-649.158699903564" width="120.7561829673395" height="50.24730988025505" as="geometry" />
        </mxCell>
        <mxCell id="QDaaD1NiceXSdYSKnVRp-222" value="&lt;font style=&quot;font-size: 15px;&quot;&gt;A&lt;/font&gt;" style="ellipse;whiteSpace=wrap;html=1;rounded=1;fontSize=15;labelBackgroundColor=none;fontColor=#000000;fillColor=#FF0000;" parent="1" vertex="1">
          <mxGeometry x="-253.4652394881614" y="-198.53717054762717" width="36.22685489020186" height="30.148385928153033" as="geometry" />
        </mxCell>
        <mxCell id="QDaaD1NiceXSdYSKnVRp-292" value="YES" style="edgeStyle=orthogonalEdgeStyle;rounded=0;orthogonalLoop=1;jettySize=auto;html=1;fontSize=15;fontColor=#000000;" parent="1" source="sO-kCsoZIU4TxNe5_Syn-40" target="QDaaD1NiceXSdYSKnVRp-222" edge="1">
          <mxGeometry relative="1" as="geometry" />
        </mxCell>
        <mxCell id="QDaaD1NiceXSdYSKnVRp-272" value="NO" style="edgeStyle=orthogonalEdgeStyle;rounded=0;orthogonalLoop=1;jettySize=auto;html=1;fontSize=15;fontColor=#000000;" parent="1" source="QDaaD1NiceXSdYSKnVRp-259" target="sO-kCsoZIU4TxNe5_Syn-34" edge="1">
          <mxGeometry relative="1" as="geometry" />
        </mxCell>
        <mxCell id="QDaaD1NiceXSdYSKnVRp-259" value="ERROR" style="rhombus;whiteSpace=wrap;html=1;fontSize=15;rounded=1;labelBackgroundColor=none;fontColor=#000000;" parent="1" vertex="1">
          <mxGeometry x="-869.4825365239649" y="-336.4426940095192" width="96.60494637387163" height="80.39569580840808" as="geometry" />
        </mxCell>
        <mxCell id="5gSp1KQb_ZRfuneygHe--45" value="" style="edgeStyle=orthogonalEdgeStyle;rounded=0;orthogonalLoop=1;jettySize=auto;html=1;fontSize=15;" parent="1" source="sO-kCsoZIU4TxNe5_Syn-43" target="QDaaD1NiceXSdYSKnVRp-87" edge="1">
          <mxGeometry relative="1" as="geometry" />
        </mxCell>
        <mxCell id="QDaaD1NiceXSdYSKnVRp-266" value="CATCH &quot;NON NUMERIC VALUE&quot; DISPLAY &lt;br style=&quot;font-size: 15px;&quot;&gt;THE PRINT&amp;nbsp;" style="whiteSpace=wrap;html=1;fontSize=15;rounded=1;labelBackgroundColor=none;fontColor=#000000;" parent="1" vertex="1">
          <mxGeometry x="-891.96" y="-208.05999999999995" width="141.56" height="75.3" as="geometry" />
        </mxCell>
        <mxCell id="5gSp1KQb_ZRfuneygHe--34" value="YES" style="edgeStyle=orthogonalEdgeStyle;rounded=0;orthogonalLoop=1;jettySize=auto;html=1;fontSize=15;" parent="1" source="QDaaD1NiceXSdYSKnVRp-32" target="QDaaD1NiceXSdYSKnVRp-218" edge="1">
          <mxGeometry relative="1" as="geometry" />
        </mxCell>
        <mxCell id="5gSp1KQb_ZRfuneygHe--52" style="edgeStyle=orthogonalEdgeStyle;rounded=0;orthogonalLoop=1;jettySize=auto;html=1;exitX=1;exitY=0.5;exitDx=0;exitDy=0;fontSize=15;" parent="1" source="QDaaD1NiceXSdYSKnVRp-278" edge="1">
          <mxGeometry relative="1" as="geometry">
            <mxPoint x="-828.4682391026106" y="-552.2672886320681" as="targetPoint" />
          </mxGeometry>
        </mxCell>
        <mxCell id="QDaaD1NiceXSdYSKnVRp-278" value="D" style="ellipse;whiteSpace=wrap;html=1;rounded=1;fontSize=15;labelBackgroundColor=none;fontColor=#000000;fillColor=#99FF33;" parent="1" vertex="1">
          <mxGeometry x="-962.4391029622172" y="-567.7125612424229" width="36.22685489020186" height="30.148385928153033" as="geometry" />
        </mxCell>
        <mxCell id="QDaaD1NiceXSdYSKnVRp-280" value="D" style="ellipse;whiteSpace=wrap;html=1;rounded=1;fontSize=15;labelBackgroundColor=none;fontColor=#000000;fillColor=#99FF33;" parent="1" vertex="1">
          <mxGeometry x="-839.2932593006292" y="-105.43019430599611" width="36.22685489020186" height="30.148385928153033" as="geometry" />
        </mxCell>
        <mxCell id="QDaaD1NiceXSdYSKnVRp-288" value="&lt;font style=&quot;font-size: 15px;&quot;&gt;D&lt;/font&gt;" style="ellipse;whiteSpace=wrap;html=1;rounded=1;fontSize=15;labelBackgroundColor=none;fontColor=#000000;fillColor=#99FF33;" parent="1" vertex="1">
          <mxGeometry x="-95.65713722550512" y="-200.54865014642854" width="36.22685489020186" height="30.148385928153033" as="geometry" />
        </mxCell>
        <mxCell id="5gSp1KQb_ZRfuneygHe--44" value="" style="edgeStyle=orthogonalEdgeStyle;rounded=0;orthogonalLoop=1;jettySize=auto;html=1;fontSize=15;" parent="1" source="QDaaD1NiceXSdYSKnVRp-295" target="QDaaD1NiceXSdYSKnVRp-288" edge="1">
          <mxGeometry relative="1" as="geometry" />
        </mxCell>
        <mxCell id="QDaaD1NiceXSdYSKnVRp-295" value="DISPLAY INVALID INPUT&amp;nbsp;" style="whiteSpace=wrap;html=1;fontSize=15;rounded=1;labelBackgroundColor=none;fontColor=#000000;" parent="1" vertex="1">
          <mxGeometry x="-149.9974195608082" y="-324.8365671775788" width="144.90741956080743" height="60.296771856306066" as="geometry" />
        </mxCell>
        <mxCell id="josNLa5cw1MQSi8JLJ62-6" value="&lt;div style=&quot;font-size: 15px;&quot;&gt;&lt;span style=&quot;font-size: 15px; background-color: initial;&quot;&gt;B&lt;/span&gt;&lt;/div&gt;" style="ellipse;whiteSpace=wrap;html=1;rounded=1;fontSize=15;labelBackgroundColor=none;align=center;fontColor=#000000;fillColor=#FF8000;" parent="1" vertex="1">
          <mxGeometry x="-346.1770142392163" y="-764.7277410250135" width="36.22685489020186" height="30.148385928153033" as="geometry" />
        </mxCell>
        <mxCell id="sO-kCsoZIU4TxNe5_Syn-38" value="SELECT = 3" style="rhombus;whiteSpace=wrap;html=1;rounded=1;fontSize=15;labelBackgroundColor=none;fontColor=#000000;" parent="1" vertex="1">
          <mxGeometry x="-426.56108733906126" y="-334.8903262104551" width="96.60494637387163" height="80.39569580840808" as="geometry" />
        </mxCell>
        <mxCell id="5gSp1KQb_ZRfuneygHe--43" value="" style="edgeStyle=orthogonalEdgeStyle;rounded=0;orthogonalLoop=1;jettySize=auto;html=1;fontSize=15;" parent="1" source="sO-kCsoZIU4TxNe5_Syn-24" target="QDaaD1NiceXSdYSKnVRp-259" edge="1">
          <mxGeometry relative="1" as="geometry" />
        </mxCell>
        <mxCell id="5gSp1KQb_ZRfuneygHe--38" value="YES" style="edgeStyle=orthogonalEdgeStyle;rounded=0;orthogonalLoop=1;jettySize=auto;html=1;fontSize=15;" parent="1" source="QDaaD1NiceXSdYSKnVRp-259" target="QDaaD1NiceXSdYSKnVRp-266" edge="1">
          <mxGeometry relative="1" as="geometry" />
        </mxCell>
        <mxCell id="5gSp1KQb_ZRfuneygHe--37" value="" style="edgeStyle=orthogonalEdgeStyle;rounded=0;orthogonalLoop=1;jettySize=auto;html=1;fontSize=15;" parent="1" source="QDaaD1NiceXSdYSKnVRp-266" target="QDaaD1NiceXSdYSKnVRp-280" edge="1">
          <mxGeometry relative="1" as="geometry" />
        </mxCell>
        <mxCell id="5gSp1KQb_ZRfuneygHe--33" value="" style="edgeStyle=orthogonalEdgeStyle;rounded=0;orthogonalLoop=1;jettySize=auto;html=1;fontSize=15;" parent="1" source="o5ZDpu6mdRP5lnx8hidz-14" target="josNLa5cw1MQSi8JLJ62-6" edge="1">
          <mxGeometry relative="1" as="geometry" />
        </mxCell>
        <mxCell id="5gSp1KQb_ZRfuneygHe--49" value="NO" style="edgeStyle=orthogonalEdgeStyle;rounded=0;orthogonalLoop=1;jettySize=auto;html=1;fontSize=15;" parent="1" source="sO-kCsoZIU4TxNe5_Syn-36" target="sO-kCsoZIU4TxNe5_Syn-38" edge="1">
          <mxGeometry relative="1" as="geometry" />
        </mxCell>
        <mxCell id="QDaaD1NiceXSdYSKnVRp-488" value="M" style="ellipse;whiteSpace=wrap;html=1;rounded=1;fontSize=15;labelBackgroundColor=none;fontColor=#000000;fillColor=#EDFFD1;" parent="1" vertex="1">
          <mxGeometry x="-2247.7995309815765" y="-537.5607036819506" width="36.22685489020186" height="30.148385928153033" as="geometry" />
        </mxCell>
        <mxCell id="QDaaD1NiceXSdYSKnVRp-490" value="DISPLAY INFO" style="whiteSpace=wrap;html=1;fontSize=15;rounded=1;labelBackgroundColor=none;fontColor=#000000;" parent="1" vertex="1">
          <mxGeometry x="-2302.139813316879" y="-442.0908149094661" width="144.90741956080743" height="60.296771856306066" as="geometry" />
        </mxCell>
        <mxCell id="QDaaD1NiceXSdYSKnVRp-491" value="" style="edgeStyle=orthogonalEdgeStyle;rounded=0;orthogonalLoop=1;jettySize=auto;html=1;fontSize=15;fontColor=#000000;" parent="1" source="QDaaD1NiceXSdYSKnVRp-488" target="QDaaD1NiceXSdYSKnVRp-490" edge="1">
          <mxGeometry relative="1" as="geometry" />
        </mxCell>
        <mxCell id="QDaaD1NiceXSdYSKnVRp-519" value="YES" style="edgeStyle=orthogonalEdgeStyle;rounded=0;orthogonalLoop=1;jettySize=auto;html=1;exitX=0.5;exitY=1;exitDx=0;exitDy=0;fontSize=15;fontColor=#000000;" parent="1" source="QDaaD1NiceXSdYSKnVRp-494" edge="1">
          <mxGeometry relative="1" as="geometry">
            <mxPoint x="-2230.0886241463663" y="-155.68114859201205" as="targetPoint" />
          </mxGeometry>
        </mxCell>
        <mxCell id="QDaaD1NiceXSdYSKnVRp-494" value="ARRAYLIST IS EMPTY" style="rhombus;whiteSpace=wrap;html=1;fontSize=15;rounded=1;labelBackgroundColor=none;fontColor=#000000;" parent="1" vertex="1">
          <mxGeometry x="-2296.102004168512" y="-326.5220021848793" width="132.83180126407345" height="110.54408173656113" as="geometry" />
        </mxCell>
        <mxCell id="QDaaD1NiceXSdYSKnVRp-518" style="edgeStyle=orthogonalEdgeStyle;rounded=0;orthogonalLoop=1;jettySize=auto;html=1;exitX=0.5;exitY=1;exitDx=0;exitDy=0;entryX=0.5;entryY=0;entryDx=0;entryDy=0;fontSize=15;fontColor=#000000;" parent="1" source="QDaaD1NiceXSdYSKnVRp-490" target="QDaaD1NiceXSdYSKnVRp-494" edge="1">
          <mxGeometry relative="1" as="geometry" />
        </mxCell>
        <mxCell id="QDaaD1NiceXSdYSKnVRp-499" value="DISPLAY &lt;br style=&quot;font-size: 15px;&quot;&gt;STORED GRADES" style="whiteSpace=wrap;html=1;fontSize=15;rounded=1;labelBackgroundColor=none;fontColor=#000000;" parent="1" vertex="1">
          <mxGeometry x="-2078.740874827301" y="-298.885981750739" width="169.0586561542753" height="60.296771856306066" as="geometry" />
        </mxCell>
        <mxCell id="QDaaD1NiceXSdYSKnVRp-521" value="NO" style="edgeStyle=orthogonalEdgeStyle;rounded=0;orthogonalLoop=1;jettySize=auto;html=1;exitX=1;exitY=0.5;exitDx=0;exitDy=0;entryX=0;entryY=0.458;entryDx=0;entryDy=0;entryPerimeter=0;fontSize=15;fontColor=#000000;" parent="1" source="QDaaD1NiceXSdYSKnVRp-494" target="QDaaD1NiceXSdYSKnVRp-499" edge="1">
          <mxGeometry relative="1" as="geometry" />
        </mxCell>
        <mxCell id="QDaaD1NiceXSdYSKnVRp-501" value="DISPLAY &lt;br style=&quot;font-size: 15px;&quot;&gt;NO STORED GRADE" style="whiteSpace=wrap;html=1;fontSize=15;rounded=1;labelBackgroundColor=none;fontColor=#000000;" parent="1" vertex="1">
          <mxGeometry x="-2296.102004168512" y="-145.63168661596126" width="144.90741956080743" height="60.296771856306066" as="geometry" />
        </mxCell>
        <mxCell id="QDaaD1NiceXSdYSKnVRp-510" value="SELECT STORED GRADES&lt;br&gt;FROM THE INDEX&lt;br&gt;0. GO BACK TO SELECTION" style="whiteSpace=wrap;html=1;fontSize=15;rounded=1;labelBackgroundColor=none;fontColor=#000000;" parent="1" vertex="1">
          <mxGeometry x="-2093.549813316879" y="-165.73070368195067" width="198.68" height="90.45" as="geometry" />
        </mxCell>
        <mxCell id="QDaaD1NiceXSdYSKnVRp-522" value="" style="edgeStyle=orthogonalEdgeStyle;rounded=0;orthogonalLoop=1;jettySize=auto;html=1;fontSize=15;fontColor=#000000;" parent="1" source="QDaaD1NiceXSdYSKnVRp-499" target="QDaaD1NiceXSdYSKnVRp-510" edge="1">
          <mxGeometry relative="1" as="geometry" />
        </mxCell>
        <mxCell id="QDaaD1NiceXSdYSKnVRp-520" value="" style="edgeStyle=orthogonalEdgeStyle;rounded=0;orthogonalLoop=1;jettySize=auto;html=1;fontSize=15;fontColor=#000000;entryX=-0.012;entryY=0.556;entryDx=0;entryDy=0;entryPerimeter=0;" parent="1" source="QDaaD1NiceXSdYSKnVRp-501" target="QDaaD1NiceXSdYSKnVRp-510" edge="1">
          <mxGeometry relative="1" as="geometry" />
        </mxCell>
        <mxCell id="QDaaD1NiceXSdYSKnVRp-528" value="YES" style="edgeStyle=orthogonalEdgeStyle;rounded=0;orthogonalLoop=1;jettySize=auto;html=1;fontSize=15;fontColor=#000000;" parent="1" source="QDaaD1NiceXSdYSKnVRp-512" edge="1">
          <mxGeometry relative="1" as="geometry">
            <mxPoint x="-1794.9638448540531" y="-35.08760487940003" as="targetPoint" />
          </mxGeometry>
        </mxCell>
        <mxCell id="QDaaD1NiceXSdYSKnVRp-512" value="SELECT = 0" style="rhombus;whiteSpace=wrap;html=1;fontSize=15;rounded=1;labelBackgroundColor=none;fontColor=#000000;" parent="1" vertex="1">
          <mxGeometry x="-1849.3041271893562" y="-165.73061056806318" width="108.68056467060556" height="90.44515778445911" as="geometry" />
        </mxCell>
        <mxCell id="QDaaD1NiceXSdYSKnVRp-526" value="" style="edgeStyle=orthogonalEdgeStyle;rounded=0;orthogonalLoop=1;jettySize=auto;html=1;fontSize=15;fontColor=#000000;" parent="1" source="QDaaD1NiceXSdYSKnVRp-510" target="QDaaD1NiceXSdYSKnVRp-512" edge="1">
          <mxGeometry relative="1" as="geometry" />
        </mxCell>
        <mxCell id="QDaaD1NiceXSdYSKnVRp-529" value="D" style="ellipse;whiteSpace=wrap;html=1;rounded=1;fontSize=15;labelBackgroundColor=none;fontColor=#000000;fillColor=#99FF33;" parent="1" vertex="1">
          <mxGeometry x="-1813.077272299154" y="-35.08760487940003" width="36.22685489020186" height="30.148385928153033" as="geometry" />
        </mxCell>
        <mxCell id="QDaaD1NiceXSdYSKnVRp-530" value="SELECT BASED &lt;br style=&quot;font-size: 15px;&quot;&gt;ON THE INDEX OF ARRAYLIST" style="rhombus;whiteSpace=wrap;html=1;fontSize=15;rounded=1;labelBackgroundColor=none;fontColor=#000000;" parent="1" vertex="1">
          <mxGeometry x="-1680.2454710350805" y="-185.82953452016523" width="169.0586561542753" height="130.64300568866315" as="geometry" />
        </mxCell>
        <mxCell id="QDaaD1NiceXSdYSKnVRp-531" value="NO" style="edgeStyle=orthogonalEdgeStyle;rounded=0;orthogonalLoop=1;jettySize=auto;html=1;fontSize=15;fontColor=#000000;" parent="1" source="QDaaD1NiceXSdYSKnVRp-512" target="QDaaD1NiceXSdYSKnVRp-530" edge="1">
          <mxGeometry relative="1" as="geometry" />
        </mxCell>
        <mxCell id="ZpDOq_AkJfc21H6hvF0D-17" value="" style="edgeStyle=orthogonalEdgeStyle;rounded=0;orthogonalLoop=1;jettySize=auto;html=1;fontSize=15;" parent="1" source="QDaaD1NiceXSdYSKnVRp-532" target="QDaaD1NiceXSdYSKnVRp-541" edge="1">
          <mxGeometry relative="1" as="geometry" />
        </mxCell>
        <mxCell id="QDaaD1NiceXSdYSKnVRp-532" value="DISPLAY STUDENT INFO AND GRADES WITH REMARK" style="whiteSpace=wrap;html=1;fontSize=15;rounded=1;labelBackgroundColor=none;fontColor=#000000;" parent="1" vertex="1">
          <mxGeometry x="-1668.169852738347" y="5.110243024804049" width="144.90741956080743" height="60.296771856306066" as="geometry" />
        </mxCell>
        <mxCell id="QDaaD1NiceXSdYSKnVRp-533" value="YES" style="edgeStyle=orthogonalEdgeStyle;rounded=0;orthogonalLoop=1;jettySize=auto;html=1;fontSize=15;fontColor=#000000;" parent="1" source="QDaaD1NiceXSdYSKnVRp-530" target="QDaaD1NiceXSdYSKnVRp-532" edge="1">
          <mxGeometry relative="1" as="geometry" />
        </mxCell>
        <mxCell id="QDaaD1NiceXSdYSKnVRp-534" value="CATCH &quot;MISMATCH EXCEPTION&quot; AND DISPLAY INVALID INPUT" style="whiteSpace=wrap;html=1;fontSize=15;rounded=1;labelBackgroundColor=none;fontColor=#000000;" parent="1" vertex="1">
          <mxGeometry x="-1462.689813316879" y="-164.11070368195067" width="168.67" height="87.2" as="geometry" />
        </mxCell>
        <mxCell id="2BWNQRPkYwBvRYqXmRoR-2" value="NO" style="edgeStyle=orthogonalEdgeStyle;rounded=0;orthogonalLoop=1;jettySize=auto;html=1;labelBackgroundColor=default;strokeColor=#000000;fontSize=15;fontColor=#000000;" parent="1" source="QDaaD1NiceXSdYSKnVRp-530" target="QDaaD1NiceXSdYSKnVRp-534" edge="1">
          <mxGeometry relative="1" as="geometry" />
        </mxCell>
        <mxCell id="2BWNQRPkYwBvRYqXmRoR-1" style="edgeStyle=orthogonalEdgeStyle;rounded=0;orthogonalLoop=1;jettySize=auto;html=1;exitX=0;exitY=0.5;exitDx=0;exitDy=0;labelBackgroundColor=default;strokeColor=#000000;fontSize=15;fontColor=#000000;" parent="1" source="QDaaD1NiceXSdYSKnVRp-536" edge="1">
          <mxGeometry relative="1" as="geometry">
            <mxPoint x="-2211.5726760913744" y="-471.9520733525888" as="targetPoint" />
          </mxGeometry>
        </mxCell>
        <mxCell id="QDaaD1NiceXSdYSKnVRp-536" value="N" style="ellipse;whiteSpace=wrap;html=1;rounded=1;fontSize=15;labelBackgroundColor=none;fontColor=#000000;fillColor=#D1EAFF;" parent="1" vertex="1">
          <mxGeometry x="-2139.118966310971" y="-487.3133938016955" width="36.22685489020186" height="30.148385928153033" as="geometry" />
        </mxCell>
        <mxCell id="QDaaD1NiceXSdYSKnVRp-538" value="N" style="ellipse;whiteSpace=wrap;html=1;rounded=1;fontSize=15;labelBackgroundColor=none;fontColor=#000000;fillColor=#D1EAFF;" parent="1" vertex="1">
          <mxGeometry x="-1396.468441061833" y="-35.08760487940003" width="36.22685489020186" height="30.148385928153033" as="geometry" />
        </mxCell>
        <mxCell id="QDaaD1NiceXSdYSKnVRp-541" value="N" style="ellipse;whiteSpace=wrap;html=1;rounded=1;fontSize=15;labelBackgroundColor=none;fontColor=#000000;fillColor=#D1EAFF;" parent="1" vertex="1">
          <mxGeometry x="-1613.8273795514108" y="99.76432476136539" width="36.22685489020186" height="30.148385928153033" as="geometry" />
        </mxCell>
        <mxCell id="2BWNQRPkYwBvRYqXmRoR-3" value="" style="edgeStyle=orthogonalEdgeStyle;rounded=0;orthogonalLoop=1;jettySize=auto;html=1;labelBackgroundColor=default;strokeColor=#000000;fontSize=15;fontColor=#000000;" parent="1" source="QDaaD1NiceXSdYSKnVRp-534" target="QDaaD1NiceXSdYSKnVRp-538" edge="1">
          <mxGeometry relative="1" as="geometry" />
        </mxCell>
        <mxCell id="QDaaD1NiceXSdYSKnVRp-233" value="ERROR" style="rhombus;whiteSpace=wrap;html=1;fontSize=15;fontColor=#000000;" parent="1" vertex="1">
          <mxGeometry x="-1237.5194116025407" y="-44.69818878652222" width="96.60494637387163" height="80.39569580840808" as="geometry" />
        </mxCell>
        <mxCell id="ZpDOq_AkJfc21H6hvF0D-12" value="" style="edgeStyle=orthogonalEdgeStyle;rounded=0;orthogonalLoop=1;jettySize=auto;html=1;fontSize=15;" parent="1" source="ZpDOq_AkJfc21H6hvF0D-7" target="QDaaD1NiceXSdYSKnVRp-60" edge="1">
          <mxGeometry relative="1" as="geometry" />
        </mxCell>
        <mxCell id="ZpDOq_AkJfc21H6hvF0D-7" value="DISPLAY&amp;nbsp; TEACHER USERNAME &amp;amp; PASSWORD" style="rounded=1;whiteSpace=wrap;html=1;fontSize=15;fontColor=#000000;labelBackgroundColor=none;" parent="1" vertex="1">
          <mxGeometry x="-1078.78" y="331.99" width="152.56" height="60" as="geometry" />
        </mxCell>
        <mxCell id="ZpDOq_AkJfc21H6hvF0D-13" value="" style="edgeStyle=orthogonalEdgeStyle;rounded=0;orthogonalLoop=1;jettySize=auto;html=1;fontSize=15;" parent="1" source="ZpDOq_AkJfc21H6hvF0D-10" target="QDaaD1NiceXSdYSKnVRp-81" edge="1">
          <mxGeometry relative="1" as="geometry" />
        </mxCell>
        <mxCell id="ZpDOq_AkJfc21H6hvF0D-10" value="DISPLAY&amp;nbsp; STUDENT NAME &amp;amp; LRN" style="rounded=1;whiteSpace=wrap;html=1;fontSize=15;fontColor=#000000;labelBackgroundColor=none;" parent="1" vertex="1">
          <mxGeometry x="-895.79" y="331.99" width="152.56" height="60" as="geometry" />
        </mxCell>
        <mxCell id="5gSp1KQb_ZRfuneygHe--57" style="edgeStyle=orthogonalEdgeStyle;rounded=0;orthogonalLoop=1;jettySize=auto;html=1;exitX=0.5;exitY=1;exitDx=0;exitDy=0;fontSize=13;" parent="1" source="UHbVIYiBqWWw2T04JiPW-28" target="QDaaD1NiceXSdYSKnVRp-233" edge="1">
          <mxGeometry relative="1" as="geometry" />
        </mxCell>
        <mxCell id="ZpDOq_AkJfc21H6hvF0D-9" value="" style="edgeStyle=orthogonalEdgeStyle;rounded=0;orthogonalLoop=1;jettySize=auto;html=1;fontSize=15;" parent="1" source="UHbVIYiBqWWw2T04JiPW-54" target="ZpDOq_AkJfc21H6hvF0D-7" edge="1">
          <mxGeometry relative="1" as="geometry" />
        </mxCell>
        <mxCell id="ZpDOq_AkJfc21H6hvF0D-11" value="" style="edgeStyle=orthogonalEdgeStyle;rounded=0;orthogonalLoop=1;jettySize=auto;html=1;fontSize=15;" parent="1" source="sO-kCsoZIU4TxNe5_Syn-13" target="ZpDOq_AkJfc21H6hvF0D-10" edge="1">
          <mxGeometry relative="1" as="geometry" />
        </mxCell>
        <mxCell id="raGrLXjCEWhN0ZExTV4A-1" value="&lt;div style=&quot;font-size: 15px;&quot;&gt;O&lt;/div&gt;" style="ellipse;whiteSpace=wrap;html=1;rounded=1;fontSize=15;labelBackgroundColor=none;align=center;fontColor=#000000;fillColor=#F1DEFF;" parent="1" vertex="1">
          <mxGeometry x="-1631.6867192286236" y="-644.1311065951" width="36.22685489020186" height="30.148385928153033" as="geometry" />
        </mxCell>
        <mxCell id="raGrLXjCEWhN0ZExTV4A-4" style="edgeStyle=orthogonalEdgeStyle;rounded=0;orthogonalLoop=1;jettySize=auto;html=1;exitX=0.5;exitY=1;exitDx=0;exitDy=0;" parent="1" source="raGrLXjCEWhN0ZExTV4A-3" edge="1">
          <mxGeometry relative="1" as="geometry">
            <mxPoint x="-1994.5652173913043" y="-750" as="targetPoint" />
          </mxGeometry>
        </mxCell>
        <mxCell id="raGrLXjCEWhN0ZExTV4A-3" value="&lt;div style=&quot;font-size: 15px;&quot;&gt;O&lt;/div&gt;" style="ellipse;whiteSpace=wrap;html=1;rounded=1;fontSize=15;labelBackgroundColor=none;align=center;fontColor=#000000;fillColor=#F1DEFF;" parent="1" vertex="1">
          <mxGeometry x="-2012.3267192286237" y="-827.0011065951" width="36.22685489020186" height="30.148385928153033" as="geometry" />
        </mxCell>
        <mxCell id="raGrLXjCEWhN0ZExTV4A-6" value="P" style="ellipse;whiteSpace=wrap;html=1;rounded=1;fontSize=15;labelBackgroundColor=none;fontColor=#000000;fillColor=#006633;" parent="1" vertex="1">
          <mxGeometry x="-1033.1291029622173" y="-391.71256124242296" width="36.22685489020186" height="30.148385928153033" as="geometry" />
        </mxCell>
        <mxCell id="raGrLXjCEWhN0ZExTV4A-8" style="edgeStyle=orthogonalEdgeStyle;rounded=0;orthogonalLoop=1;jettySize=auto;html=1;exitX=1;exitY=0.5;exitDx=0;exitDy=0;" parent="1" source="raGrLXjCEWhN0ZExTV4A-7" edge="1">
          <mxGeometry relative="1" as="geometry">
            <mxPoint x="-1200" y="-610" as="targetPoint" />
          </mxGeometry>
        </mxCell>
        <mxCell id="raGrLXjCEWhN0ZExTV4A-7" value="P" style="ellipse;whiteSpace=wrap;html=1;rounded=1;fontSize=15;labelBackgroundColor=none;fontColor=#000000;fillColor=#006633;" parent="1" vertex="1">
          <mxGeometry x="-1311.6891029622172" y="-625.9625612424229" width="36.22685489020186" height="30.148385928153033" as="geometry" />
        </mxCell>
      </root>
    </mxGraphModel>
  </diagram>
  <diagram id="OiJg0nkz2KYdSW2Yz2dA" name="Page-2">
    <mxGraphModel dx="3863" dy="2027" grid="1" gridSize="10" guides="1" tooltips="1" connect="1" arrows="1" fold="1" page="1" pageScale="1" pageWidth="1169" pageHeight="827" math="0" shadow="0">
      <root>
        <mxCell id="0" />
        <mxCell id="1" parent="0" />
        <mxCell id="JesoLZ9NKldVpr5t5dau-2" value="E" style="verticalLabelPosition=bottom;verticalAlign=top;html=1;shape=offPageConnector;rounded=0;size=0.5;fontFamily=Helvetica;fontSize=15;fontColor=#000000;align=center;strokeColor=default;fillColor=#33FFFF;container=0;" parent="1" vertex="1">
          <mxGeometry x="-1034.7486440677967" y="-500.00483443708606" width="37.6271186440678" height="30.397350993377486" as="geometry" />
        </mxCell>
        <mxCell id="JesoLZ9NKldVpr5t5dau-5" value="STUDENT &lt;br style=&quot;font-size: 15px;&quot;&gt;GRADED" style="rhombus;whiteSpace=wrap;html=1;fontSize=15;rounded=1;labelBackgroundColor=none;fontColor=#000000;container=0;" parent="1" vertex="1">
          <mxGeometry x="-1097.4605084745763" y="-287.5682781456953" width="163.05084745762713" height="91.19205298013246" as="geometry" />
        </mxCell>
        <mxCell id="JesoLZ9NKldVpr5t5dau-6" value="F" style="ellipse;whiteSpace=wrap;html=1;rounded=1;fontSize=15;labelBackgroundColor=none;fontColor=#000000;container=0;fillColor=#3399FF;" parent="1" vertex="1">
          <mxGeometry x="-1034.7486440677967" y="-44.38947019867538" width="37.6271186440678" height="30.397350993377486" as="geometry" />
        </mxCell>
        <mxCell id="JesoLZ9NKldVpr5t5dau-7" value="YES" style="edgeStyle=orthogonalEdgeStyle;rounded=0;orthogonalLoop=1;jettySize=auto;html=1;fontSize=15;fontColor=#000000;" parent="1" source="JesoLZ9NKldVpr5t5dau-9" edge="1">
          <mxGeometry relative="1" as="geometry">
            <mxPoint x="-620.850338983052" y="-241.97225165562912" as="targetPoint" />
          </mxGeometry>
        </mxCell>
        <mxCell id="JesoLZ9NKldVpr5t5dau-9" value="CONTAINS IN THE&lt;br style=&quot;font-size: 15px;&quot;&gt;ARRAYLIST" style="rhombus;whiteSpace=wrap;html=1;fontSize=15;rounded=1;labelBackgroundColor=none;fontColor=#000000;container=0;" parent="1" vertex="1">
          <mxGeometry x="-859.1554237288136" y="-287.5682781456953" width="163.05084745762713" height="91.19205298013246" as="geometry" />
        </mxCell>
        <mxCell id="JesoLZ9NKldVpr5t5dau-3" value="NO" style="edgeStyle=orthogonalEdgeStyle;rounded=0;orthogonalLoop=1;jettySize=auto;html=1;exitX=1;exitY=0.5;exitDx=0;exitDy=0;entryX=0;entryY=0.5;entryDx=0;entryDy=0;fontSize=15;fontColor=#000000;" parent="1" source="JesoLZ9NKldVpr5t5dau-5" target="JesoLZ9NKldVpr5t5dau-9" edge="1">
          <mxGeometry relative="1" as="geometry" />
        </mxCell>
        <mxCell id="xnHXBcFHECdrzZ-fq_bB-3" value="" style="edgeStyle=orthogonalEdgeStyle;rounded=0;orthogonalLoop=1;jettySize=auto;html=1;fontSize=15;" parent="1" source="JesoLZ9NKldVpr5t5dau-11" target="xnHXBcFHECdrzZ-fq_bB-2" edge="1">
          <mxGeometry relative="1" as="geometry" />
        </mxCell>
        <mxCell id="3GRu9rvs4QIIPpG4zuPr-1" value="" style="edgeStyle=orthogonalEdgeStyle;rounded=0;orthogonalLoop=1;jettySize=auto;html=1;" edge="1" parent="1" source="JesoLZ9NKldVpr5t5dau-11" target="xnHXBcFHECdrzZ-fq_bB-2">
          <mxGeometry relative="1" as="geometry" />
        </mxCell>
        <mxCell id="JesoLZ9NKldVpr5t5dau-11" value="&lt;span style=&quot;font-size: 15px;&quot;&gt;ADD IN &lt;br style=&quot;font-size: 15px;&quot;&gt;ARRALIST&lt;/span&gt;&lt;span style=&quot;font-size: 15px;&quot;&gt;&lt;br style=&quot;font-size: 15px;&quot;&gt;&lt;/span&gt;" style="whiteSpace=wrap;html=1;fontSize=15;rounded=1;labelBackgroundColor=none;fontColor=#000000;container=0;" parent="1" vertex="1">
          <mxGeometry x="-620.8503389830507" y="-277.43582781456945" width="163.05084745762713" height="60.79470198675497" as="geometry" />
        </mxCell>
        <mxCell id="JesoLZ9NKldVpr5t5dau-13" value="&lt;font style=&quot;font-size: 15px;&quot;&gt;WRONG STUDENT NAME OR LRN&lt;/font&gt;" style="whiteSpace=wrap;html=1;fontSize=15;rounded=1;labelBackgroundColor=none;fontColor=#000000;container=0;" parent="1" vertex="1">
          <mxGeometry x="-852.8842372881355" y="-145.71397350993374" width="150.5084745762712" height="60.79470198675497" as="geometry" />
        </mxCell>
        <mxCell id="JesoLZ9NKldVpr5t5dau-8" value="NO" style="edgeStyle=orthogonalEdgeStyle;rounded=0;orthogonalLoop=1;jettySize=auto;html=1;fontSize=15;fontColor=#000000;" parent="1" source="JesoLZ9NKldVpr5t5dau-9" target="JesoLZ9NKldVpr5t5dau-13" edge="1">
          <mxGeometry relative="1" as="geometry" />
        </mxCell>
        <mxCell id="JesoLZ9NKldVpr5t5dau-15" value="" style="edgeStyle=orthogonalEdgeStyle;rounded=0;orthogonalLoop=1;jettySize=auto;html=1;fontSize=15;fontColor=#000000;" parent="1" source="JesoLZ9NKldVpr5t5dau-16" target="JesoLZ9NKldVpr5t5dau-6" edge="1">
          <mxGeometry relative="1" as="geometry" />
        </mxCell>
        <mxCell id="JesoLZ9NKldVpr5t5dau-16" value="DISPLAY STUDENT HAS BEEN GRADED" style="whiteSpace=wrap;html=1;fontSize=15;rounded=1;labelBackgroundColor=none;fontColor=#000000;container=0;" parent="1" vertex="1">
          <mxGeometry x="-1091.1893220338984" y="-145.71397350993374" width="150.5084745762712" height="60.79470198675497" as="geometry" />
        </mxCell>
        <mxCell id="JesoLZ9NKldVpr5t5dau-4" value="YES" style="edgeStyle=orthogonalEdgeStyle;rounded=0;orthogonalLoop=1;jettySize=auto;html=1;fontSize=15;fontColor=#000000;" parent="1" source="JesoLZ9NKldVpr5t5dau-5" target="JesoLZ9NKldVpr5t5dau-16" edge="1">
          <mxGeometry relative="1" as="geometry" />
        </mxCell>
        <mxCell id="JesoLZ9NKldVpr5t5dau-17" value="F" style="ellipse;whiteSpace=wrap;html=1;rounded=1;fontSize=15;labelBackgroundColor=none;fontColor=#000000;container=0;fillColor=#3399FF;" parent="1" vertex="1">
          <mxGeometry x="-796.4435593220338" y="-44.38947019867538" width="37.6271186440678" height="30.397350993377486" as="geometry" />
        </mxCell>
        <mxCell id="JesoLZ9NKldVpr5t5dau-12" value="" style="edgeStyle=orthogonalEdgeStyle;rounded=0;orthogonalLoop=1;jettySize=auto;html=1;fontSize=15;fontColor=#000000;" parent="1" source="JesoLZ9NKldVpr5t5dau-13" target="JesoLZ9NKldVpr5t5dau-17" edge="1">
          <mxGeometry relative="1" as="geometry" />
        </mxCell>
        <mxCell id="JesoLZ9NKldVpr5t5dau-19" value="" style="edgeStyle=orthogonalEdgeStyle;rounded=0;orthogonalLoop=1;jettySize=auto;html=1;fontSize=15;fontColor=#000000;exitX=0.539;exitY=1.006;exitDx=0;exitDy=0;exitPerimeter=0;" parent="1" source="JesoLZ9NKldVpr5t5dau-20" target="JesoLZ9NKldVpr5t5dau-5" edge="1">
          <mxGeometry relative="1" as="geometry">
            <mxPoint x="-1009.6638983050847" y="-267.3033774834436" as="targetPoint" />
          </mxGeometry>
        </mxCell>
        <mxCell id="JesoLZ9NKldVpr5t5dau-20" value="INPUT&lt;br style=&quot;font-size: 15px;&quot;&gt;STUDENT&amp;nbsp;&lt;br style=&quot;font-size: 15px;&quot;&gt;NAME, LRN" style="shape=parallelogram;perimeter=parallelogramPerimeter;whiteSpace=wrap;html=1;fixedSize=1;fontFamily=Helvetica;fontSize=15;fontColor=#000000;align=center;strokeColor=default;fillColor=default;container=0;" parent="1" vertex="1">
          <mxGeometry x="-1097.4605084745763" y="-388.8927814569536" width="150.5084745762712" height="60.79470198675497" as="geometry" />
        </mxCell>
        <mxCell id="JesoLZ9NKldVpr5t5dau-1" value="" style="edgeStyle=orthogonalEdgeStyle;rounded=0;orthogonalLoop=1;jettySize=auto;html=1;fontSize=15;fontColor=#000000;entryX=0.542;entryY=0;entryDx=0;entryDy=0;entryPerimeter=0;" parent="1" source="JesoLZ9NKldVpr5t5dau-2" target="JesoLZ9NKldVpr5t5dau-20" edge="1">
          <mxGeometry relative="1" as="geometry" />
        </mxCell>
        <mxCell id="xnHXBcFHECdrzZ-fq_bB-4" style="edgeStyle=orthogonalEdgeStyle;rounded=0;orthogonalLoop=1;jettySize=auto;html=1;exitX=1;exitY=0.5;exitDx=0;exitDy=0;fontSize=15;" parent="1" source="JesoLZ9NKldVpr5t5dau-22" edge="1">
          <mxGeometry relative="1" as="geometry">
            <mxPoint x="-1020" y="-414.52173913043475" as="targetPoint" />
          </mxGeometry>
        </mxCell>
        <mxCell id="JesoLZ9NKldVpr5t5dau-22" value="F" style="ellipse;whiteSpace=wrap;html=1;rounded=1;fontSize=15;labelBackgroundColor=none;fontColor=#000000;container=0;fillColor=#3399FF;" parent="1" vertex="1">
          <mxGeometry x="-1147.63" y="-429.42503311258275" width="37.6271186440678" height="30.397350993377486" as="geometry" />
        </mxCell>
        <mxCell id="aHVj8BekIc4aH72RrsHI-2" value="INPUT&lt;br style=&quot;font-size: 15px;&quot;&gt;RAW SCORES" style="shape=parallelogram;perimeter=parallelogramPerimeter;whiteSpace=wrap;html=1;fixedSize=1;fontFamily=Helvetica;fontSize=15;fontColor=#000000;align=center;strokeColor=default;fillColor=default;container=0;" parent="1" vertex="1">
          <mxGeometry x="-1084.9203389830507" y="211.9799337748345" width="150.5084745762712" height="60.79470198675497" as="geometry" />
        </mxCell>
        <mxCell id="aHVj8BekIc4aH72RrsHI-4" value="COMPUTE&lt;br style=&quot;font-size: 15px;&quot;&gt;RAW SCORE &amp;gt;&amp;nbsp; PRE LIM GRADE" style="whiteSpace=wrap;html=1;rounded=1;fontSize=15;labelBackgroundColor=none;fontColor=#000000;container=0;" parent="1" vertex="1">
          <mxGeometry x="-582.3777966101694" y="411.5664900662253" width="125.42372881355934" height="60.79470198675497" as="geometry" />
        </mxCell>
        <mxCell id="aHVj8BekIc4aH72RrsHI-6" value="STORE GRADE &lt;br style=&quot;font-size: 15px;&quot;&gt;TO ARRAY" style="whiteSpace=wrap;html=1;rounded=1;fontSize=15;labelBackgroundColor=none;fontColor=#000000;container=0;" parent="1" vertex="1">
          <mxGeometry x="-582.3777966101694" y="495.68854304635784" width="125.42372881355934" height="60.79470198675497" as="geometry" />
        </mxCell>
        <mxCell id="aHVj8BekIc4aH72RrsHI-3" value="" style="edgeStyle=orthogonalEdgeStyle;rounded=1;orthogonalLoop=1;jettySize=auto;html=1;fontSize=15;labelBackgroundColor=none;fontColor=#000000;" parent="1" source="aHVj8BekIc4aH72RrsHI-4" target="aHVj8BekIc4aH72RrsHI-6" edge="1">
          <mxGeometry relative="1" as="geometry" />
        </mxCell>
        <mxCell id="aHVj8BekIc4aH72RrsHI-7" value="&lt;h1 style=&quot;font-size: 15px;&quot;&gt;&lt;span style=&quot;background-color: initial; font-size: 15px;&quot;&gt;GRADING SYSTEM&lt;/span&gt;&lt;/h1&gt;&lt;h1 style=&quot;font-size: 15px;&quot;&gt;&lt;span style=&quot;font-weight: normal; font-size: 15px;&quot;&gt;PRELIM = 20%&lt;span style=&quot;white-space: pre; font-size: 15px;&quot;&gt;	&lt;/span&gt;&lt;span style=&quot;white-space: pre; font-size: 15px;&quot;&gt;	&lt;/span&gt;PRE-FINALS = 20%&lt;/span&gt;&lt;/h1&gt;&lt;div style=&quot;font-size: 15px;&quot;&gt;MIDTERM = 20%&lt;span style=&quot;white-space: pre; font-size: 15px;&quot;&gt;	&lt;/span&gt;&lt;span style=&quot;white-space: pre; font-size: 15px;&quot;&gt;	&lt;/span&gt;&amp;nbsp; &amp;nbsp;FINALS = 40%&lt;/div&gt;" style="text;html=1;strokeColor=none;fillColor=none;spacing=5;spacingTop=-20;whiteSpace=wrap;overflow=hidden;rounded=1;fontSize=15;labelBorderColor=none;labelBackgroundColor=none;fontColor=#000000;container=0;" parent="1" vertex="1">
          <mxGeometry x="-859.1600000000001" y="101.11999999999999" width="331.7" height="90" as="geometry" />
        </mxCell>
        <mxCell id="aHVj8BekIc4aH72RrsHI-10" value="ERROR" style="rhombus;whiteSpace=wrap;html=1;fontSize=15;fontColor=#000000;container=0;" parent="1" vertex="1">
          <mxGeometry x="-1059.835593220339" y="293.0395364238411" width="100.33898305084747" height="81.05960264900662" as="geometry" />
        </mxCell>
        <mxCell id="aHVj8BekIc4aH72RrsHI-1" value="" style="edgeStyle=orthogonalEdgeStyle;rounded=0;orthogonalLoop=1;jettySize=auto;html=1;fontSize=15;fontColor=#000000;" parent="1" source="aHVj8BekIc4aH72RrsHI-2" target="aHVj8BekIc4aH72RrsHI-10" edge="1">
          <mxGeometry relative="1" as="geometry" />
        </mxCell>
        <mxCell id="aHVj8BekIc4aH72RrsHI-11" value="" style="edgeStyle=orthogonalEdgeStyle;rounded=0;orthogonalLoop=1;jettySize=auto;html=1;fontSize=15;fontColor=#000000;exitX=0.542;exitY=1.064;exitDx=0;exitDy=0;exitPerimeter=0;" parent="1" target="aHVj8BekIc4aH72RrsHI-17" edge="1">
          <mxGeometry relative="1" as="geometry">
            <mxPoint x="-1009.6159322033898" y="495.68854304635784" as="sourcePoint" />
          </mxGeometry>
        </mxCell>
        <mxCell id="aHVj8BekIc4aH72RrsHI-12" value="CATCH &quot;NON NUMERIC VALUE&quot;,&lt;br style=&quot;font-size: 15px;&quot;&gt;DISPLAY THE PRINT" style="rounded=1;whiteSpace=wrap;html=1;fontFamily=Helvetica;fontSize=15;fontColor=#000000;align=center;strokeColor=default;fillColor=default;container=0;" parent="1" vertex="1">
          <mxGeometry x="-1084.9203389830507" y="434.89384105960266" width="150.5084745762712" height="60.79470198675497" as="geometry" />
        </mxCell>
        <mxCell id="aHVj8BekIc4aH72RrsHI-8" value="YES" style="edgeStyle=orthogonalEdgeStyle;rounded=0;orthogonalLoop=1;jettySize=auto;html=1;fontSize=15;fontColor=#000000;" parent="1" source="aHVj8BekIc4aH72RrsHI-10" target="aHVj8BekIc4aH72RrsHI-12" edge="1">
          <mxGeometry relative="1" as="geometry" />
        </mxCell>
        <mxCell id="aHVj8BekIc4aH72RrsHI-15" value="SCORE &amp;gt;= 0 &amp;amp;&amp;amp; &amp;lt;= 100" style="rhombus;whiteSpace=wrap;html=1;labelBackgroundColor=none;labelBorderColor=none;fontSize=15;rounded=1;fontColor=#000000;container=0;" parent="1" vertex="1">
          <mxGeometry x="-896.7847457627117" y="293.0395364238411" width="225.7627118644068" height="81.05960264900662" as="geometry" />
        </mxCell>
        <mxCell id="aHVj8BekIc4aH72RrsHI-9" value="NO" style="edgeStyle=orthogonalEdgeStyle;rounded=0;orthogonalLoop=1;jettySize=auto;html=1;fontSize=15;fontColor=#000000;" parent="1" source="aHVj8BekIc4aH72RrsHI-10" target="aHVj8BekIc4aH72RrsHI-15" edge="1">
          <mxGeometry relative="1" as="geometry" />
        </mxCell>
        <mxCell id="aHVj8BekIc4aH72RrsHI-16" value="DISPLAY NUMBER IS NOT WITHIN THE TOTAL SCORE" style="whiteSpace=wrap;html=1;fontSize=15;labelBackgroundColor=none;labelBorderColor=none;rounded=1;fontColor=#000000;container=0;" parent="1" vertex="1">
          <mxGeometry x="-859.1576271186441" y="434.89384105960266" width="150.5084745762712" height="60.79470198675497" as="geometry" />
        </mxCell>
        <mxCell id="aHVj8BekIc4aH72RrsHI-13" value="NO" style="edgeStyle=orthogonalEdgeStyle;rounded=0;orthogonalLoop=1;jettySize=auto;html=1;fontSize=15;fontColor=#000000;" parent="1" source="aHVj8BekIc4aH72RrsHI-15" target="aHVj8BekIc4aH72RrsHI-16" edge="1">
          <mxGeometry relative="1" as="geometry" />
        </mxCell>
        <mxCell id="aHVj8BekIc4aH72RrsHI-17" value="G1" style="ellipse;whiteSpace=wrap;html=1;rounded=1;fontSize=15;labelBackgroundColor=none;fontColor=#000000;container=0;fillColor=#FF33FF;" parent="1" vertex="1">
          <mxGeometry x="-1028.4796610169492" y="542.4599337748343" width="37.6271186440678" height="30.397350993377486" as="geometry" />
        </mxCell>
        <mxCell id="aHVj8BekIc4aH72RrsHI-18" value="" style="edgeStyle=orthogonalEdgeStyle;rounded=0;orthogonalLoop=1;jettySize=auto;html=1;fontSize=15;fontColor=#000000;" parent="1" edge="1">
          <mxGeometry relative="1" as="geometry">
            <mxPoint x="-1009.6661016949151" y="196.7812582781457" as="targetPoint" />
            <mxPoint x="-1110.005084745763" y="196.78125827814577" as="sourcePoint" />
          </mxGeometry>
        </mxCell>
        <mxCell id="aHVj8BekIc4aH72RrsHI-19" value="G1" style="ellipse;whiteSpace=wrap;html=1;rounded=1;fontSize=15;labelBackgroundColor=none;fontColor=#000000;container=0;fillColor=#FF33FF;" parent="1" vertex="1">
          <mxGeometry x="-1147.6322033898305" y="181.58258278145703" width="37.6271186440678" height="30.397350993377486" as="geometry" />
        </mxCell>
        <mxCell id="aHVj8BekIc4aH72RrsHI-20" value="" style="edgeStyle=orthogonalEdgeStyle;rounded=0;orthogonalLoop=1;jettySize=auto;html=1;fontSize=15;fontColor=#000000;exitX=0.542;exitY=1.064;exitDx=0;exitDy=0;exitPerimeter=0;" parent="1" target="aHVj8BekIc4aH72RrsHI-21" edge="1">
          <mxGeometry relative="1" as="geometry">
            <mxPoint x="-783.853220338983" y="495.68854304635784" as="sourcePoint" />
          </mxGeometry>
        </mxCell>
        <mxCell id="aHVj8BekIc4aH72RrsHI-21" value="G1" style="ellipse;whiteSpace=wrap;html=1;rounded=1;fontSize=15;labelBackgroundColor=none;fontColor=#000000;container=0;fillColor=#FF33FF;" parent="1" vertex="1">
          <mxGeometry x="-802.7169491525424" y="542.4599337748346" width="37.6271186440678" height="30.397350993377486" as="geometry" />
        </mxCell>
        <mxCell id="aHVj8BekIc4aH72RrsHI-22" value="" style="edgeStyle=orthogonalEdgeStyle;rounded=0;orthogonalLoop=1;jettySize=auto;html=1;fontSize=15;fontColor=#000000;" parent="1" source="aHVj8BekIc4aH72RrsHI-23" target="aHVj8BekIc4aH72RrsHI-4" edge="1">
          <mxGeometry relative="1" as="geometry" />
        </mxCell>
        <mxCell id="aHVj8BekIc4aH72RrsHI-23" value="Will Repeat the while loop input raw scores until the last while loop has been broken" style="whiteSpace=wrap;html=1;rounded=1;fontSize=15;labelBackgroundColor=none;fontColor=#000000;container=0;" parent="1" vertex="1">
          <mxGeometry x="-611.7" y="294.47" width="184.07" height="75.43" as="geometry" />
        </mxCell>
        <mxCell id="aHVj8BekIc4aH72RrsHI-14" value="YES" style="edgeStyle=orthogonalEdgeStyle;rounded=0;orthogonalLoop=1;jettySize=auto;html=1;fontSize=15;fontColor=#000000;" parent="1" source="aHVj8BekIc4aH72RrsHI-15" target="aHVj8BekIc4aH72RrsHI-23" edge="1">
          <mxGeometry relative="1" as="geometry" />
        </mxCell>
        <mxCell id="aHVj8BekIc4aH72RrsHI-25" value="DISPLAY THE RESULT OF PRELIM GRADE" style="whiteSpace=wrap;html=1;fontSize=15;rounded=1;labelBackgroundColor=none;fontColor=#000000;container=0;" parent="1" vertex="1">
          <mxGeometry x="-582.3777966101694" y="583.8205960264902" width="125.42372881355934" height="60.79470198675497" as="geometry" />
        </mxCell>
        <mxCell id="aHVj8BekIc4aH72RrsHI-5" value="" style="edgeStyle=orthogonalEdgeStyle;rounded=0;orthogonalLoop=1;jettySize=auto;html=1;fontSize=15;fontColor=#000000;" parent="1" source="aHVj8BekIc4aH72RrsHI-6" target="aHVj8BekIc4aH72RrsHI-25" edge="1">
          <mxGeometry relative="1" as="geometry" />
        </mxCell>
        <mxCell id="aHVj8BekIc4aH72RrsHI-28" value="" style="edgeStyle=orthogonalEdgeStyle;rounded=0;orthogonalLoop=1;jettySize=auto;html=1;fontSize=15;fontColor=#000000;entryX=0.54;entryY=-0.002;entryDx=0;entryDy=0;entryPerimeter=0;" parent="1" source="aHVj8BekIc4aH72RrsHI-29" target="aHVj8BekIc4aH72RrsHI-2" edge="1">
          <mxGeometry relative="1" as="geometry" />
        </mxCell>
        <mxCell id="aHVj8BekIc4aH72RrsHI-29" value="METHOD&lt;br style=&quot;font-size: 15px;&quot;&gt;PRELIM" style="whiteSpace=wrap;html=1;rounded=1;fontSize=15;labelBackgroundColor=none;fontColor=#000000;container=0;" parent="1" vertex="1">
          <mxGeometry x="-1059.835593220339" y="120.78788079470209" width="112.8813559322034" height="50.66225165562914" as="geometry" />
        </mxCell>
        <mxCell id="aHVj8BekIc4aH72RrsHI-30" value="H" style="ellipse;whiteSpace=wrap;html=1;rounded=1;fontSize=15;labelBackgroundColor=none;fontColor=#000000;container=0;fillColor=#FF3399;" parent="1" vertex="1">
          <mxGeometry x="-538.4794915254239" y="680.7926490066227" width="37.6271186440678" height="30.397350993377486" as="geometry" />
        </mxCell>
        <mxCell id="aHVj8BekIc4aH72RrsHI-121" style="edgeStyle=orthogonalEdgeStyle;rounded=0;orthogonalLoop=1;jettySize=auto;html=1;exitX=0.5;exitY=1;exitDx=0;exitDy=0;fontSize=15;" parent="1" source="aHVj8BekIc4aH72RrsHI-25" target="aHVj8BekIc4aH72RrsHI-30" edge="1">
          <mxGeometry relative="1" as="geometry" />
        </mxCell>
        <mxCell id="2BAzl5Xvg-QzZpHQFBsf-1" value="&lt;h1 style=&quot;font-size: 15px;&quot;&gt;&lt;span style=&quot;background-color: initial; font-size: 15px;&quot;&gt;&lt;font style=&quot;font-size: 15px;&quot;&gt;CONNECTORS&lt;/font&gt;&lt;/span&gt;&lt;/h1&gt;&lt;h1 style=&quot;font-size: 15px;&quot;&gt;&lt;span style=&quot;font-size: 15px;&quot;&gt;F&lt;/span&gt;&lt;span style=&quot;font-weight: normal; font-size: 15px;&quot;&gt; = RE-DIRECT TO INPUT STUDENT NAME AND LRN&lt;/span&gt;&lt;/h1&gt;&lt;div&gt;&lt;h1 style=&quot;border-color: var(--border-color); font-size: 15px;&quot;&gt;&lt;span style=&quot;border-color: var(--border-color);&quot;&gt;G&lt;/span&gt;&lt;span style=&quot;border-color: var(--border-color); font-weight: normal;&quot;&gt; =&amp;nbsp;&lt;/span&gt;&lt;span style=&quot;font-weight: normal;&quot;&gt;METHOD PRELIM&lt;/span&gt;&lt;/h1&gt;&lt;/div&gt;&lt;div style=&quot;font-size: 15px;&quot;&gt;&lt;b style=&quot;font-size: 15px;&quot;&gt;G1&lt;/b&gt;&amp;nbsp;= RE-DIRECT TO PRELIM INPUT RAW SCORE&lt;/div&gt;&lt;h1 style=&quot;border-color: var(--border-color); font-size: 15px;&quot;&gt;&lt;span style=&quot;font-size: 15px;&quot;&gt;H&lt;/span&gt;&lt;span style=&quot;font-weight: normal; font-size: 15px;&quot;&gt; = METHOD MIDTERM&lt;/span&gt;&lt;/h1&gt;&lt;div style=&quot;font-size: 15px;&quot;&gt;&lt;h1 style=&quot;border-color: var(--border-color); font-size: 15px;&quot;&gt;&lt;span style=&quot;font-size: 15px;&quot;&gt;H1&lt;/span&gt;&lt;span style=&quot;font-weight: normal; font-size: 15px;&quot;&gt; =&amp;nbsp;RE-DIRECT TO MIDTERM INPUT RAW SCORE&lt;/span&gt;&lt;/h1&gt;&lt;/div&gt;&lt;div style=&quot;font-size: 15px;&quot;&gt;&lt;h1 style=&quot;border-color: var(--border-color); font-size: 15px;&quot;&gt;&lt;span style=&quot;font-size: 15px;&quot;&gt;I&lt;/span&gt;&lt;span style=&quot;font-weight: normal; font-size: 15px;&quot;&gt; = METHOD PRE-FINALS&lt;/span&gt;&lt;/h1&gt;&lt;/div&gt;&lt;div style=&quot;font-size: 15px;&quot;&gt;&lt;h1 style=&quot;border-color: var(--border-color); font-size: 15px;&quot;&gt;&lt;span style=&quot;font-size: 15px;&quot;&gt;I1&lt;/span&gt;&lt;span style=&quot;font-weight: normal; font-size: 15px;&quot;&gt; =&amp;nbsp;RE-DIRECT TO PRE-FINALS INPUT RAW SCORE&lt;/span&gt;&lt;/h1&gt;&lt;/div&gt;&lt;div style=&quot;font-size: 15px;&quot;&gt;&lt;h1 style=&quot;border-color: var(--border-color); font-size: 15px;&quot;&gt;&lt;span style=&quot;font-size: 15px;&quot;&gt;J &lt;/span&gt;&lt;span style=&quot;font-weight: normal; font-size: 15px;&quot;&gt;= METHOD FINALS&lt;/span&gt;&lt;/h1&gt;&lt;/div&gt;&lt;div style=&quot;font-size: 15px;&quot;&gt;&lt;span style=&quot;font-size: 15px;&quot;&gt;&lt;b style=&quot;font-size: 15px;&quot;&gt;J1&lt;/b&gt;&lt;/span&gt;&lt;span style=&quot;font-weight: normal; font-size: 15px;&quot;&gt; =&amp;nbsp;&lt;/span&gt;&lt;span style=&quot;background-color: initial; font-size: 15px;&quot;&gt;RE-DIRECT TO PRE-FINALS INPUT RAW SCORE&lt;/span&gt;&lt;/div&gt;&lt;div style=&quot;border-color: var(--border-color); font-size: 15px;&quot;&gt;&lt;h1 style=&quot;border-color: var(--border-color); font-size: 15px;&quot;&gt;&lt;span style=&quot;border-color: var(--border-color); font-size: 15px;&quot;&gt;K&lt;/span&gt;&lt;span style=&quot;border-color: var(--border-color); font-weight: normal; font-size: 15px;&quot;&gt; = GO TO&amp;nbsp; INPUT LRN CONFIRMATION&lt;/span&gt;&lt;/h1&gt;&lt;/div&gt;&lt;div style=&quot;border-color: var(--border-color); font-size: 15px;&quot;&gt;&lt;span style=&quot;border-color: var(--border-color); font-size: 15px;&quot;&gt;&lt;b style=&quot;font-size: 15px;&quot;&gt;L&lt;/b&gt; = GO TO NEXT DECISION BLOCK&lt;/span&gt;&lt;/div&gt;" style="text;html=1;strokeColor=none;fillColor=none;spacing=5;spacingTop=-20;whiteSpace=wrap;overflow=hidden;rounded=1;fontSize=15;labelBorderColor=none;labelBackgroundColor=none;fontColor=#000000;align=left;container=0;" parent="1" vertex="1">
          <mxGeometry x="-867.8" y="-790" width="410" height="340" as="geometry" />
        </mxCell>
        <mxCell id="xnHXBcFHECdrzZ-fq_bB-2" value="G" style="ellipse;whiteSpace=wrap;html=1;rounded=1;fontSize=15;labelBackgroundColor=none;fontColor=#000000;container=0;fillColor=#9933FF;" parent="1" vertex="1">
          <mxGeometry x="-558.1422033898305" y="-173.30741721854298" width="37.6271186440678" height="30.397350993377486" as="geometry" />
        </mxCell>
        <mxCell id="xnHXBcFHECdrzZ-fq_bB-19" value="" style="edgeStyle=orthogonalEdgeStyle;rounded=0;orthogonalLoop=1;jettySize=auto;html=1;fontSize=15;" parent="1" source="xnHXBcFHECdrzZ-fq_bB-18" target="aHVj8BekIc4aH72RrsHI-29" edge="1">
          <mxGeometry relative="1" as="geometry" />
        </mxCell>
        <mxCell id="xnHXBcFHECdrzZ-fq_bB-18" value="G" style="ellipse;whiteSpace=wrap;html=1;rounded=1;fontSize=15;labelBackgroundColor=none;fontColor=#000000;container=0;fillColor=#9933FF;" parent="1" vertex="1">
          <mxGeometry x="-1022.2122033898305" y="50.00258278145702" width="37.6271186440678" height="30.397350993377486" as="geometry" />
        </mxCell>
        <mxCell id="aHVj8BekIc4aH72RrsHI-32" value="INPUT&lt;br style=&quot;font-size: 15px;&quot;&gt;RAW SCORES" style="shape=parallelogram;perimeter=parallelogramPerimeter;whiteSpace=wrap;html=1;fixedSize=1;fontFamily=Helvetica;fontSize=15;fontColor=#000000;align=center;strokeColor=default;fillColor=default;container=0;" parent="1" vertex="1">
          <mxGeometry x="-327.2867796610168" y="251.24993377483452" width="150.5084745762712" height="60.79470198675497" as="geometry" />
        </mxCell>
        <mxCell id="aHVj8BekIc4aH72RrsHI-34" value="COMPUTE&lt;br style=&quot;font-size: 15px;&quot;&gt;RAW SCORE &amp;gt;&amp;nbsp; PRE LIM GRADE" style="whiteSpace=wrap;html=1;rounded=1;fontSize=15;labelBackgroundColor=none;fontColor=#000000;container=0;" parent="1" vertex="1">
          <mxGeometry x="191.19576271186452" y="443.7664900662253" width="125.42372881355934" height="60.79470198675497" as="geometry" />
        </mxCell>
        <mxCell id="aHVj8BekIc4aH72RrsHI-36" value="STORE GRADE &lt;br style=&quot;font-size: 15px;&quot;&gt;TO ARRAY" style="whiteSpace=wrap;html=1;rounded=1;fontSize=15;labelBackgroundColor=none;fontColor=#000000;container=0;" parent="1" vertex="1">
          <mxGeometry x="191.19576271186452" y="534.9585430463578" width="125.42372881355934" height="60.79470198675497" as="geometry" />
        </mxCell>
        <mxCell id="aHVj8BekIc4aH72RrsHI-33" value="" style="edgeStyle=orthogonalEdgeStyle;rounded=1;orthogonalLoop=1;jettySize=auto;html=1;fontSize=15;labelBackgroundColor=none;fontColor=#000000;" parent="1" source="aHVj8BekIc4aH72RrsHI-34" target="aHVj8BekIc4aH72RrsHI-36" edge="1">
          <mxGeometry relative="1" as="geometry" />
        </mxCell>
        <mxCell id="aHVj8BekIc4aH72RrsHI-39" value="ERROR" style="rhombus;whiteSpace=wrap;html=1;fontSize=15;fontColor=#000000;container=0;" parent="1" vertex="1">
          <mxGeometry x="-302.2020338983051" y="332.3095364238411" width="100.33898305084747" height="81.05960264900662" as="geometry" />
        </mxCell>
        <mxCell id="aHVj8BekIc4aH72RrsHI-31" value="" style="edgeStyle=orthogonalEdgeStyle;rounded=0;orthogonalLoop=1;jettySize=auto;html=1;fontSize=15;fontColor=#000000;" parent="1" source="aHVj8BekIc4aH72RrsHI-32" target="aHVj8BekIc4aH72RrsHI-39" edge="1">
          <mxGeometry relative="1" as="geometry" />
        </mxCell>
        <mxCell id="aHVj8BekIc4aH72RrsHI-40" value="" style="edgeStyle=orthogonalEdgeStyle;rounded=0;orthogonalLoop=1;jettySize=auto;html=1;fontSize=15;fontColor=#000000;exitX=0.542;exitY=1.064;exitDx=0;exitDy=0;exitPerimeter=0;" parent="1" target="aHVj8BekIc4aH72RrsHI-46" edge="1">
          <mxGeometry relative="1" as="geometry">
            <mxPoint x="-251.98237288135545" y="534.9585430463578" as="sourcePoint" />
          </mxGeometry>
        </mxCell>
        <mxCell id="aHVj8BekIc4aH72RrsHI-41" value="CATCH &quot;NON NUMERIC VALUE&quot;,&lt;br style=&quot;font-size: 15px;&quot;&gt;DISPLAY THE PRINT" style="rounded=1;whiteSpace=wrap;html=1;fontFamily=Helvetica;fontSize=15;fontColor=#000000;align=center;strokeColor=default;fillColor=default;container=0;" parent="1" vertex="1">
          <mxGeometry x="-327.2867796610168" y="474.1638410596026" width="150.5084745762712" height="60.79470198675497" as="geometry" />
        </mxCell>
        <mxCell id="aHVj8BekIc4aH72RrsHI-37" value="YES" style="edgeStyle=orthogonalEdgeStyle;rounded=0;orthogonalLoop=1;jettySize=auto;html=1;fontSize=15;fontColor=#000000;" parent="1" source="aHVj8BekIc4aH72RrsHI-39" target="aHVj8BekIc4aH72RrsHI-41" edge="1">
          <mxGeometry relative="1" as="geometry" />
        </mxCell>
        <mxCell id="aHVj8BekIc4aH72RrsHI-44" value="SCORE &amp;gt;= 0 &amp;amp;&amp;amp; &amp;lt;= 100" style="rhombus;whiteSpace=wrap;html=1;labelBackgroundColor=none;labelBorderColor=none;fontSize=15;rounded=1;fontColor=#000000;container=0;" parent="1" vertex="1">
          <mxGeometry x="-139.15118644067786" y="332.3095364238411" width="225.7627118644068" height="81.05960264900662" as="geometry" />
        </mxCell>
        <mxCell id="aHVj8BekIc4aH72RrsHI-38" value="NO" style="edgeStyle=orthogonalEdgeStyle;rounded=0;orthogonalLoop=1;jettySize=auto;html=1;fontSize=15;fontColor=#000000;" parent="1" source="aHVj8BekIc4aH72RrsHI-39" target="aHVj8BekIc4aH72RrsHI-44" edge="1">
          <mxGeometry relative="1" as="geometry" />
        </mxCell>
        <mxCell id="aHVj8BekIc4aH72RrsHI-45" value="DISPLAY NUMBER IS NOT WITHIN THE TOTAL SCORE" style="whiteSpace=wrap;html=1;fontSize=15;labelBackgroundColor=none;labelBorderColor=none;rounded=1;fontColor=#000000;container=0;" parent="1" vertex="1">
          <mxGeometry x="-101.52406779660998" y="474.1638410596026" width="150.5084745762712" height="60.79470198675497" as="geometry" />
        </mxCell>
        <mxCell id="aHVj8BekIc4aH72RrsHI-42" value="NO" style="edgeStyle=orthogonalEdgeStyle;rounded=0;orthogonalLoop=1;jettySize=auto;html=1;fontSize=15;fontColor=#000000;" parent="1" source="aHVj8BekIc4aH72RrsHI-44" target="aHVj8BekIc4aH72RrsHI-45" edge="1">
          <mxGeometry relative="1" as="geometry" />
        </mxCell>
        <mxCell id="aHVj8BekIc4aH72RrsHI-46" value="H1" style="ellipse;whiteSpace=wrap;html=1;rounded=1;fontSize=15;labelBackgroundColor=none;fontColor=#000000;container=0;fillColor=#FF9999;" parent="1" vertex="1">
          <mxGeometry x="-270.8461016949151" y="581.7299337748343" width="37.6271186440678" height="30.397350993377486" as="geometry" />
        </mxCell>
        <mxCell id="aHVj8BekIc4aH72RrsHI-47" value="" style="edgeStyle=orthogonalEdgeStyle;rounded=0;orthogonalLoop=1;jettySize=auto;html=1;fontSize=15;fontColor=#000000;" parent="1" source="aHVj8BekIc4aH72RrsHI-48" edge="1">
          <mxGeometry relative="1" as="geometry">
            <mxPoint x="-252.03254237288127" y="236.05125827814572" as="targetPoint" />
          </mxGeometry>
        </mxCell>
        <mxCell id="aHVj8BekIc4aH72RrsHI-48" value="H1" style="ellipse;whiteSpace=wrap;html=1;rounded=1;fontSize=15;labelBackgroundColor=none;fontColor=#000000;container=0;fillColor=#FF9999;" parent="1" vertex="1">
          <mxGeometry x="-389.99864406779636" y="220.85258278145704" width="37.6271186440678" height="30.397350993377486" as="geometry" />
        </mxCell>
        <mxCell id="aHVj8BekIc4aH72RrsHI-50" value="H1" style="ellipse;whiteSpace=wrap;html=1;rounded=1;fontSize=15;labelBackgroundColor=none;fontColor=#000000;container=0;fillColor=#FF9999;" parent="1" vertex="1">
          <mxGeometry x="-45.08338983050851" y="581.7299337748345" width="37.6271186440678" height="30.397350993377486" as="geometry" />
        </mxCell>
        <mxCell id="aHVj8BekIc4aH72RrsHI-120" style="edgeStyle=orthogonalEdgeStyle;rounded=0;orthogonalLoop=1;jettySize=auto;html=1;exitX=0.5;exitY=1;exitDx=0;exitDy=0;fontSize=15;" parent="1" source="aHVj8BekIc4aH72RrsHI-45" target="aHVj8BekIc4aH72RrsHI-50" edge="1">
          <mxGeometry relative="1" as="geometry" />
        </mxCell>
        <mxCell id="aHVj8BekIc4aH72RrsHI-54" value="DISPLAY THE RESULT OF MIDTERM GRADE" style="whiteSpace=wrap;html=1;fontSize=15;rounded=1;labelBackgroundColor=none;fontColor=#000000;container=0;" parent="1" vertex="1">
          <mxGeometry x="185.95000000000005" y="626.15" width="135.92" height="60.79" as="geometry" />
        </mxCell>
        <mxCell id="aHVj8BekIc4aH72RrsHI-56" value="H" style="ellipse;whiteSpace=wrap;html=1;rounded=1;fontSize=15;labelBackgroundColor=none;fontColor=#000000;container=0;fillColor=#FF3399;" parent="1" vertex="1">
          <mxGeometry x="-264.574915254237" y="78.9982781456954" width="37.6271186440678" height="30.397350993377486" as="geometry" />
        </mxCell>
        <mxCell id="aHVj8BekIc4aH72RrsHI-35" value="" style="edgeStyle=orthogonalEdgeStyle;rounded=0;orthogonalLoop=1;jettySize=auto;html=1;fontSize=15;fontColor=#000000;" parent="1" source="aHVj8BekIc4aH72RrsHI-36" target="aHVj8BekIc4aH72RrsHI-54" edge="1">
          <mxGeometry relative="1" as="geometry" />
        </mxCell>
        <mxCell id="aHVj8BekIc4aH72RrsHI-57" value="" style="edgeStyle=orthogonalEdgeStyle;rounded=0;orthogonalLoop=1;jettySize=auto;html=1;fontSize=15;fontColor=#000000;entryX=0.54;entryY=-0.002;entryDx=0;entryDy=0;entryPerimeter=0;" parent="1" source="aHVj8BekIc4aH72RrsHI-58" target="aHVj8BekIc4aH72RrsHI-32" edge="1">
          <mxGeometry relative="1" as="geometry" />
        </mxCell>
        <mxCell id="aHVj8BekIc4aH72RrsHI-58" value="METHOD&lt;br style=&quot;font-size: 15px;&quot;&gt;MIDTERM" style="whiteSpace=wrap;html=1;rounded=1;fontSize=15;labelBackgroundColor=none;fontColor=#000000;container=0;" parent="1" vertex="1">
          <mxGeometry x="-302.2020338983051" y="160.0578807947021" width="112.8813559322034" height="50.66225165562914" as="geometry" />
        </mxCell>
        <mxCell id="aHVj8BekIc4aH72RrsHI-55" value="" style="edgeStyle=orthogonalEdgeStyle;rounded=0;orthogonalLoop=1;jettySize=auto;html=1;fontSize=15;fontColor=#000000;" parent="1" source="aHVj8BekIc4aH72RrsHI-56" target="aHVj8BekIc4aH72RrsHI-58" edge="1">
          <mxGeometry relative="1" as="geometry" />
        </mxCell>
        <mxCell id="aHVj8BekIc4aH72RrsHI-123" value="I" style="ellipse;whiteSpace=wrap;html=1;rounded=1;fontSize=15;labelBackgroundColor=none;fontColor=#000000;container=0;fillColor=#FFCC99;" parent="1" vertex="1">
          <mxGeometry x="235.09406779661026" y="717.3426490066227" width="37.6271186440678" height="30.397350993377486" as="geometry" />
        </mxCell>
        <mxCell id="xnHXBcFHECdrzZ-fq_bB-8" value="" style="edgeStyle=orthogonalEdgeStyle;rounded=0;orthogonalLoop=1;jettySize=auto;html=1;fontSize=15;" parent="1" source="aHVj8BekIc4aH72RrsHI-54" target="aHVj8BekIc4aH72RrsHI-123" edge="1">
          <mxGeometry relative="1" as="geometry" />
        </mxCell>
        <mxCell id="xnHXBcFHECdrzZ-fq_bB-7" value="" style="edgeStyle=orthogonalEdgeStyle;rounded=0;orthogonalLoop=1;jettySize=auto;html=1;fontSize=15;" parent="1" source="xnHXBcFHECdrzZ-fq_bB-5" target="aHVj8BekIc4aH72RrsHI-34" edge="1">
          <mxGeometry relative="1" as="geometry" />
        </mxCell>
        <mxCell id="xnHXBcFHECdrzZ-fq_bB-5" value="Will Repeat the while loop input raw scores until the last while loop has been broken" style="whiteSpace=wrap;html=1;rounded=1;fontSize=15;labelBackgroundColor=none;fontColor=#000000;container=0;" parent="1" vertex="1">
          <mxGeometry x="161.87" y="335.12" width="184.07" height="75.43" as="geometry" />
        </mxCell>
        <mxCell id="xnHXBcFHECdrzZ-fq_bB-6" value="YES" style="edgeStyle=orthogonalEdgeStyle;rounded=0;orthogonalLoop=1;jettySize=auto;html=1;fontSize=15;" parent="1" source="aHVj8BekIc4aH72RrsHI-44" target="xnHXBcFHECdrzZ-fq_bB-5" edge="1">
          <mxGeometry relative="1" as="geometry" />
        </mxCell>
        <mxCell id="aHVj8BekIc4aH72RrsHI-61" value="INPUT&lt;br style=&quot;font-size: 15px;&quot;&gt;RAW SCORES" style="shape=parallelogram;perimeter=parallelogramPerimeter;whiteSpace=wrap;html=1;fixedSize=1;fontFamily=Helvetica;fontSize=15;fontColor=#000000;align=center;strokeColor=default;fillColor=default;container=0;" parent="1" vertex="1">
          <mxGeometry x="-357.2857627118643" y="-496.7466887417218" width="150.5084745762712" height="60.79470198675497" as="geometry" />
        </mxCell>
        <mxCell id="aHVj8BekIc4aH72RrsHI-63" value="COMPUTE&lt;br style=&quot;font-size: 15px;&quot;&gt;RAW SCORE &amp;gt;&amp;nbsp; PREFINALS GRADE" style="whiteSpace=wrap;html=1;rounded=1;fontSize=15;labelBackgroundColor=none;fontColor=#000000;container=0;" parent="1" vertex="1">
          <mxGeometry x="149.89" y="-304.23" width="148.03" height="60.79" as="geometry" />
        </mxCell>
        <mxCell id="aHVj8BekIc4aH72RrsHI-65" value="STORE GRADE &lt;br style=&quot;font-size: 15px;&quot;&gt;TO ARRAY" style="whiteSpace=wrap;html=1;rounded=1;fontSize=15;labelBackgroundColor=none;fontColor=#000000;container=0;" parent="1" vertex="1">
          <mxGeometry x="161.196779661017" y="-213.03807947019868" width="125.42372881355934" height="60.79470198675497" as="geometry" />
        </mxCell>
        <mxCell id="aHVj8BekIc4aH72RrsHI-62" value="" style="edgeStyle=orthogonalEdgeStyle;rounded=1;orthogonalLoop=1;jettySize=auto;html=1;fontSize=15;labelBackgroundColor=none;fontColor=#000000;" parent="1" source="aHVj8BekIc4aH72RrsHI-63" target="aHVj8BekIc4aH72RrsHI-65" edge="1">
          <mxGeometry relative="1" as="geometry" />
        </mxCell>
        <mxCell id="aHVj8BekIc4aH72RrsHI-68" value="ERROR" style="rhombus;whiteSpace=wrap;html=1;fontSize=15;fontColor=#000000;container=0;" parent="1" vertex="1">
          <mxGeometry x="-332.2010169491524" y="-415.6870860927152" width="100.33898305084747" height="81.05960264900662" as="geometry" />
        </mxCell>
        <mxCell id="aHVj8BekIc4aH72RrsHI-60" value="" style="edgeStyle=orthogonalEdgeStyle;rounded=0;orthogonalLoop=1;jettySize=auto;html=1;fontSize=15;fontColor=#000000;" parent="1" source="aHVj8BekIc4aH72RrsHI-61" target="aHVj8BekIc4aH72RrsHI-68" edge="1">
          <mxGeometry relative="1" as="geometry" />
        </mxCell>
        <mxCell id="aHVj8BekIc4aH72RrsHI-70" value="CATCH &quot;NON NUMERIC VALUE&quot;,&lt;br style=&quot;font-size: 15px;&quot;&gt;DISPLAY THE PRINT" style="rounded=1;whiteSpace=wrap;html=1;fontFamily=Helvetica;fontSize=15;fontColor=#000000;align=center;strokeColor=default;fillColor=default;container=0;" parent="1" vertex="1">
          <mxGeometry x="-357.2857627118643" y="-273.8327814569536" width="150.5084745762712" height="60.79470198675497" as="geometry" />
        </mxCell>
        <mxCell id="aHVj8BekIc4aH72RrsHI-66" value="YES" style="edgeStyle=orthogonalEdgeStyle;rounded=0;orthogonalLoop=1;jettySize=auto;html=1;fontSize=15;fontColor=#000000;" parent="1" source="aHVj8BekIc4aH72RrsHI-68" target="aHVj8BekIc4aH72RrsHI-70" edge="1">
          <mxGeometry relative="1" as="geometry" />
        </mxCell>
        <mxCell id="aHVj8BekIc4aH72RrsHI-73" value="SCORE &amp;gt;= 0 &amp;amp;&amp;amp; &amp;lt;= 100" style="rhombus;whiteSpace=wrap;html=1;labelBackgroundColor=none;labelBorderColor=none;fontSize=15;rounded=1;fontColor=#000000;container=0;" parent="1" vertex="1">
          <mxGeometry x="-169.15016949152533" y="-415.6870860927152" width="225.7627118644068" height="81.05960264900662" as="geometry" />
        </mxCell>
        <mxCell id="aHVj8BekIc4aH72RrsHI-67" value="NO" style="edgeStyle=orthogonalEdgeStyle;rounded=0;orthogonalLoop=1;jettySize=auto;html=1;fontSize=15;fontColor=#000000;" parent="1" source="aHVj8BekIc4aH72RrsHI-68" target="aHVj8BekIc4aH72RrsHI-73" edge="1">
          <mxGeometry relative="1" as="geometry" />
        </mxCell>
        <mxCell id="aHVj8BekIc4aH72RrsHI-74" value="DISPLAY NUMBER IS NOT WITHIN THE TOTAL SCORE" style="whiteSpace=wrap;html=1;fontSize=15;labelBackgroundColor=none;labelBorderColor=none;rounded=1;fontColor=#000000;container=0;" parent="1" vertex="1">
          <mxGeometry x="-131.52305084745768" y="-273.8327814569536" width="150.5084745762712" height="60.79470198675497" as="geometry" />
        </mxCell>
        <mxCell id="aHVj8BekIc4aH72RrsHI-71" value="NO" style="edgeStyle=orthogonalEdgeStyle;rounded=0;orthogonalLoop=1;jettySize=auto;html=1;fontSize=15;fontColor=#000000;" parent="1" source="aHVj8BekIc4aH72RrsHI-73" target="aHVj8BekIc4aH72RrsHI-74" edge="1">
          <mxGeometry relative="1" as="geometry" />
        </mxCell>
        <mxCell id="aHVj8BekIc4aH72RrsHI-75" value="I1" style="ellipse;whiteSpace=wrap;html=1;rounded=1;fontSize=15;labelBackgroundColor=none;fontColor=#000000;container=0;fillColor=#CCFF99;" parent="1" vertex="1">
          <mxGeometry x="-294.57389830508464" y="-162.37582781456945" width="37.6271186440678" height="30.397350993377486" as="geometry" />
        </mxCell>
        <mxCell id="aHVj8BekIc4aH72RrsHI-69" value="" style="edgeStyle=orthogonalEdgeStyle;rounded=0;orthogonalLoop=1;jettySize=auto;html=1;fontSize=15;fontColor=#000000;exitX=0.542;exitY=1.064;exitDx=0;exitDy=0;exitPerimeter=0;" parent="1" source="aHVj8BekIc4aH72RrsHI-70" target="aHVj8BekIc4aH72RrsHI-75" edge="1">
          <mxGeometry relative="1" as="geometry" />
        </mxCell>
        <mxCell id="aHVj8BekIc4aH72RrsHI-76" value="" style="edgeStyle=orthogonalEdgeStyle;rounded=0;orthogonalLoop=1;jettySize=auto;html=1;fontSize=15;fontColor=#000000;" parent="1" source="aHVj8BekIc4aH72RrsHI-77" edge="1">
          <mxGeometry relative="1" as="geometry">
            <mxPoint x="-282.0315254237287" y="-511.94536423841043" as="targetPoint" />
          </mxGeometry>
        </mxCell>
        <mxCell id="aHVj8BekIc4aH72RrsHI-77" value="I1" style="ellipse;whiteSpace=wrap;html=1;rounded=1;fontSize=15;labelBackgroundColor=none;fontColor=#000000;container=0;fillColor=#CCFF99;" parent="1" vertex="1">
          <mxGeometry x="-419.997627118644" y="-527.1440397350992" width="37.6271186440678" height="30.397350993377486" as="geometry" />
        </mxCell>
        <mxCell id="aHVj8BekIc4aH72RrsHI-78" value="" style="edgeStyle=orthogonalEdgeStyle;rounded=0;orthogonalLoop=1;jettySize=auto;html=1;fontSize=15;fontColor=#000000;exitX=0.542;exitY=1.064;exitDx=0;exitDy=0;exitPerimeter=0;" parent="1" target="aHVj8BekIc4aH72RrsHI-79" edge="1">
          <mxGeometry relative="1" as="geometry">
            <mxPoint x="-49.94745762711847" y="-213.03807947019868" as="sourcePoint" />
          </mxGeometry>
        </mxCell>
        <mxCell id="aHVj8BekIc4aH72RrsHI-79" value="I1" style="ellipse;whiteSpace=wrap;html=1;rounded=1;fontSize=15;labelBackgroundColor=none;fontColor=#000000;container=0;fillColor=#CCFF99;" parent="1" vertex="1">
          <mxGeometry x="-68.81118644067789" y="-166.26668874172174" width="37.6271186440678" height="30.397350993377486" as="geometry" />
        </mxCell>
        <mxCell id="aHVj8BekIc4aH72RrsHI-83" value="DISPLAY THE RESULT OF PREFINALS GRADE" style="whiteSpace=wrap;html=1;fontSize=15;rounded=1;labelBackgroundColor=none;fontColor=#000000;container=0;" parent="1" vertex="1">
          <mxGeometry x="149.78999999999996" y="-119.24000000000001" width="148.13" height="55.59" as="geometry" />
        </mxCell>
        <mxCell id="aHVj8BekIc4aH72RrsHI-64" value="" style="edgeStyle=orthogonalEdgeStyle;rounded=0;orthogonalLoop=1;jettySize=auto;html=1;fontSize=15;fontColor=#000000;" parent="1" source="aHVj8BekIc4aH72RrsHI-65" target="aHVj8BekIc4aH72RrsHI-83" edge="1">
          <mxGeometry relative="1" as="geometry" />
        </mxCell>
        <mxCell id="aHVj8BekIc4aH72RrsHI-85" value="I" style="ellipse;whiteSpace=wrap;html=1;rounded=1;fontSize=15;labelBackgroundColor=none;fontColor=#000000;container=0;fillColor=#FFCC99;" parent="1" vertex="1">
          <mxGeometry x="-294.57389830508464" y="-668.9983443708608" width="37.6271186440678" height="30.397350993377486" as="geometry" />
        </mxCell>
        <mxCell id="aHVj8BekIc4aH72RrsHI-86" value="" style="edgeStyle=orthogonalEdgeStyle;rounded=0;orthogonalLoop=1;jettySize=auto;html=1;fontSize=15;fontColor=#000000;entryX=0.54;entryY=-0.002;entryDx=0;entryDy=0;entryPerimeter=0;" parent="1" source="aHVj8BekIc4aH72RrsHI-87" target="aHVj8BekIc4aH72RrsHI-61" edge="1">
          <mxGeometry relative="1" as="geometry" />
        </mxCell>
        <mxCell id="aHVj8BekIc4aH72RrsHI-87" value="METHOD&lt;br style=&quot;font-size: 15px;&quot;&gt;PREFINALS" style="whiteSpace=wrap;html=1;rounded=1;fontSize=15;labelBackgroundColor=none;fontColor=#000000;container=0;" parent="1" vertex="1">
          <mxGeometry x="-332.2010169491524" y="-587.9387417218542" width="112.8813559322034" height="50.66225165562914" as="geometry" />
        </mxCell>
        <mxCell id="aHVj8BekIc4aH72RrsHI-84" value="" style="edgeStyle=orthogonalEdgeStyle;rounded=0;orthogonalLoop=1;jettySize=auto;html=1;fontSize=15;fontColor=#000000;" parent="1" source="aHVj8BekIc4aH72RrsHI-85" target="aHVj8BekIc4aH72RrsHI-87" edge="1">
          <mxGeometry relative="1" as="geometry" />
        </mxCell>
        <mxCell id="aHVj8BekIc4aH72RrsHI-88" value="J" style="ellipse;whiteSpace=wrap;html=1;rounded=1;fontSize=15;labelBackgroundColor=none;fontColor=#000000;container=0;fillColor=#CCFFE6;" parent="1" vertex="1">
          <mxGeometry x="205.04084745762725" y="-30.653973509933735" width="37.6271186440678" height="30.397350993377486" as="geometry" />
        </mxCell>
        <mxCell id="aHVj8BekIc4aH72RrsHI-125" style="edgeStyle=orthogonalEdgeStyle;rounded=0;orthogonalLoop=1;jettySize=auto;html=1;exitX=0.5;exitY=1;exitDx=0;exitDy=0;entryX=0.5;entryY=0;entryDx=0;entryDy=0;fontSize=15;" parent="1" source="aHVj8BekIc4aH72RrsHI-83" target="aHVj8BekIc4aH72RrsHI-88" edge="1">
          <mxGeometry relative="1" as="geometry" />
        </mxCell>
        <mxCell id="xnHXBcFHECdrzZ-fq_bB-11" value="" style="edgeStyle=orthogonalEdgeStyle;rounded=0;orthogonalLoop=1;jettySize=auto;html=1;fontSize=15;" parent="1" source="xnHXBcFHECdrzZ-fq_bB-9" target="aHVj8BekIc4aH72RrsHI-63" edge="1">
          <mxGeometry relative="1" as="geometry" />
        </mxCell>
        <mxCell id="xnHXBcFHECdrzZ-fq_bB-9" value="Will Repeat the while loop input raw scores until the last while loop has been broken" style="whiteSpace=wrap;html=1;rounded=1;fontSize=15;labelBackgroundColor=none;fontColor=#000000;container=0;" parent="1" vertex="1">
          <mxGeometry x="131.87" y="-412.86999999999983" width="184.07" height="75.43" as="geometry" />
        </mxCell>
        <mxCell id="xnHXBcFHECdrzZ-fq_bB-12" value="YES" style="edgeStyle=orthogonalEdgeStyle;rounded=0;orthogonalLoop=1;jettySize=auto;html=1;fontSize=15;" parent="1" source="aHVj8BekIc4aH72RrsHI-73" target="xnHXBcFHECdrzZ-fq_bB-9" edge="1">
          <mxGeometry relative="1" as="geometry" />
        </mxCell>
        <mxCell id="aHVj8BekIc4aH72RrsHI-114" value="J" style="ellipse;whiteSpace=wrap;html=1;rounded=1;fontSize=15;labelBackgroundColor=none;fontColor=#000000;container=0;fillColor=#CCFFE6;" parent="1" vertex="1">
          <mxGeometry x="475.42559322033895" y="-668.9983443708609" width="37.6271186440678" height="30.397350993377486" as="geometry" />
        </mxCell>
        <mxCell id="aHVj8BekIc4aH72RrsHI-113" value="" style="edgeStyle=orthogonalEdgeStyle;rounded=0;orthogonalLoop=1;jettySize=auto;html=1;fontSize=15;fontColor=#000000;" parent="1" source="aHVj8BekIc4aH72RrsHI-114" target="aHVj8BekIc4aH72RrsHI-116" edge="1">
          <mxGeometry relative="1" as="geometry" />
        </mxCell>
        <mxCell id="aHVj8BekIc4aH72RrsHI-90" value="INPUT&lt;br style=&quot;font-size: 15px;&quot;&gt;RAW SCORES" style="shape=parallelogram;perimeter=parallelogramPerimeter;whiteSpace=wrap;html=1;fixedSize=1;fontFamily=Helvetica;fontSize=15;fontColor=#000000;align=center;strokeColor=default;fillColor=default;container=0;" parent="1" vertex="1">
          <mxGeometry x="412.7137288135596" y="-496.7466887417218" width="150.5084745762712" height="60.79470198675497" as="geometry" />
        </mxCell>
        <mxCell id="aHVj8BekIc4aH72RrsHI-92" value="COMPUTE&lt;br style=&quot;font-size: 15px;&quot;&gt;RAW SCORE &amp;gt;&amp;nbsp; FINALS GRADE" style="whiteSpace=wrap;html=1;rounded=1;fontSize=15;labelBackgroundColor=none;fontColor=#000000;container=0;" parent="1" vertex="1">
          <mxGeometry x="931.6162711864408" y="-304.2301324503311" width="125.42372881355934" height="60.79470198675497" as="geometry" />
        </mxCell>
        <mxCell id="aHVj8BekIc4aH72RrsHI-94" value="STORE GRADE &lt;br style=&quot;font-size: 15px;&quot;&gt;TO ARRAY" style="whiteSpace=wrap;html=1;rounded=1;fontSize=15;labelBackgroundColor=none;fontColor=#000000;container=0;" parent="1" vertex="1">
          <mxGeometry x="931.6162711864408" y="-213.03807947019868" width="125.42372881355934" height="60.79470198675497" as="geometry" />
        </mxCell>
        <mxCell id="aHVj8BekIc4aH72RrsHI-91" value="" style="edgeStyle=orthogonalEdgeStyle;rounded=1;orthogonalLoop=1;jettySize=auto;html=1;fontSize=15;labelBackgroundColor=none;fontColor=#000000;" parent="1" source="aHVj8BekIc4aH72RrsHI-92" target="aHVj8BekIc4aH72RrsHI-94" edge="1">
          <mxGeometry relative="1" as="geometry" />
        </mxCell>
        <mxCell id="aHVj8BekIc4aH72RrsHI-97" value="ERROR" style="rhombus;whiteSpace=wrap;html=1;fontSize=15;fontColor=#000000;container=0;" parent="1" vertex="1">
          <mxGeometry x="437.7984745762713" y="-415.6870860927152" width="100.33898305084747" height="81.05960264900662" as="geometry" />
        </mxCell>
        <mxCell id="aHVj8BekIc4aH72RrsHI-89" value="" style="edgeStyle=orthogonalEdgeStyle;rounded=0;orthogonalLoop=1;jettySize=auto;html=1;fontSize=15;fontColor=#000000;" parent="1" source="aHVj8BekIc4aH72RrsHI-90" target="aHVj8BekIc4aH72RrsHI-97" edge="1">
          <mxGeometry relative="1" as="geometry" />
        </mxCell>
        <mxCell id="aHVj8BekIc4aH72RrsHI-99" value="CATCH &quot;NON NUMERIC VALUE&quot;,&lt;br style=&quot;font-size: 15px;&quot;&gt;DISPLAY THE PRINT" style="rounded=1;whiteSpace=wrap;html=1;fontFamily=Helvetica;fontSize=15;fontColor=#000000;align=center;strokeColor=default;fillColor=default;container=0;" parent="1" vertex="1">
          <mxGeometry x="412.7137288135596" y="-273.8327814569536" width="150.5084745762712" height="60.79470198675497" as="geometry" />
        </mxCell>
        <mxCell id="aHVj8BekIc4aH72RrsHI-95" value="YES" style="edgeStyle=orthogonalEdgeStyle;rounded=0;orthogonalLoop=1;jettySize=auto;html=1;fontSize=15;fontColor=#000000;" parent="1" source="aHVj8BekIc4aH72RrsHI-97" target="aHVj8BekIc4aH72RrsHI-99" edge="1">
          <mxGeometry relative="1" as="geometry" />
        </mxCell>
        <mxCell id="aHVj8BekIc4aH72RrsHI-102" value="SCORE &amp;gt;= 0 &amp;amp;&amp;amp; &amp;lt;= 100" style="rhombus;whiteSpace=wrap;html=1;labelBackgroundColor=none;labelBorderColor=none;fontSize=15;rounded=1;fontColor=#000000;container=0;" parent="1" vertex="1">
          <mxGeometry x="600.8493220338983" y="-415.6870860927152" width="225.7627118644068" height="81.05960264900662" as="geometry" />
        </mxCell>
        <mxCell id="aHVj8BekIc4aH72RrsHI-96" value="NO" style="edgeStyle=orthogonalEdgeStyle;rounded=0;orthogonalLoop=1;jettySize=auto;html=1;fontSize=15;fontColor=#000000;" parent="1" source="aHVj8BekIc4aH72RrsHI-97" target="aHVj8BekIc4aH72RrsHI-102" edge="1">
          <mxGeometry relative="1" as="geometry" />
        </mxCell>
        <mxCell id="aHVj8BekIc4aH72RrsHI-103" value="DISPLAY NUMBER IS NOT WITHIN THE TOTAL SCORE" style="whiteSpace=wrap;html=1;fontSize=15;labelBackgroundColor=none;labelBorderColor=none;rounded=1;fontColor=#000000;container=0;" parent="1" vertex="1">
          <mxGeometry x="638.4764406779664" y="-273.8327814569536" width="150.5084745762712" height="60.79470198675497" as="geometry" />
        </mxCell>
        <mxCell id="aHVj8BekIc4aH72RrsHI-100" value="NO" style="edgeStyle=orthogonalEdgeStyle;rounded=0;orthogonalLoop=1;jettySize=auto;html=1;fontSize=15;fontColor=#000000;" parent="1" source="aHVj8BekIc4aH72RrsHI-102" target="aHVj8BekIc4aH72RrsHI-103" edge="1">
          <mxGeometry relative="1" as="geometry" />
        </mxCell>
        <mxCell id="aHVj8BekIc4aH72RrsHI-104" value="J1" style="ellipse;whiteSpace=wrap;html=1;rounded=1;fontSize=15;labelBackgroundColor=none;fontColor=#000000;container=0;fillColor=#CCE5FF;" parent="1" vertex="1">
          <mxGeometry x="475.42559322033895" y="-162.37582781456945" width="37.6271186440678" height="30.397350993377486" as="geometry" />
        </mxCell>
        <mxCell id="aHVj8BekIc4aH72RrsHI-98" value="" style="edgeStyle=orthogonalEdgeStyle;rounded=0;orthogonalLoop=1;jettySize=auto;html=1;fontSize=15;fontColor=#000000;exitX=0.542;exitY=1.064;exitDx=0;exitDy=0;exitPerimeter=0;" parent="1" source="aHVj8BekIc4aH72RrsHI-99" target="aHVj8BekIc4aH72RrsHI-104" edge="1">
          <mxGeometry relative="1" as="geometry" />
        </mxCell>
        <mxCell id="aHVj8BekIc4aH72RrsHI-105" value="" style="edgeStyle=orthogonalEdgeStyle;rounded=0;orthogonalLoop=1;jettySize=auto;html=1;fontSize=15;fontColor=#000000;" parent="1" source="aHVj8BekIc4aH72RrsHI-106" edge="1">
          <mxGeometry relative="1" as="geometry">
            <mxPoint x="487.96796610169514" y="-511.94536423841055" as="targetPoint" />
          </mxGeometry>
        </mxCell>
        <mxCell id="aHVj8BekIc4aH72RrsHI-106" value="J1" style="ellipse;whiteSpace=wrap;html=1;rounded=1;fontSize=15;labelBackgroundColor=none;fontColor=#000000;container=0;fillColor=#CCE5FF;" parent="1" vertex="1">
          <mxGeometry x="350.0018644067798" y="-527.1440397350993" width="37.6271186440678" height="30.397350993377486" as="geometry" />
        </mxCell>
        <mxCell id="aHVj8BekIc4aH72RrsHI-107" value="" style="edgeStyle=orthogonalEdgeStyle;rounded=0;orthogonalLoop=1;jettySize=auto;html=1;fontSize=15;fontColor=#000000;exitX=0.542;exitY=1.064;exitDx=0;exitDy=0;exitPerimeter=0;" parent="1" target="aHVj8BekIc4aH72RrsHI-108" edge="1">
          <mxGeometry relative="1" as="geometry">
            <mxPoint x="720.0520338983051" y="-213.03807947019868" as="sourcePoint" />
          </mxGeometry>
        </mxCell>
        <mxCell id="aHVj8BekIc4aH72RrsHI-108" value="J1" style="ellipse;whiteSpace=wrap;html=1;rounded=1;fontSize=15;labelBackgroundColor=none;fontColor=#000000;container=0;fillColor=#CCE5FF;" parent="1" vertex="1">
          <mxGeometry x="701.1883050847459" y="-166.26668874172174" width="37.6271186440678" height="30.397350993377486" as="geometry" />
        </mxCell>
        <mxCell id="aHVj8BekIc4aH72RrsHI-112" value="DISPLAY THE RESULT OF&amp;nbsp; FINALS GRADE" style="whiteSpace=wrap;html=1;fontSize=15;rounded=1;labelBackgroundColor=none;fontColor=#000000;container=0;" parent="1" vertex="1">
          <mxGeometry x="931.6162711864408" y="-121.25602649006612" width="125.42372881355934" height="60.79470198675497" as="geometry" />
        </mxCell>
        <mxCell id="aHVj8BekIc4aH72RrsHI-93" value="" style="edgeStyle=orthogonalEdgeStyle;rounded=0;orthogonalLoop=1;jettySize=auto;html=1;fontSize=15;fontColor=#000000;" parent="1" source="aHVj8BekIc4aH72RrsHI-94" target="aHVj8BekIc4aH72RrsHI-112" edge="1">
          <mxGeometry relative="1" as="geometry" />
        </mxCell>
        <mxCell id="aHVj8BekIc4aH72RrsHI-115" value="" style="edgeStyle=orthogonalEdgeStyle;rounded=0;orthogonalLoop=1;jettySize=auto;html=1;fontSize=15;fontColor=#000000;entryX=0.54;entryY=-0.002;entryDx=0;entryDy=0;entryPerimeter=0;" parent="1" source="aHVj8BekIc4aH72RrsHI-116" target="aHVj8BekIc4aH72RrsHI-90" edge="1">
          <mxGeometry relative="1" as="geometry" />
        </mxCell>
        <mxCell id="aHVj8BekIc4aH72RrsHI-116" value="METHOD&lt;br style=&quot;font-size: 15px;&quot;&gt;FINALS" style="whiteSpace=wrap;html=1;rounded=1;fontSize=15;labelBackgroundColor=none;fontColor=#000000;container=0;" parent="1" vertex="1">
          <mxGeometry x="437.7984745762713" y="-587.9387417218543" width="112.8813559322034" height="50.66225165562914" as="geometry" />
        </mxCell>
        <mxCell id="aHVj8BekIc4aH72RrsHI-117" value="K" style="verticalLabelPosition=bottom;verticalAlign=top;html=1;shape=offPageConnector;rounded=0;size=0.5;fontFamily=Helvetica;fontSize=15;fontColor=#000000;align=center;strokeColor=default;fillColor=#CCCCFF;container=0;" parent="1" vertex="1">
          <mxGeometry x="975.5145762711863" y="-30.653973509933735" width="37.6271186440678" height="30.397350993377486" as="geometry" />
        </mxCell>
        <mxCell id="aHVj8BekIc4aH72RrsHI-126" style="edgeStyle=orthogonalEdgeStyle;rounded=0;orthogonalLoop=1;jettySize=auto;html=1;exitX=0.5;exitY=1;exitDx=0;exitDy=0;fontSize=15;" parent="1" source="aHVj8BekIc4aH72RrsHI-112" target="aHVj8BekIc4aH72RrsHI-117" edge="1">
          <mxGeometry relative="1" as="geometry" />
        </mxCell>
        <mxCell id="xnHXBcFHECdrzZ-fq_bB-14" style="edgeStyle=orthogonalEdgeStyle;rounded=0;orthogonalLoop=1;jettySize=auto;html=1;exitX=0.5;exitY=1;exitDx=0;exitDy=0;fontSize=15;" parent="1" source="xnHXBcFHECdrzZ-fq_bB-10" target="aHVj8BekIc4aH72RrsHI-92" edge="1">
          <mxGeometry relative="1" as="geometry" />
        </mxCell>
        <mxCell id="xnHXBcFHECdrzZ-fq_bB-10" value="Will Repeat the while loop input raw scores until the last while loop has been broken" style="whiteSpace=wrap;html=1;rounded=1;fontSize=15;labelBackgroundColor=none;fontColor=#000000;container=0;" parent="1" vertex="1">
          <mxGeometry x="902.29" y="-412.86999999999995" width="184.07" height="75.43" as="geometry" />
        </mxCell>
        <mxCell id="xnHXBcFHECdrzZ-fq_bB-15" value="YES" style="edgeStyle=orthogonalEdgeStyle;rounded=0;orthogonalLoop=1;jettySize=auto;html=1;fontSize=15;" parent="1" source="aHVj8BekIc4aH72RrsHI-102" target="xnHXBcFHECdrzZ-fq_bB-10" edge="1">
          <mxGeometry relative="1" as="geometry" />
        </mxCell>
      </root>
    </mxGraphModel>
  </diagram>
  <diagram id="jpe_FRLzdSZ4FmDz-_YS" name="Page-3">
    <mxGraphModel dx="3863" dy="2854" grid="1" gridSize="10" guides="1" tooltips="1" connect="1" arrows="1" fold="1" page="1" pageScale="1" pageWidth="1169" pageHeight="827" math="0" shadow="0">
      <root>
        <mxCell id="0" />
        <mxCell id="1" parent="0" />
        <mxCell id="QkUwCLq0P_vybV1hK1Ln-23" value="&lt;h1 style=&quot;font-size: 12px;&quot;&gt;REMARKS&lt;/h1&gt;&lt;h1 style=&quot;font-size: 12px;&quot;&gt;&lt;label style=&quot;box-sizing: border-box; display: inline-block; margin-bottom: 0.5rem; font-size: 12px; font-family: &amp;quot;Open Sans&amp;quot;, sans-serif;&quot; class=&quot;text-muted&quot;&gt;Grading System:&lt;/label&gt;&lt;br style=&quot;box-sizing: border-box; font-family: &amp;quot;Open Sans&amp;quot;, sans-serif; font-size: 12px; font-weight: 400;&quot;&gt;&lt;div style=&quot;box-sizing: border-box; display: flex; flex-wrap: wrap; margin-right: 0px; margin-left: -15px; font-family: &amp;quot;Open Sans&amp;quot;, sans-serif; font-size: 12px; font-weight: 400;&quot; class=&quot;row&quot;&gt;&lt;div style=&quot;box-sizing: border-box; position: relative; width: 357.672px; min-height: 1px; padding-right: 15px; padding-left: 15px; flex-basis: 0px; flex-grow: 1; max-width: 100%; font-size: 12px;&quot; class=&quot;col-sm col-lg&quot;&gt;&lt;label style=&quot;box-sizing: border-box; display: inline-block; margin-bottom: 0.5rem; font-size: 12px; font-weight: 600;&quot; class=&quot;text-muted&quot;&gt;&lt;span style=&quot;box-sizing: border-box; font-family: themify; speak: none; font-weight: normal; font-variant-numeric: normal; font-variant-east-asian: normal; line-height: 1; -webkit-font-smoothing: antialiased; font-size: 12px;&quot; class=&quot;ti-star&quot;&gt;&lt;/span&gt;&amp;nbsp;97.50 - 100% (1.00) Excellent&amp;nbsp;&lt;/label&gt;&amp;nbsp;&lt;label style=&quot;box-sizing: border-box; display: inline-block; margin-bottom: 0.5rem; font-size: 12px; font-weight: 600;&quot; class=&quot;text-muted&quot;&gt;&lt;span style=&quot;box-sizing: border-box; font-family: themify; speak: none; font-weight: normal; font-variant-numeric: normal; font-variant-east-asian: normal; line-height: 1; -webkit-font-smoothing: antialiased; font-size: 12px;&quot; class=&quot;ti-star&quot;&gt;&lt;/span&gt;&amp;nbsp;94.50 - 97.49% (1.25) Very Good&amp;nbsp;&lt;/label&gt;&amp;nbsp;&lt;label style=&quot;box-sizing: border-box; display: inline-block; margin-bottom: 0.5rem; font-size: 12px; font-weight: 600;&quot; class=&quot;text-muted&quot;&gt;&lt;span style=&quot;box-sizing: border-box; font-family: themify; speak: none; font-weight: normal; font-variant-numeric: normal; font-variant-east-asian: normal; line-height: 1; -webkit-font-smoothing: antialiased; font-size: 12px;&quot; class=&quot;ti-star&quot;&gt;&lt;/span&gt;&amp;nbsp;91.50 - 94.49% (1.50) Very Good&amp;nbsp;&lt;/label&gt;&amp;nbsp;&lt;label style=&quot;box-sizing: border-box; display: inline-block; margin-bottom: 0.5rem; font-size: 12px; font-weight: 600;&quot; class=&quot;text-muted&quot;&gt;&lt;span style=&quot;box-sizing: border-box; font-family: themify; speak: none; font-weight: normal; font-variant-numeric: normal; font-variant-east-asian: normal; line-height: 1; -webkit-font-smoothing: antialiased; font-size: 12px;&quot; class=&quot;ti-star&quot;&gt;&lt;/span&gt;&amp;nbsp;88.50 - 91.49% (1.75) Very Good&amp;nbsp;&lt;/label&gt;&lt;/div&gt;&lt;div style=&quot;box-sizing: border-box; position: relative; width: 357.672px; min-height: 1px; padding-right: 15px; padding-left: 15px; flex-basis: 0px; flex-grow: 1; max-width: 100%; font-size: 12px;&quot; class=&quot;col-sm col-lg&quot;&gt;&lt;label style=&quot;box-sizing: border-box; display: inline-block; margin-bottom: 0.5rem; font-size: 12px; font-weight: 600;&quot; class=&quot;text-muted&quot;&gt;&lt;span style=&quot;box-sizing: border-box; font-family: themify; speak: none; font-weight: normal; font-variant-numeric: normal; font-variant-east-asian: normal; line-height: 1; -webkit-font-smoothing: antialiased; font-size: 12px;&quot; class=&quot;ti-star&quot;&gt;&lt;/span&gt;&amp;nbsp;85.50 - 88.49% (2.00) Satisfactory&amp;nbsp;&lt;/label&gt;&amp;nbsp;&lt;label style=&quot;box-sizing: border-box; display: inline-block; margin-bottom: 0.5rem; font-size: 12px; font-weight: 600;&quot; class=&quot;text-muted&quot;&gt;&lt;span style=&quot;box-sizing: border-box; font-family: themify; speak: none; font-weight: normal; font-variant-numeric: normal; font-variant-east-asian: normal; line-height: 1; -webkit-font-smoothing: antialiased; font-size: 12px;&quot; class=&quot;ti-star&quot;&gt;&lt;/span&gt;&amp;nbsp;82.50 - 85.49% (2.25) Satisfactory&amp;nbsp;&lt;/label&gt;&amp;nbsp;&lt;label style=&quot;box-sizing: border-box; display: inline-block; margin-bottom: 0.5rem; font-size: 12px; font-weight: 600;&quot; class=&quot;text-muted&quot;&gt;&lt;span style=&quot;box-sizing: border-box; font-family: themify; speak: none; font-weight: normal; font-variant-numeric: normal; font-variant-east-asian: normal; line-height: 1; -webkit-font-smoothing: antialiased; font-size: 12px;&quot; class=&quot;ti-star&quot;&gt;&lt;/span&gt;&amp;nbsp;79.50 - 82.49% (2.50) Satisfactory&amp;nbsp;&lt;/label&gt;&amp;nbsp;&lt;label style=&quot;box-sizing: border-box; display: inline-block; margin-bottom: 0.5rem; font-size: 12px; font-weight: 600;&quot; class=&quot;text-muted&quot;&gt;&lt;span style=&quot;box-sizing: border-box; font-family: themify; speak: none; font-weight: normal; font-variant-numeric: normal; font-variant-east-asian: normal; line-height: 1; -webkit-font-smoothing: antialiased; font-size: 12px;&quot; class=&quot;ti-star&quot;&gt;&lt;/span&gt;&amp;nbsp;76.50 - 79.49% (2.75) Fair&amp;nbsp;&lt;/label&gt;&lt;/div&gt;&lt;div style=&quot;box-sizing: border-box; position: relative; width: 357.672px; min-height: 1px; padding-right: 15px; padding-left: 15px; flex-basis: 0px; flex-grow: 1; max-width: 100%; font-size: 12px;&quot; class=&quot;col-sm col-lg&quot;&gt;&lt;label style=&quot;box-sizing: border-box; display: inline-block; margin-bottom: 0.5rem; font-size: 12px; font-weight: 600;&quot; class=&quot;text-muted&quot;&gt;&lt;span style=&quot;box-sizing: border-box; font-family: themify; speak: none; font-weight: normal; font-variant-numeric: normal; font-variant-east-asian: normal; line-height: 1; -webkit-font-smoothing: antialiased; font-size: 12px;&quot; class=&quot;ti-star&quot;&gt;&lt;/span&gt;&amp;nbsp;74.50 - 76.49% (3.00) Fair&amp;nbsp;&lt;/label&gt;&amp;nbsp;&lt;label style=&quot;box-sizing: border-box; display: inline-block; margin-bottom: 0.5rem; font-size: 12px; font-weight: 600;&quot; class=&quot;text-muted&quot;&gt;&lt;span style=&quot;box-sizing: border-box; font-family: themify; speak: none; font-weight: normal; font-variant-numeric: normal; font-variant-east-asian: normal; line-height: 1; -webkit-font-smoothing: antialiased; font-size: 12px;&quot; class=&quot;ti-star&quot;&gt;&lt;/span&gt;&amp;nbsp;Below 74.49% (5.00) Failed&amp;nbsp;&lt;/label&gt;&lt;/div&gt;&lt;/div&gt;&lt;/h1&gt;" style="text;html=1;strokeColor=none;fillColor=none;spacing=5;spacingTop=-20;whiteSpace=wrap;overflow=hidden;rounded=1;labelBackgroundColor=none;labelBorderColor=none;fontSize=12;fontColor=#000000;" parent="1" vertex="1">
          <mxGeometry x="-524.34" y="-1470" width="690" height="142.99" as="geometry" />
        </mxCell>
        <mxCell id="qsQLOD_CyxSF-gjZlcWP-1" value="&lt;h1 style=&quot;font-size: 15px;&quot;&gt;&lt;span style=&quot;background-color: initial; font-size: 15px;&quot;&gt;&lt;font style=&quot;font-size: 15px;&quot;&gt;CONNECTORS&lt;/font&gt;&lt;/span&gt;&lt;/h1&gt;&lt;div style=&quot;font-size: 15px;&quot;&gt;&lt;h1 style=&quot;border-color: var(--border-color); font-size: 15px;&quot;&gt;&lt;span style=&quot;border-color: var(--border-color); font-size: 15px;&quot;&gt;D&lt;/span&gt;&lt;span style=&quot;border-color: var(--border-color); font-weight: normal; font-size: 15px;&quot;&gt;&amp;nbsp;= RE-DIRECT TO TEACHER SELECTION&lt;/span&gt;&lt;/h1&gt;&lt;/div&gt;&lt;div style=&quot;border-color: var(--border-color); font-size: 15px;&quot;&gt;&lt;span style=&quot;border-color: var(--border-color); font-size: 15px;&quot;&gt;&lt;b style=&quot;font-size: 15px;&quot;&gt;L&lt;/b&gt; = GO TO NEXT DECISION BLOCK&lt;/span&gt;&lt;/div&gt;&lt;div style=&quot;border-color: var(--border-color); font-size: 15px;&quot;&gt;&lt;span style=&quot;border-color: var(--border-color); font-size: 15px;&quot;&gt;&lt;div style=&quot;border-color: var(--border-color);&quot;&gt;&lt;h1 style=&quot;border-color: var(--border-color); font-size: 15px;&quot;&gt;&lt;span style=&quot;border-color: var(--border-color);&quot;&gt;Q&lt;/span&gt;&lt;span style=&quot;border-color: var(--border-color); font-weight: normal;&quot;&gt; = RE-DIRECT TO LRN CONFIRMATION&lt;/span&gt;&lt;/h1&gt;&lt;/div&gt;&lt;div style=&quot;border-color: var(--border-color);&quot;&gt;&lt;br&gt;&lt;/div&gt;&lt;/span&gt;&lt;/div&gt;" style="text;html=1;strokeColor=none;fillColor=none;spacing=5;spacingTop=-20;whiteSpace=wrap;overflow=hidden;rounded=1;fontSize=15;labelBorderColor=none;labelBackgroundColor=none;fontColor=#000000;align=left;" parent="1" vertex="1">
          <mxGeometry x="-1150" y="-1631.14" width="272.57" height="151.14" as="geometry" />
        </mxCell>
        <mxCell id="QkUwCLq0P_vybV1hK1Ln-1" value="" style="edgeStyle=orthogonalEdgeStyle;rounded=1;orthogonalLoop=1;jettySize=auto;html=1;fontSize=15;labelBackgroundColor=none;fontColor=#000000;" parent="1" source="QkUwCLq0P_vybV1hK1Ln-2" edge="1">
          <mxGeometry relative="1" as="geometry">
            <mxPoint x="-1038.6915250965253" y="-1334.5714285714284" as="targetPoint" />
          </mxGeometry>
        </mxCell>
        <mxCell id="QkUwCLq0P_vybV1hK1Ln-2" value="K" style="verticalLabelPosition=bottom;verticalAlign=top;html=1;shape=offPageConnector;rounded=0;size=0.5;fontFamily=Helvetica;fontSize=15;fontColor=#000000;align=center;strokeColor=default;fillColor=#CCCCFF;" parent="1" vertex="1">
          <mxGeometry x="-1050.7472200772202" y="-1440.2857142857142" width="24.111389961389975" height="26.428571428571427" as="geometry" />
        </mxCell>
        <mxCell id="QkUwCLq0P_vybV1hK1Ln-4" value="INPUT&amp;nbsp;&lt;br style=&quot;font-size: 15px;&quot;&gt;LRN &lt;br style=&quot;font-size: 15px;&quot;&gt;CONFIRMATION" style="shape=parallelogram;perimeter=parallelogramPerimeter;whiteSpace=wrap;html=1;fixedSize=1;fontFamily=Helvetica;fontSize=15;fontColor=#000000;align=center;strokeColor=default;fillColor=default;" parent="1" vertex="1">
          <mxGeometry x="-1108.18" y="-1334.57" width="138.97" height="84.57" as="geometry" />
        </mxCell>
        <mxCell id="QkUwCLq0P_vybV1hK1Ln-6" value="CALCULATION&amp;nbsp;&lt;br style=&quot;font-size: 15px;&quot;&gt;SEMESTER GRADE" style="whiteSpace=wrap;html=1;fontSize=15;rounded=1;labelBackgroundColor=none;fontColor=#000000;" parent="1" vertex="1">
          <mxGeometry x="-1096.56" y="-1039.9957142857143" width="115.73467181467184" height="63.428571428571445" as="geometry" />
        </mxCell>
        <mxCell id="00GsTte3gdfTiggyACVF-7" value="YES" style="edgeStyle=orthogonalEdgeStyle;rounded=0;orthogonalLoop=1;jettySize=auto;html=1;fontSize=15;" parent="1" source="QkUwCLq0P_vybV1hK1Ln-9" target="QkUwCLq0P_vybV1hK1Ln-12" edge="1">
          <mxGeometry relative="1" as="geometry" />
        </mxCell>
        <mxCell id="QkUwCLq0P_vybV1hK1Ln-9" value="GRADE &amp;gt;= 97.5 &amp;amp;&amp;amp; &amp;lt;= 100" style="rhombus;whiteSpace=wrap;html=1;labelBackgroundColor=none;labelBorderColor=none;fontSize=15;rounded=1;fontColor=#000000;" parent="1" vertex="1">
          <mxGeometry x="-816.8700000000001" y="-1060.07" width="222.2" height="103.57" as="geometry" />
        </mxCell>
        <mxCell id="QkUwCLq0P_vybV1hK1Ln-5" style="edgeStyle=orthogonalEdgeStyle;rounded=0;orthogonalLoop=1;jettySize=auto;html=1;exitX=1;exitY=0.5;exitDx=0;exitDy=0;fontColor=#000000;fontSize=15;" parent="1" source="QkUwCLq0P_vybV1hK1Ln-6" target="QkUwCLq0P_vybV1hK1Ln-9" edge="1">
          <mxGeometry relative="1" as="geometry" />
        </mxCell>
        <mxCell id="00GsTte3gdfTiggyACVF-5" value="" style="edgeStyle=orthogonalEdgeStyle;rounded=0;orthogonalLoop=1;jettySize=auto;html=1;fontSize=15;" parent="1" source="QkUwCLq0P_vybV1hK1Ln-12" target="QkUwCLq0P_vybV1hK1Ln-57" edge="1">
          <mxGeometry relative="1" as="geometry" />
        </mxCell>
        <mxCell id="QkUwCLq0P_vybV1hK1Ln-12" value="DISPLAY STUDENT INFO AND GRADE + &quot;1.00 EXELENT&quot;" style="whiteSpace=wrap;html=1;fontSize=15;labelBackgroundColor=none;labelBorderColor=none;rounded=1;fontColor=#000000;" parent="1" vertex="1">
          <mxGeometry x="-787.3700000000001" y="-909.42" width="163.2" height="72.29" as="geometry" />
        </mxCell>
        <mxCell id="QkUwCLq0P_vybV1hK1Ln-15" value="GRADE &amp;gt;= 94.5 &amp;amp;&amp;amp; &amp;lt;= 97.49" style="rhombus;whiteSpace=wrap;html=1;labelBackgroundColor=none;labelBorderColor=none;fontSize=15;rounded=1;fontColor=#000000;" parent="1" vertex="1">
          <mxGeometry x="-524.3400000000001" y="-1061.46" width="222.33" height="106.36" as="geometry" />
        </mxCell>
        <mxCell id="QkUwCLq0P_vybV1hK1Ln-7" value="NO" style="edgeStyle=orthogonalEdgeStyle;rounded=0;orthogonalLoop=1;jettySize=auto;html=1;fontSize=15;fontColor=#000000;" parent="1" source="QkUwCLq0P_vybV1hK1Ln-9" target="QkUwCLq0P_vybV1hK1Ln-15" edge="1">
          <mxGeometry relative="1" as="geometry" />
        </mxCell>
        <mxCell id="00GsTte3gdfTiggyACVF-6" value="" style="edgeStyle=orthogonalEdgeStyle;rounded=0;orthogonalLoop=1;jettySize=auto;html=1;fontSize=12;" parent="1" source="QkUwCLq0P_vybV1hK1Ln-17" target="QkUwCLq0P_vybV1hK1Ln-59" edge="1">
          <mxGeometry relative="1" as="geometry" />
        </mxCell>
        <mxCell id="QkUwCLq0P_vybV1hK1Ln-17" value="DISPLAY STUDENT INFO AND GRADE + &quot;1.25 VERY GOOD&quot;" style="whiteSpace=wrap;html=1;fontSize=15;labelBackgroundColor=none;labelBorderColor=none;rounded=1;fontColor=#000000;" parent="1" vertex="1">
          <mxGeometry x="-495.90000000000003" y="-909.42" width="165.46" height="73.43" as="geometry" />
        </mxCell>
        <mxCell id="QkUwCLq0P_vybV1hK1Ln-14" value="YES" style="edgeStyle=orthogonalEdgeStyle;rounded=0;orthogonalLoop=1;jettySize=auto;html=1;fontSize=15;fontColor=#000000;" parent="1" source="QkUwCLq0P_vybV1hK1Ln-15" target="QkUwCLq0P_vybV1hK1Ln-17" edge="1">
          <mxGeometry relative="1" as="geometry" />
        </mxCell>
        <mxCell id="QkUwCLq0P_vybV1hK1Ln-20" value="GRADE &amp;gt;= 91.5 &amp;amp;&amp;amp; &amp;lt;= 94.49" style="rhombus;whiteSpace=wrap;html=1;labelBackgroundColor=none;labelBorderColor=none;fontSize=15;rounded=1;fontColor=#000000;" parent="1" vertex="1">
          <mxGeometry x="-232.07999999999998" y="-1059.3700000000001" width="219.66" height="102.18" as="geometry" />
        </mxCell>
        <mxCell id="QkUwCLq0P_vybV1hK1Ln-13" value="NO" style="edgeStyle=orthogonalEdgeStyle;rounded=0;orthogonalLoop=1;jettySize=auto;html=1;fontSize=15;fontColor=#000000;" parent="1" source="QkUwCLq0P_vybV1hK1Ln-15" target="QkUwCLq0P_vybV1hK1Ln-20" edge="1">
          <mxGeometry relative="1" as="geometry" />
        </mxCell>
        <mxCell id="00GsTte3gdfTiggyACVF-10" value="" style="edgeStyle=orthogonalEdgeStyle;rounded=0;orthogonalLoop=1;jettySize=auto;html=1;fontSize=15;" parent="1" source="QkUwCLq0P_vybV1hK1Ln-22" target="QkUwCLq0P_vybV1hK1Ln-58" edge="1">
          <mxGeometry relative="1" as="geometry" />
        </mxCell>
        <mxCell id="QkUwCLq0P_vybV1hK1Ln-22" value="DISPLAY STUDENT INFO AND GRADE + &quot;1.50 VERY GOOD&quot;" style="whiteSpace=wrap;html=1;fontSize=15;labelBackgroundColor=none;labelBorderColor=none;rounded=1;fontColor=#000000;" parent="1" vertex="1">
          <mxGeometry x="-202.86" y="-910.73" width="161.23" height="70.73" as="geometry" />
        </mxCell>
        <mxCell id="QkUwCLq0P_vybV1hK1Ln-19" value="YES" style="edgeStyle=orthogonalEdgeStyle;rounded=0;orthogonalLoop=1;jettySize=auto;html=1;fontSize=15;fontColor=#000000;" parent="1" source="QkUwCLq0P_vybV1hK1Ln-20" target="QkUwCLq0P_vybV1hK1Ln-22" edge="1">
          <mxGeometry relative="1" as="geometry" />
        </mxCell>
        <mxCell id="00GsTte3gdfTiggyACVF-12" value="" style="edgeStyle=orthogonalEdgeStyle;rounded=0;orthogonalLoop=1;jettySize=auto;html=1;fontSize=15;" parent="1" source="QkUwCLq0P_vybV1hK1Ln-26" target="QkUwCLq0P_vybV1hK1Ln-61" edge="1">
          <mxGeometry relative="1" as="geometry" />
        </mxCell>
        <mxCell id="QkUwCLq0P_vybV1hK1Ln-26" value="GRADE &amp;gt;= 88.5 &amp;amp;&amp;amp; &amp;lt;= 91.49" style="rhombus;whiteSpace=wrap;html=1;labelBackgroundColor=none;labelBorderColor=none;fontSize=15;rounded=1;fontColor=#000000;" parent="1" vertex="1">
          <mxGeometry x="60.339999999999996" y="-1060.06" width="214.99" height="102.87" as="geometry" />
        </mxCell>
        <mxCell id="QkUwCLq0P_vybV1hK1Ln-18" value="NO" style="edgeStyle=orthogonalEdgeStyle;rounded=0;orthogonalLoop=1;jettySize=auto;html=1;fontSize=15;fontColor=#000000;" parent="1" source="QkUwCLq0P_vybV1hK1Ln-20" target="QkUwCLq0P_vybV1hK1Ln-26" edge="1">
          <mxGeometry relative="1" as="geometry" />
        </mxCell>
        <mxCell id="00GsTte3gdfTiggyACVF-11" value="" style="edgeStyle=orthogonalEdgeStyle;rounded=0;orthogonalLoop=1;jettySize=auto;html=1;fontSize=15;" parent="1" source="QkUwCLq0P_vybV1hK1Ln-28" target="QkUwCLq0P_vybV1hK1Ln-60" edge="1">
          <mxGeometry relative="1" as="geometry" />
        </mxCell>
        <mxCell id="QkUwCLq0P_vybV1hK1Ln-28" value="DISPLAY STUDENT INFO AND GRADE + &quot;1.75 VERY GOOD&quot;" style="whiteSpace=wrap;html=1;fontSize=15;labelBackgroundColor=none;labelBorderColor=none;rounded=1;fontColor=#000000;" parent="1" vertex="1">
          <mxGeometry x="88.74000000000004" y="-910.73" width="158.19" height="70.73" as="geometry" />
        </mxCell>
        <mxCell id="QkUwCLq0P_vybV1hK1Ln-24" value="YES" style="edgeStyle=orthogonalEdgeStyle;rounded=0;orthogonalLoop=1;jettySize=auto;html=1;fontSize=15;fontColor=#000000;" parent="1" source="QkUwCLq0P_vybV1hK1Ln-26" target="QkUwCLq0P_vybV1hK1Ln-28" edge="1">
          <mxGeometry relative="1" as="geometry" />
        </mxCell>
        <mxCell id="QkUwCLq0P_vybV1hK1Ln-32" value="GRADE &amp;gt;= 85.5 &amp;amp;&amp;amp; &amp;lt;= 88.49" style="rhombus;whiteSpace=wrap;html=1;labelBackgroundColor=none;labelBorderColor=none;fontSize=15;rounded=1;fontColor=#000000;" parent="1" vertex="1">
          <mxGeometry x="-816.87" y="-1299.6899999999998" width="216.87" height="99.37" as="geometry" />
        </mxCell>
        <mxCell id="00GsTte3gdfTiggyACVF-15" value="" style="edgeStyle=orthogonalEdgeStyle;rounded=0;orthogonalLoop=1;jettySize=auto;html=1;fontSize=15;" parent="1" source="QkUwCLq0P_vybV1hK1Ln-33" target="QkUwCLq0P_vybV1hK1Ln-66" edge="1">
          <mxGeometry relative="1" as="geometry" />
        </mxCell>
        <mxCell id="QkUwCLq0P_vybV1hK1Ln-33" value="DISPLAY STUDENT INFO AND GRADE + &quot;2.00 SATISFACTORY&quot;" style="whiteSpace=wrap;html=1;fontSize=15;labelBackgroundColor=none;labelBorderColor=none;rounded=1;fontColor=#000000;" parent="1" vertex="1">
          <mxGeometry x="-792.12" y="-1151.42" width="167.37" height="70.73" as="geometry" />
        </mxCell>
        <mxCell id="QkUwCLq0P_vybV1hK1Ln-30" value="YES" style="edgeStyle=orthogonalEdgeStyle;rounded=0;orthogonalLoop=1;jettySize=auto;html=1;fontSize=15;fontColor=#000000;" parent="1" source="QkUwCLq0P_vybV1hK1Ln-32" target="QkUwCLq0P_vybV1hK1Ln-33" edge="1">
          <mxGeometry relative="1" as="geometry" />
        </mxCell>
        <mxCell id="QkUwCLq0P_vybV1hK1Ln-36" value="GRADE &amp;gt;= 82.5 &amp;amp;&amp;amp; &amp;lt;= 85.49" style="rhombus;whiteSpace=wrap;html=1;labelBackgroundColor=none;labelBorderColor=none;fontSize=15;rounded=1;fontColor=#000000;" parent="1" vertex="1">
          <mxGeometry x="-520.5" y="-1300.01" width="214.65" height="99.69" as="geometry" />
        </mxCell>
        <mxCell id="QkUwCLq0P_vybV1hK1Ln-31" value="NO" style="edgeStyle=orthogonalEdgeStyle;rounded=0;orthogonalLoop=1;jettySize=auto;html=1;fontSize=15;fontColor=#000000;" parent="1" source="QkUwCLq0P_vybV1hK1Ln-32" target="QkUwCLq0P_vybV1hK1Ln-36" edge="1">
          <mxGeometry relative="1" as="geometry" />
        </mxCell>
        <mxCell id="00GsTte3gdfTiggyACVF-18" value="" style="edgeStyle=orthogonalEdgeStyle;rounded=0;orthogonalLoop=1;jettySize=auto;html=1;fontSize=15;" parent="1" source="QkUwCLq0P_vybV1hK1Ln-37" target="QkUwCLq0P_vybV1hK1Ln-68" edge="1">
          <mxGeometry relative="1" as="geometry" />
        </mxCell>
        <mxCell id="QkUwCLq0P_vybV1hK1Ln-37" value="DISPLAY STUDENT INFO AND GRADE + &quot;2.25 SATISFACTORY&quot;" style="whiteSpace=wrap;html=1;fontSize=15;labelBackgroundColor=none;labelBorderColor=none;rounded=1;fontColor=#000000;" parent="1" vertex="1">
          <mxGeometry x="-499.23" y="-1151.42" width="172.12" height="74.29" as="geometry" />
        </mxCell>
        <mxCell id="QkUwCLq0P_vybV1hK1Ln-35" value="YES" style="edgeStyle=orthogonalEdgeStyle;rounded=0;orthogonalLoop=1;jettySize=auto;html=1;fontSize=15;fontColor=#000000;" parent="1" source="QkUwCLq0P_vybV1hK1Ln-36" target="QkUwCLq0P_vybV1hK1Ln-37" edge="1">
          <mxGeometry relative="1" as="geometry" />
        </mxCell>
        <mxCell id="QkUwCLq0P_vybV1hK1Ln-40" value="GRADE &amp;gt;= 79.5 &amp;amp;&amp;amp; &amp;lt;= 82.49" style="rhombus;whiteSpace=wrap;html=1;labelBackgroundColor=none;labelBorderColor=none;fontSize=15;rounded=1;fontColor=#000000;" parent="1" vertex="1">
          <mxGeometry x="-232.07999999999998" y="-1302.99" width="210.5" height="99.69" as="geometry" />
        </mxCell>
        <mxCell id="QkUwCLq0P_vybV1hK1Ln-34" value="NO" style="edgeStyle=orthogonalEdgeStyle;rounded=0;orthogonalLoop=1;jettySize=auto;html=1;fontSize=15;fontColor=#000000;" parent="1" source="QkUwCLq0P_vybV1hK1Ln-36" target="QkUwCLq0P_vybV1hK1Ln-40" edge="1">
          <mxGeometry relative="1" as="geometry" />
        </mxCell>
        <mxCell id="00GsTte3gdfTiggyACVF-17" value="" style="edgeStyle=orthogonalEdgeStyle;rounded=0;orthogonalLoop=1;jettySize=auto;html=1;fontSize=15;" parent="1" source="QkUwCLq0P_vybV1hK1Ln-41" target="QkUwCLq0P_vybV1hK1Ln-70" edge="1">
          <mxGeometry relative="1" as="geometry" />
        </mxCell>
        <mxCell id="QkUwCLq0P_vybV1hK1Ln-41" value="DISPLAY STUDENT INFO AND GRADE + &quot;2.50 SATISFACTORY&quot;" style="whiteSpace=wrap;html=1;fontSize=15;labelBackgroundColor=none;labelBorderColor=none;rounded=1;fontColor=#000000;" parent="1" vertex="1">
          <mxGeometry x="-211.45" y="-1153.5600000000002" width="169.23" height="72.87" as="geometry" />
        </mxCell>
        <mxCell id="QkUwCLq0P_vybV1hK1Ln-38" value="YES" style="edgeStyle=orthogonalEdgeStyle;rounded=0;orthogonalLoop=1;jettySize=auto;html=1;fontSize=15;fontColor=#000000;" parent="1" source="QkUwCLq0P_vybV1hK1Ln-40" target="QkUwCLq0P_vybV1hK1Ln-41" edge="1">
          <mxGeometry relative="1" as="geometry" />
        </mxCell>
        <mxCell id="QkUwCLq0P_vybV1hK1Ln-44" value="GRADE &amp;gt;= 76.5 &amp;amp;&amp;amp; &amp;lt;= 79.49" style="rhombus;whiteSpace=wrap;html=1;labelBackgroundColor=none;labelBorderColor=none;fontSize=15;rounded=1;fontColor=#000000;" parent="1" vertex="1">
          <mxGeometry x="61.79999999999998" y="-1304.64" width="212.08" height="102.99" as="geometry" />
        </mxCell>
        <mxCell id="QkUwCLq0P_vybV1hK1Ln-39" value="NO" style="edgeStyle=orthogonalEdgeStyle;rounded=0;orthogonalLoop=1;jettySize=auto;html=1;fontSize=15;fontColor=#000000;" parent="1" source="QkUwCLq0P_vybV1hK1Ln-40" target="QkUwCLq0P_vybV1hK1Ln-44" edge="1">
          <mxGeometry relative="1" as="geometry" />
        </mxCell>
        <mxCell id="00GsTte3gdfTiggyACVF-16" value="" style="edgeStyle=orthogonalEdgeStyle;rounded=0;orthogonalLoop=1;jettySize=auto;html=1;fontSize=15;" parent="1" source="QkUwCLq0P_vybV1hK1Ln-45" target="QkUwCLq0P_vybV1hK1Ln-72" edge="1">
          <mxGeometry relative="1" as="geometry" />
        </mxCell>
        <mxCell id="QkUwCLq0P_vybV1hK1Ln-45" value="DISPLAY STUDENT INFO AND GRADE + &quot;2.75 FAIR&quot;" style="whiteSpace=wrap;html=1;fontSize=15;labelBackgroundColor=none;labelBorderColor=none;rounded=1;fontColor=#000000;" parent="1" vertex="1">
          <mxGeometry x="83.19" y="-1153.5600000000002" width="171.45" height="71.42" as="geometry" />
        </mxCell>
        <mxCell id="QkUwCLq0P_vybV1hK1Ln-42" value="YES" style="edgeStyle=orthogonalEdgeStyle;rounded=0;orthogonalLoop=1;jettySize=auto;html=1;fontSize=15;fontColor=#000000;" parent="1" source="QkUwCLq0P_vybV1hK1Ln-44" target="QkUwCLq0P_vybV1hK1Ln-45" edge="1">
          <mxGeometry relative="1" as="geometry" />
        </mxCell>
        <mxCell id="QkUwCLq0P_vybV1hK1Ln-49" value="GRADE &amp;gt;= 74.5 &amp;amp;&amp;amp; &amp;lt;= 76.49" style="rhombus;whiteSpace=wrap;html=1;labelBackgroundColor=none;labelBorderColor=none;fontSize=15;rounded=1;fontColor=#000000;" parent="1" vertex="1">
          <mxGeometry x="-814.21" y="-1600" width="216.87" height="102.99" as="geometry" />
        </mxCell>
        <mxCell id="UeTkpX_XfwfqISdtmOk2-2" value="" style="edgeStyle=orthogonalEdgeStyle;rounded=0;orthogonalLoop=1;jettySize=auto;html=1;fontSize=15;" parent="1" source="QkUwCLq0P_vybV1hK1Ln-50" target="QkUwCLq0P_vybV1hK1Ln-74" edge="1">
          <mxGeometry relative="1" as="geometry" />
        </mxCell>
        <mxCell id="QkUwCLq0P_vybV1hK1Ln-50" value="DISPLAY STUDENT INFO AND GRADE + &quot;3.00 FAIR&quot;" style="whiteSpace=wrap;html=1;fontSize=15;labelBackgroundColor=none;labelBorderColor=none;rounded=1;fontColor=#000000;" parent="1" vertex="1">
          <mxGeometry x="-792.12" y="-1450.14" width="172.12" height="69.56" as="geometry" />
        </mxCell>
        <mxCell id="QkUwCLq0P_vybV1hK1Ln-48" value="YES" style="edgeStyle=orthogonalEdgeStyle;rounded=0;orthogonalLoop=1;jettySize=auto;html=1;exitX=0.5;exitY=1;exitDx=0;exitDy=0;entryX=0.5;entryY=0;entryDx=0;entryDy=0;fontSize=15;fontColor=#000000;" parent="1" source="QkUwCLq0P_vybV1hK1Ln-49" target="QkUwCLq0P_vybV1hK1Ln-50" edge="1">
          <mxGeometry relative="1" as="geometry" />
        </mxCell>
        <mxCell id="UeTkpX_XfwfqISdtmOk2-3" value="" style="edgeStyle=orthogonalEdgeStyle;rounded=0;orthogonalLoop=1;jettySize=auto;html=1;fontSize=15;" parent="1" source="QkUwCLq0P_vybV1hK1Ln-51" target="QkUwCLq0P_vybV1hK1Ln-76" edge="1">
          <mxGeometry relative="1" as="geometry" />
        </mxCell>
        <mxCell id="QkUwCLq0P_vybV1hK1Ln-51" value="DISPLAY STUDENT INFO AND GRADE + &quot;FAILED&quot;" style="whiteSpace=wrap;html=1;fontSize=15;labelBackgroundColor=none;labelBorderColor=none;rounded=1;fontColor=#000000;" parent="1" vertex="1">
          <mxGeometry x="-524.34" y="-1583.5800000000002" width="172.12" height="70.14" as="geometry" />
        </mxCell>
        <mxCell id="QkUwCLq0P_vybV1hK1Ln-47" value="NO" style="edgeStyle=orthogonalEdgeStyle;rounded=0;orthogonalLoop=1;jettySize=auto;html=1;fontSize=15;fontColor=#000000;" parent="1" source="QkUwCLq0P_vybV1hK1Ln-49" target="QkUwCLq0P_vybV1hK1Ln-51" edge="1">
          <mxGeometry relative="1" as="geometry" />
        </mxCell>
        <mxCell id="00GsTte3gdfTiggyACVF-3" value="YES" style="edgeStyle=orthogonalEdgeStyle;rounded=0;orthogonalLoop=1;jettySize=auto;html=1;fontSize=15;" parent="1" source="QkUwCLq0P_vybV1hK1Ln-54" target="QkUwCLq0P_vybV1hK1Ln-6" edge="1">
          <mxGeometry relative="1" as="geometry" />
        </mxCell>
        <mxCell id="QkUwCLq0P_vybV1hK1Ln-54" value="CONFIRM&lt;br style=&quot;font-size: 15px;&quot;&gt;LRN" style="rhombus;whiteSpace=wrap;html=1;fontSize=15;fontColor=#000000;" parent="1" vertex="1">
          <mxGeometry x="-1092.33" y="-1210.86" width="107.27" height="108.86" as="geometry" />
        </mxCell>
        <mxCell id="QkUwCLq0P_vybV1hK1Ln-3" value="" style="edgeStyle=orthogonalEdgeStyle;rounded=0;orthogonalLoop=1;jettySize=auto;html=1;fontSize=15;fontColor=#000000;" parent="1" source="QkUwCLq0P_vybV1hK1Ln-4" target="QkUwCLq0P_vybV1hK1Ln-54" edge="1">
          <mxGeometry relative="1" as="geometry" />
        </mxCell>
        <mxCell id="hzKptRJplHi4TtlJHqIq-1" style="edgeStyle=orthogonalEdgeStyle;rounded=0;orthogonalLoop=1;jettySize=auto;html=1;exitX=0.5;exitY=1;exitDx=0;exitDy=0;" parent="1" source="QkUwCLq0P_vybV1hK1Ln-56" edge="1">
          <mxGeometry relative="1" as="geometry">
            <mxPoint x="-875" y="-1090" as="targetPoint" />
          </mxGeometry>
        </mxCell>
        <mxCell id="QkUwCLq0P_vybV1hK1Ln-56" value="DISPLAY&amp;nbsp; WRONG LRN" style="whiteSpace=wrap;html=1;fontSize=15;fontColor=#000000;" parent="1" vertex="1">
          <mxGeometry x="-932.6071042471044" y="-1188.1471428571426" width="115.73467181467184" height="63.428571428571445" as="geometry" />
        </mxCell>
        <mxCell id="QkUwCLq0P_vybV1hK1Ln-53" value="NO" style="edgeStyle=orthogonalEdgeStyle;rounded=0;orthogonalLoop=1;jettySize=auto;html=1;fontSize=15;fontColor=#000000;" parent="1" source="QkUwCLq0P_vybV1hK1Ln-54" target="QkUwCLq0P_vybV1hK1Ln-56" edge="1">
          <mxGeometry relative="1" as="geometry" />
        </mxCell>
        <mxCell id="QkUwCLq0P_vybV1hK1Ln-57" value="D" style="verticalLabelPosition=bottom;verticalAlign=top;html=1;shape=offPageConnector;rounded=0;size=0.5;fontFamily=Helvetica;fontSize=15;fontColor=#000000;align=center;strokeColor=default;fillColor=#99FF33;" parent="1" vertex="1">
          <mxGeometry x="-580.1300000000001" y="-887.96" width="32.2" height="29.36" as="geometry" />
        </mxCell>
        <mxCell id="QkUwCLq0P_vybV1hK1Ln-58" value="D" style="verticalLabelPosition=bottom;verticalAlign=top;html=1;shape=offPageConnector;rounded=0;size=0.5;fontFamily=Helvetica;fontSize=15;fontColor=#000000;align=center;strokeColor=default;fillColor=#99FF33;" parent="1" vertex="1">
          <mxGeometry x="-0.6099999999999781" y="-889.73" width="32.15" height="28.69" as="geometry" />
        </mxCell>
        <mxCell id="QkUwCLq0P_vybV1hK1Ln-59" value="D" style="verticalLabelPosition=bottom;verticalAlign=top;html=1;shape=offPageConnector;rounded=0;size=0.5;fontFamily=Helvetica;fontSize=15;fontColor=#000000;align=center;strokeColor=default;fillColor=#99FF33;" parent="1" vertex="1">
          <mxGeometry x="-277.8900000000001" y="-888.4200000000001" width="35.46" height="30.82" as="geometry" />
        </mxCell>
        <mxCell id="QkUwCLq0P_vybV1hK1Ln-60" value="D" style="verticalLabelPosition=bottom;verticalAlign=top;html=1;shape=offPageConnector;rounded=0;size=0.5;fontFamily=Helvetica;fontSize=15;fontColor=#000000;align=center;strokeColor=default;fillColor=#99FF33;" parent="1" vertex="1">
          <mxGeometry x="360.00000000000006" y="-890.77" width="30" height="30.73" as="geometry" />
        </mxCell>
        <mxCell id="QkUwCLq0P_vybV1hK1Ln-61" value="L" style="ellipse;whiteSpace=wrap;html=1;rounded=1;fontSize=15;labelBackgroundColor=none;fontColor=#000000;fillColor=#FFFFCC;" parent="1" vertex="1">
          <mxGeometry x="357.67" y="-1024.3700000000001" width="34.67" height="31.49" as="geometry" />
        </mxCell>
        <mxCell id="QkUwCLq0P_vybV1hK1Ln-62" value="L" style="ellipse;whiteSpace=wrap;html=1;rounded=1;fontSize=15;labelBackgroundColor=none;fontColor=#000000;fillColor=#FFFFCC;" parent="1" vertex="1">
          <mxGeometry x="360" y="-1263.75" width="30" height="27.5" as="geometry" />
        </mxCell>
        <mxCell id="UeTkpX_XfwfqISdtmOk2-1" value="" style="edgeStyle=orthogonalEdgeStyle;rounded=0;orthogonalLoop=1;jettySize=auto;html=1;fontSize=15;" parent="1" source="QkUwCLq0P_vybV1hK1Ln-63" target="QkUwCLq0P_vybV1hK1Ln-49" edge="1">
          <mxGeometry relative="1" as="geometry" />
        </mxCell>
        <mxCell id="QkUwCLq0P_vybV1hK1Ln-63" value="L" style="ellipse;whiteSpace=wrap;html=1;rounded=1;fontSize=15;labelBackgroundColor=none;fontColor=#000000;fillColor=#FFFFCC;" parent="1" vertex="1">
          <mxGeometry x="-717.3014285714287" y="-1654" width="24.111389961389975" height="26.428571428571427" as="geometry" />
        </mxCell>
        <mxCell id="00GsTte3gdfTiggyACVF-14" value="" style="edgeStyle=orthogonalEdgeStyle;rounded=0;orthogonalLoop=1;jettySize=auto;html=1;fontSize=15;" parent="1" source="QkUwCLq0P_vybV1hK1Ln-64" target="QkUwCLq0P_vybV1hK1Ln-32" edge="1">
          <mxGeometry relative="1" as="geometry" />
        </mxCell>
        <mxCell id="QkUwCLq0P_vybV1hK1Ln-64" value="L" style="ellipse;whiteSpace=wrap;html=1;rounded=1;fontSize=15;labelBackgroundColor=none;fontColor=#000000;fillColor=#FFFFCC;" parent="1" vertex="1">
          <mxGeometry x="-723.6800000000001" y="-1364.57" width="30.49" height="30" as="geometry" />
        </mxCell>
        <mxCell id="QkUwCLq0P_vybV1hK1Ln-66" value="D" style="verticalLabelPosition=bottom;verticalAlign=top;html=1;shape=offPageConnector;rounded=0;size=0.5;fontFamily=Helvetica;fontSize=15;fontColor=#000000;align=center;strokeColor=default;fillColor=#99FF33;" parent="1" vertex="1">
          <mxGeometry x="-580.1299999999999" y="-1132.1299999999999" width="34.67" height="32.14" as="geometry" />
        </mxCell>
        <mxCell id="QkUwCLq0P_vybV1hK1Ln-68" value="D" style="verticalLabelPosition=bottom;verticalAlign=top;html=1;shape=offPageConnector;rounded=0;size=0.5;fontFamily=Helvetica;fontSize=15;fontColor=#000000;align=center;strokeColor=default;fillColor=#99FF33;" parent="1" vertex="1">
          <mxGeometry x="-268.35999999999996" y="-1133.8400000000001" width="36.28" height="39.14" as="geometry" />
        </mxCell>
        <mxCell id="QkUwCLq0P_vybV1hK1Ln-70" value="D" style="verticalLabelPosition=bottom;verticalAlign=top;html=1;shape=offPageConnector;rounded=0;size=0.5;fontFamily=Helvetica;fontSize=15;fontColor=#000000;align=center;strokeColor=default;fillColor=#99FF33;" parent="1" vertex="1">
          <mxGeometry y="-1132.65" width="31.97" height="33.2" as="geometry" />
        </mxCell>
        <mxCell id="QkUwCLq0P_vybV1hK1Ln-72" value="D" style="verticalLabelPosition=bottom;verticalAlign=top;html=1;shape=offPageConnector;rounded=0;size=0.5;fontFamily=Helvetica;fontSize=15;fontColor=#000000;align=center;strokeColor=default;fillColor=#99FF33;" parent="1" vertex="1">
          <mxGeometry x="360.00000000000006" y="-1133.42" width="28.78" height="31.42" as="geometry" />
        </mxCell>
        <mxCell id="QkUwCLq0P_vybV1hK1Ln-74" value="D" style="verticalLabelPosition=bottom;verticalAlign=top;html=1;shape=offPageConnector;rounded=0;size=0.5;fontFamily=Helvetica;fontSize=15;fontColor=#000000;align=center;strokeColor=default;fillColor=#99FF33;" parent="1" vertex="1">
          <mxGeometry x="-582.13" y="-1434.6499999999999" width="36.2" height="38.57" as="geometry" />
        </mxCell>
        <mxCell id="QkUwCLq0P_vybV1hK1Ln-76" value="D" style="verticalLabelPosition=bottom;verticalAlign=top;html=1;shape=offPageConnector;rounded=0;size=0.5;fontFamily=Helvetica;fontSize=15;fontColor=#000000;align=center;strokeColor=default;fillColor=#99FF33;" parent="1" vertex="1">
          <mxGeometry x="-300" y="-1563.4399999999998" width="35.85" height="29.86" as="geometry" />
        </mxCell>
        <mxCell id="QkUwCLq0P_vybV1hK1Ln-43" value="NO" style="edgeStyle=orthogonalEdgeStyle;rounded=0;orthogonalLoop=1;jettySize=auto;html=1;exitX=1;exitY=0.5;exitDx=0;exitDy=0;fontSize=15;fontColor=#000000;entryX=-0.058;entryY=0.379;entryDx=0;entryDy=0;entryPerimeter=0;" parent="1" source="QkUwCLq0P_vybV1hK1Ln-44" target="QkUwCLq0P_vybV1hK1Ln-62" edge="1">
          <mxGeometry relative="1" as="geometry" />
        </mxCell>
        <mxCell id="hzKptRJplHi4TtlJHqIq-2" value="Q" style="ellipse;whiteSpace=wrap;html=1;rounded=1;fontSize=15;labelBackgroundColor=none;fontColor=#000000;fillColor=#FFCCCC;" parent="1" vertex="1">
          <mxGeometry x="-892.0699999999999" y="-1091.51" width="34.67" height="32.14" as="geometry" />
        </mxCell>
        <mxCell id="y0XoZ_i8QfesYWHA_7aX-2" style="edgeStyle=orthogonalEdgeStyle;rounded=0;orthogonalLoop=1;jettySize=auto;html=1;exitX=1;exitY=0.5;exitDx=0;exitDy=0;" parent="1" source="y0XoZ_i8QfesYWHA_7aX-1" edge="1">
          <mxGeometry relative="1" as="geometry">
            <mxPoint x="-1040" y="-1374" as="targetPoint" />
          </mxGeometry>
        </mxCell>
        <mxCell id="y0XoZ_i8QfesYWHA_7aX-1" value="Q" style="ellipse;whiteSpace=wrap;html=1;rounded=1;fontSize=15;labelBackgroundColor=none;fontColor=#000000;fillColor=#FFCCCC;" parent="1" vertex="1">
          <mxGeometry x="-1142.85" y="-1390" width="34.67" height="32.14" as="geometry" />
        </mxCell>
      </root>
    </mxGraphModel>
  </diagram>
</mxfile>
